<?xml version="1.0" encoding="UTF-8" standalone="no"?>
<svg
   id="Layer_2"
   data-name="Layer 2"
   viewBox="0 0 661.02 441.68"
   version="1.1"
   sodipodi:docname="aurora.svg"
   inkscape:version="1.3.2 (091e20e, 2023-11-25)"
   xmlns:inkscape="http://www.inkscape.org/namespaces/inkscape"
   xmlns:sodipodi="http://sodipodi.sourceforge.net/DTD/sodipodi-0.dtd"
   xmlns:xlink="http://www.w3.org/1999/xlink"
   xmlns="http://www.w3.org/2000/svg"
   xmlns:svg="http://www.w3.org/2000/svg">
  <sodipodi:namedview
     id="namedview19"
     pagecolor="#ffffff"
     bordercolor="#000000"
     borderopacity="0.25"
     inkscape:showpageshadow="2"
     inkscape:pageopacity="0.0"
     inkscape:pagecheckerboard="0"
     inkscape:deskcolor="#d1d1d1"
     inkscape:zoom="0.5343235"
     inkscape:cx="330.32423"
     inkscape:cy="220.84"
     inkscape:window-width="1656"
     inkscape:window-height="781"
     inkscape:window-x="0"
     inkscape:window-y="39"
     inkscape:window-maximized="0"
     inkscape:current-layer="Layer_2" />
  <defs
     id="defs12">
    <style
       id="style1">
      .cls-1 {
        fill: url(#linear-gradient);
      }

      .cls-1, .cls-2, .cls-3, .cls-4, .cls-5, .cls-6, .cls-7, .cls-8 {
        stroke-width: 0px;
      }

      .cls-2 {
        fill: url(#linear-gradient-4);
      }

      .cls-3 {
        fill: url(#linear-gradient-2);
      }

      .cls-4 {
        fill: url(#linear-gradient-3);
      }

      .cls-5 {
        fill: url(#linear-gradient-8);
      }

      .cls-6 {
        fill: url(#linear-gradient-7);
      }

      .cls-7 {
        fill: url(#linear-gradient-5);
      }

      .cls-8 {
        fill: url(#linear-gradient-6);
      }
    </style>
    <linearGradient
       id="linear-gradient"
       x1="405.37"
       y1="-2274.81"
       x2="405.37"
       y2="-2370.14"
       gradientTransform="matrix(0.99735269,-0.07271599,-0.08216907,-1.1270085,-190.94,-2241.04)"
       gradientUnits="userSpaceOnUse">
      <stop
         offset="0"
         stop-color="#ffed7b"
         id="stop1" />
      <stop
         offset="1"
         stop-color="#ff5f00"
         id="stop2" />
    </linearGradient>
    <linearGradient
       id="linear-gradient-2"
       x1="327.53"
       y1="-2249.74"
       x2="327.53"
       y2="-2417.62"
       gradientTransform="matrix(0.99735269,-0.07271599,-0.08216907,-1.1270085,-190.94,-2241.04)"
       gradientUnits="userSpaceOnUse">
      <stop
         offset="0"
         stop-color="#ffed7b"
         stop-opacity=".6"
         id="stop3" />
      <stop
         offset="1"
         stop-color="#ff5f00"
         id="stop4" />
    </linearGradient>
    <linearGradient
       id="linear-gradient-3"
       x1="422.86"
       y1="-2143.31"
       x2="422.86"
       y2="-2206.53"
       gradientTransform="translate(0 -1953.97) scale(1 -1)"
       gradientUnits="userSpaceOnUse">
      <stop
         offset="0"
         stop-color="#fff"
         id="stop5" />
      <stop
         offset="1"
         stop-color="#6380ff"
         id="stop6" />
    </linearGradient>
    <linearGradient
       id="linear-gradient-4"
       x1="193.66"
       y1="-2140.33"
       x2="193.66"
       y2="-2231.41"
       xlink:href="#linear-gradient-3" />
    <linearGradient
       id="linear-gradient-5"
       x1="320.91"
       y1="-2078.77"
       x2="268.54"
       y2="-2359.63"
       gradientTransform="matrix(1,0,0,-1,0,-1953.97)"
       gradientUnits="userSpaceOnUse">
      <stop
         offset="0"
         stop-color="#fff"
         stop-opacity=".6"
         id="stop7" />
      <stop
         offset="1"
         stop-color="#6380ff"
         id="stop8" />
    </linearGradient>
    <linearGradient
       id="linear-gradient-6"
       x1="509.23"
       y1="-2011.54"
       x2="509.23"
       y2="-2190.54"
       gradientTransform="translate(-138.08 -1426.68) rotate(-5) scale(1 -.75)"
       gradientUnits="userSpaceOnUse">
      <stop
         offset="0"
         stop-color="#fff"
         id="stop9" />
      <stop
         offset="1"
         stop-color="#5c00ff"
         id="stop10" />
    </linearGradient>
    <linearGradient
       id="linear-gradient-7"
       x1="240.37"
       y1="-2044.54"
       x2="240.37"
       y2="-2168.75"
       xlink:href="#linear-gradient-6" />
    <linearGradient
       id="linear-gradient-8"
       x1="388.48"
       y1="-2028.54"
       x2="388.48"
       y2="-2191.04"
       gradientTransform="matrix(0.9961947,-0.08715574,-0.06536681,-0.74714602,-138.08,-1426.68)"
       gradientUnits="userSpaceOnUse">
      <stop
         offset="0"
         stop-color="#6380ff"
         stop-opacity=".6"
         id="stop11" />
      <stop
         offset="1"
         stop-color="#5c00ff"
         id="stop12" />
    </linearGradient>
    <linearGradient
       inkscape:collect="always"
       xlink:href="#linear-gradient-3"
       id="linearGradient19"
       gradientUnits="userSpaceOnUse"
       gradientTransform="matrix(1,0,0,-1,0,-1953.97)"
       x1="422.86"
       y1="-2143.31"
       x2="422.86"
       y2="-2206.53" />
    <linearGradient
       inkscape:collect="always"
       xlink:href="#linear-gradient-6"
       id="linearGradient20"
       gradientUnits="userSpaceOnUse"
       gradientTransform="matrix(0.9961947,-0.08715574,-0.06536681,-0.74714602,-138.08,-1426.68)"
       x1="509.23"
       y1="-2011.54"
       x2="509.23"
       y2="-2190.54" />
  </defs>
  <g
     id="Everything"
     transform="matrix(0.93771303,0,0,0.62288136,-20.586779,202.12474)">
    <g
       id="aurora">
      <g
         id="Layer_3"
         data-name="Layer 3">
        <path
           class="cls-1"
           d="m 329.88,385.01 73.56,-85.69 c 4.86,-5.67 12.01,10.91 18.84,14.1 7.13,3.33 19.63,-2.17 55.3,-19.51 l -31.16,108.05 c 0.07,0.54 -0.07,1.04 -0.42,1.47 l 0.42,-1.47 c -0.69,-4.97 -20.05,-13.14 -63.92,-0.9 -48.61,13.57 -52.11,-6.02 -52.62,-16.06 z"
           id="path12"
           style="fill:url(#linear-gradient)" />
        <path
           class="cls-3"
           d="M 466.82,299.97 C 537.08,267 609.22,249.32 647.09,254.38 l 13.66,187.3 c -27.8,-5.29 -55.71,-42.79 -126.5,-22.09 -88.49,25.87 -96.5,17.5 -88.39,-9.03 15.45,-50.5 -110.42,23.53 -113.87,-23.75 C 331.02,373.57 217.77,414.97 166.7,402.55 125.85,392.62 39.85,391.93 2.82,404.56 L 0,365.89 c 51.97,-12.37 109.07,-28.64 162.89,-15.66 53.82,12.97 105.89,-26.45 199.2,-48.14 93.31,-21.69 16.9,39.1 104.72,-2.11 z"
           id="path13"
           style="fill:url(#linear-gradient-2)" />
      </g>
      <g
         id="Layer_5"
         data-name="Layer 5">
        <path
           class="cls-4"
           d="m 394.73,266.17 -4.89,-65.24 c 2.65,1.66 11.01,4.57 23.24,2.98 12.23,-1.59 13.66,-10.38 12.84,-14.57 l 29.96,67.56 c 0,17.22 -61.15,17.44 -61.15,9.27 z"
           id="path14"
           style="fill:url(#linearGradient19)" />
        <path
           class="cls-2"
           d="m 184.53,277.43 c 0.24,-0.12 0.48,-0.25 0.73,-0.37 13.6,-7.94 3.38,-56.82 -6.84,-70.16 -8.32,-10.86 1.43,-18.21 7.34,-20.53 5.5,4.75 18.22,20.66 25.07,46.36 6.7,25.16 -14.17,38.4 -25.57,44.33 -0.23,0.14 -0.48,0.26 -0.73,0.37 z"
           id="path15"
           style="fill:url(#linear-gradient-4)" />
        <path
           class="cls-7"
           d="m 611.82,173.86 c -67.43,-9.43 -199.8,-22.64 -189.79,0 12.51,28.3 -3.65,37.87 -47.97,22.89 -44.32,-14.98 -163.2,-23.3 -188.23,-10.4 -25.03,12.9 9.61,19.13 -12.51,26.63 C 96.86,238.93 14.36,161.85 3.87,146.07 v -2.59 c -1.52,-0.61 -1.45,0.4 0,2.59 v 226.71 c 32.85,13.46 196.57,-32.88 181.97,-91.55 -8.25,-33.15 264.35,10.82 270.09,-23.31 4.59,-27.3 105.85,-22.47 155.9,-5.83 v -78.24 z"
           id="path16"
           style="fill:url(#linear-gradient-5)" />
      </g>
      <g
         id="Layer_4"
         data-name="Layer 4">
        <path
           class="cls-8"
           d="M 456.32,144.2 509.14,40.86 c 16.12,11.07 34.35,10.23 47.45,8.33 l 10.45,119.35 C 494.29,174 462.91,154.58 456.32,144.19 Z"
           id="path17"
           style="fill:url(#linearGradient20)" />
        <path
           class="cls-6"
           d="m 219.07,167.24 3.19,-78.95 c 14.61,0.99 11,31.94 39.36,24.16 l -1.21,65.54 c -21.76,5.23 -35.94,0.5 -41.35,-10.75 z"
           id="path18"
           style="fill:url(#linear-gradient-7)" />
        <path
           class="cls-5"
           d="m 228.96,92.48 c -11.4,-15.6 -49.73,10.69 -76.49,29.18 -33.33,23.02 -51.71,51.76 -3.8,26.03 59.89,-32.17 43.71,0.13 77.61,27.05 33.9,26.93 190.78,-64.87 234.54,-25.22 43.75,39.65 200.62,8.38 200.21,3.72 L 647.61,0 C 617.7,25.84 548.35,70.35 510.27,41.67 462.67,5.82 358.59,67.05 298.91,97.23 239.23,127.41 243.2,111.99 228.95,92.48 Z"
           id="path19"
           style="fill:url(#linear-gradient-8)" />
      </g>
    </g>
  </g>
</svg>
