<?xml version="1.0" encoding="UTF-8"?>
<svg id="Layer_2" data-name="Layer 2" xmlns="http://www.w3.org/2000/svg" xmlns:xlink="http://www.w3.org/1999/xlink" viewBox="0 0 78.29 36.5">
  <defs>
    <style>
      .cls-1 {
        fill: url(#linear-gradient-9);
      }

      .cls-1, .cls-2, .cls-3, .cls-4, .cls-5, .cls-6, .cls-7, .cls-8, .cls-9, .cls-10, .cls-11, .cls-12 {
        stroke-miterlimit: 10;
      }

      .cls-1, .cls-6, .cls-8, .cls-11, .cls-12 {
        stroke: #576aff;
      }

      .cls-1, .cls-6, .cls-11 {
        stroke-width: .5px;
      }

      .cls-2 {
        fill: #ffd311;
        stroke: #fbb03b;
      }

      .cls-13 {
        fill: url(#linear-gradient-6);
      }

      .cls-13, .cls-14, .cls-15 {
        stroke-width: 0px;
      }

      .cls-3 {
        fill: url(#linear-gradient-2);
      }

      .cls-3, .cls-9 {
        stroke: #f7931e;
      }

      .cls-14 {
        fill: #86a6ff;
      }

      .cls-4 {
        fill: url(#linear-gradient);
      }

      .cls-4, .cls-5, .cls-7 {
        stroke: #ff5f00;
      }

      .cls-5 {
        fill: url(#linear-gradient-5);
      }

      .cls-6 {
        fill: url(#linear-gradient-7);
      }

      .cls-7 {
        fill: url(#linear-gradient-4);
      }

      .cls-8 {
        fill: url(#linear-gradient-11);
      }

      .cls-9 {
        fill: url(#linear-gradient-3);
        stroke-width: .75px;
      }

      .cls-10 {
        fill: none;
        stroke: #ffc88a;
      }

      .cls-15 {
        fill: #fff9d6;
      }

      .cls-11 {
        fill: url(#linear-gradient-10);
      }

      .cls-12 {
        fill: url(#linear-gradient-8);
        stroke-width: .9px;
      }
    </style>
    <linearGradient id="linear-gradient" x1="6.7" y1="18.54" x2="23.24" y2="2" gradientTransform="translate(7.86 4.64) rotate(23.29)" gradientUnits="userSpaceOnUse">
      <stop offset="0" stop-color="#ff5f00"/>
      <stop offset=".08" stop-color="#ff6801"/>
      <stop offset=".23" stop-color="#ff8105"/>
      <stop offset=".33" stop-color="#ff9909"/>
      <stop offset=".84" stop-color="#ffc40e"/>
      <stop offset="1" stop-color="#ffd311"/>
    </linearGradient>
    <linearGradient id="linear-gradient-2" x1="4.56" y1="8.77" x2="8.74" y2="4.58" xlink:href="#linear-gradient"/>
    <linearGradient id="linear-gradient-3" x1="12.47" y1="20.92" x2="15.98" y2="17.41" xlink:href="#linear-gradient"/>
    <linearGradient id="linear-gradient-4" x1="3.06" y1="18.97" x2="4.95" y2="17.09" xlink:href="#linear-gradient"/>
    <linearGradient id="linear-gradient-5" x1="-.43" y1="15.18" x2=".35" y2="14.4" xlink:href="#linear-gradient"/>
    <linearGradient id="linear-gradient-6" x1="18.89" y1="-213.9" x2="18.89" y2="-157.37" gradientTransform="translate(-96.87 .73) rotate(89.41) scale(1 .82) skewX(.12)" gradientUnits="userSpaceOnUse">
      <stop offset="0" stop-color="#fff9d6"/>
      <stop offset=".54" stop-color="#fef3cc"/>
      <stop offset=".77" stop-color="#fef0c7"/>
      <stop offset=".9" stop-color="#fbdea9"/>
      <stop offset=".99" stop-color="#f9d293"/>
    </linearGradient>
    <linearGradient id="linear-gradient-7" x1="15.77" y1="-159.82" x2="15.77" y2="-138.92" gradientTransform="translate(-114.48 6.4) rotate(88.52)" gradientUnits="userSpaceOnUse">
      <stop offset="0" stop-color="#f9dc93"/>
      <stop offset=".42" stop-color="#6678ff"/>
      <stop offset=".62" stop-color="#5c6fff"/>
      <stop offset=".71" stop-color="#576aff"/>
    </linearGradient>
    <linearGradient id="linear-gradient-8" x1="15.77" y1="-169.85" x2="15.77" y2="-159.81" gradientTransform="translate(-114.48 6.4) rotate(88.52)" gradientUnits="userSpaceOnUse">
      <stop offset="0" stop-color="#f9dc93"/>
      <stop offset="0" stop-color="#a5a7bc"/>
      <stop offset=".43" stop-color="#6470d8"/>
      <stop offset="1" stop-color="#576aff"/>
    </linearGradient>
    <linearGradient id="linear-gradient-9" x1="28.75" y1="-166.99" x2="28.75" y2="-142.88" gradientTransform="translate(-114.48 6.4) rotate(88.52)" gradientUnits="userSpaceOnUse">
      <stop offset="0" stop-color="#6678ff"/>
      <stop offset=".2" stop-color="#6678ff"/>
      <stop offset=".4" stop-color="#576aff"/>
    </linearGradient>
    <linearGradient id="linear-gradient-10" x1="2.8" y1="-167.46" x2="2.8" y2="-143.49" gradientTransform="translate(-114.48 6.4) rotate(88.52)" gradientUnits="userSpaceOnUse">
      <stop offset="0" stop-color="#6678ff"/>
      <stop offset=".4" stop-color="#576aff"/>
    </linearGradient>
    <linearGradient id="linear-gradient-11" x1="71.82" y1="10.25" x2="71.82" y2="25.25" gradientUnits="userSpaceOnUse">
      <stop offset="0" stop-color="#fffdd6"/>
      <stop offset=".54" stop-color="#fef7cc"/>
      <stop offset=".77" stop-color="#fef5c7"/>
      <stop offset=".9" stop-color="#fbe6a9"/>
      <stop offset=".99" stop-color="#f9dc93"/>
    </linearGradient>
  </defs>
  <g id="Layer_4" data-name="Layer 4">
    <path class="cls-14" d="M28.88,13.59s1.58,4.49,1.57,4.38-.53,4.24-.53,4.24c0,0-2.73,1.67-2.99,1.68s-5.68,3.9-5.68,3.9l-4.55-2.07-2.12.43.99-1.33-1.41-.9-.17-1.42-1.18-.54-2.13,1.01-1.06.92-6.89-4.92,4.43,1.37,1.02-.17,1.68-3.68,2.18.36,2.46-.53,1.63-1.29-2.44.54,2.03-1.24.62-1.27,3.72-3.2,4.13.48,2.08,2.35,2.63.91Z"/>
    <polygon class="cls-14" points="14.07 13.58 12.15 14.85 9.78 14.61 5.01 15.19 9 13.49 10.09 13.03 14.07 13.58"/>
    <path class="cls-14" d="M16.4,28.94s-.11,0-.19-.02c-.43-.08-1.29-.34-1.29-.34l-1.91.28-2.68-1.09,2.49,1.91,1.88-.13,2.33-.34-.64-.26Z"/>
    <polygon class="cls-14" points="7.25 23.22 5.19 21.84 .65 22.27 3.75 24.33 8.8 24.25 7.25 23.22"/>
  </g>
  <g id="Layer_3" data-name="Layer 3">
    <path class="cls-4" d="M27.79,14.21s1.57,3.92,1.57,3.83-.33,3.7-.33,3.7c0,0-2.39,1.46-2.62,1.47s-4.95,3.41-4.95,3.41l-4.15-1.81-1.89.38.84-1.16-1.3-.78-.21-1.24-1.07-.47-1.87.88-.91.8-6.35-4.29,4.02,1.2.9-.15,1.37-3.22,1.97.31,2.18-.47,1.42-1.13-2.17.47,1.77-1.08.51-1.11,3.22-2.8,3.72.41,1.95,2.05,2.39.79Z"/>
    <polygon class="cls-3" points="14.3 12.87 13.01 13.65 11.44 13.44 8.26 13.71 10.92 12.69 11.65 12.42 14.3 12.87"/>
    <path class="cls-9" d="M15.73,28.31s-.09,0-.17-.02c-.38-.07-1.13-.32-1.13-.32l-1.7.24-2.34-1.02,2.15,1.77,1.67-.11,2.07-.3-.56-.24Z"/>
    <polygon class="cls-7" points="5.3 22.89 4.36 22.48 2.81 22.38 4.22 22.99 6 23.19 5.3 22.89"/>
    <polygon class="cls-5" points="1.25 17.62 1.59 18.74 2.79 18.78 1.25 17.62"/>
    <polygon class="cls-15" points="21.15 14.9 24.67 20.56 18 20.48 21.15 14.9"/>
    <polygon class="cls-15" points="20.35 22.66 21.92 23.33 24.87 22.43 21.71 24.67 20.35 22.66"/>
    <polygon class="cls-15" points="16.3 18.16 14.97 19.16 12.66 18.93 16.3 18.16"/>
    <polygon class="cls-15" points="19.58 13.79 20.84 12.99 23.91 14.33 19.58 13.79"/>
  </g>
  <g id="Layer_1-2" data-name="Layer 1">
    <g>
      <path class="cls-13" d="M77.79,17.57c0-.23-.02-1.21-.43-2.18-.34-.82-1.97-3.38-4.86-5-1.03-.58-2.24-.98-3.36-1.25-1.87-.46-3.5-.57-3.73-.58h-.01s-.02,0-.02,0h0s-.1,0-.15,0l-29.21.15c-2.42.01-4.37,2.42-4.35,5.39l.04,7.48c.01,2.96,1.99,5.36,4.41,5.35l29.21-.15c.16,0,.33-.02.48-.06h0c1.07-.1,4.38-.51,6.76-1.88,2.88-1.65,4.48-4.23,4.81-5.05.39-.97.41-1.95.4-2.18v-.02Z"/>
      <path class="cls-10" d="M77.79,17.57c0-.23-.02-1.21-.43-2.18-.34-.82-1.97-3.38-4.86-5-1.03-.58-2.24-.98-3.36-1.25-1.87-.46-3.5-.57-3.73-.58h-.01s-.02,0-.02,0h0s-.1,0-.15,0l-29.21.15c-2.42.01-4.37,2.42-4.35,5.39l.04,7.48c.01,2.96,1.99,5.36,4.41,5.35l29.21-.15c.16,0,.33-.02.48-.06h0c1.07-.1,4.38-.51,6.76-1.88,2.88-1.65,4.48-4.23,4.81-5.05.39-.97.41-1.95.4-2.18v-.02Z"/>
    </g>
    <path class="cls-6" d="M35.28,20.75c-1.98.05-10.47-1.29-10.48-2.18s8.4-2.66,10.41-2.71c1.6-.04,10.47,1.2,10.48,2.18s-8.81,2.67-10.41,2.71Z"/>
    <path class="cls-12" d="M45.92,27.1c4.92-4.25-.16-9.09-.16-9.09,0,0,4.7-4.31-.16-9.09l9.88-.22c-4.69,4.99.16,9.09.16,9.09,0,0-4.91,5.06.16,9.09l-9.88.22Z"/>
    <path class="cls-1" d="M52.33,25.83l-11.54.29c-.53.01-1.02.38-1.3.97-.38.8-1.05,1.93-2.06,2.62-1.23.85-5.22,2.36-7.33,3.57-.32.19-1.54.72-.54,1.68.31.3,1.29.82,3.17,1.01l2.4.19c2.3.19,4.59.02,6.83-.51l3.53-.84c2.46-.58,4.7-2.21,6.38-4.62l.09-.13c.4-.58.73-1.22.99-1.93h0c.22-.6.2-1.31-.05-1.89h0c-.12-.27-.34-.43-.57-.43Z"/>
    <path class="cls-11" d="M52.36,9.91l-11.54.29c-.53.01-1.03-.33-1.32-.91-.4-.78-1.1-1.87-2.14-2.52-1.26-.78-5.29-2.1-7.43-3.2-.33-.17-1.56-.64-.59-1.65.3-.32,1.27-.88,3.13-1.17l2.39-.31c2.3-.31,4.59-.25,6.84.16l3.56.65c2.47.46,4.76,1.96,6.52,4.29l.09.12c.42.55.77,1.19,1.05,1.88h0c.24.59.24,1.3,0,1.9h0c-.11.27-.32.45-.56.45Z"/>
    <path class="cls-2" d="M66.54,18.77l-.91.47c-.46.24-.77.68-.83,1.2l-.11.92c-.14,1.12-1.53,1.55-2.28.71l-.46-.53c-.37-.42-.93-.61-1.48-.5l-.75.15c-1.07.21-1.92-.9-1.43-1.87l.51-1.01c.22-.44.22-.96,0-1.4l-.51-1.01c-.49-.97.36-2.09,1.43-1.87l.75.15c.55.11,1.11-.08,1.48-.5l.46-.53c.75-.85,2.14-.41,2.28.71l.11.92c.06.51.38.96.83,1.2l.91.47c.95.49.95,1.84,0,2.33Z"/>
  </g>
  <g id="Layer_2-2" data-name="Layer 2">
    <path class="cls-8" d="M71,10.25s3.68,6.12,0,15"/>
  </g>
</svg>