<?xml version="1.0" encoding="UTF-8" standalone="no"?>
<svg
   id="Layer_2"
   data-name="Layer 2"
   viewBox="0 0 36.5 78.290001"
   version="1.1"
   sodipodi:docname="rocket-open.svg"
   inkscape:version="1.3.2 (091e20e, 2023-11-25)"
   width="36.5"
   height="78.290001"
   xmlns:inkscape="http://www.inkscape.org/namespaces/inkscape"
   xmlns:sodipodi="http://sodipodi.sourceforge.net/DTD/sodipodi-0.dtd"
   xmlns:xlink="http://www.w3.org/1999/xlink"
   xmlns="http://www.w3.org/2000/svg"
   xmlns:svg="http://www.w3.org/2000/svg">
  <sodipodi:namedview
     id="namedview44"
     pagecolor="#ffffff"
     bordercolor="#000000"
     borderopacity="0.25"
     inkscape:showpageshadow="2"
     inkscape:pageopacity="0.0"
     inkscape:pagecheckerboard="0"
     inkscape:deskcolor="#d1d1d1"
     showguides="false"
     inkscape:zoom="8.4396179"
     inkscape:cx="10.012302"
     inkscape:cy="45.321957"
     inkscape:window-width="1536"
     inkscape:window-height="874"
     inkscape:window-x="0"
     inkscape:window-y="39"
     inkscape:window-maximized="0"
     inkscape:current-layer="Layer_2"
     inkscape:lockguides="false" />
  <defs
     id="defs29">
    <style
       id="style1">
      .cls-1 {
        fill: url(#linear-gradient-9);
      }

      .cls-1, .cls-2, .cls-3, .cls-4, .cls-5, .cls-6, .cls-7, .cls-8, .cls-9, .cls-10, .cls-11, .cls-12 {
        stroke-miterlimit: 10;
      }

      .cls-1, .cls-6, .cls-8, .cls-11, .cls-12 {
        stroke: #576aff;
      }

      .cls-1, .cls-6, .cls-11 {
        stroke-width: .5px;
      }

      .cls-2 {
        fill: #ffd311;
        stroke: #fbb03b;
      }

      .cls-13 {
        fill: url(#linear-gradient-6);
      }

      .cls-13, .cls-14, .cls-15 {
        stroke-width: 0px;
      }

      .cls-3 {
        fill: url(#linear-gradient-2);
      }

      .cls-3, .cls-9 {
        stroke: #f7931e;
      }

      .cls-14 {
        fill: #86a6ff;
      }

      .cls-4 {
        fill: url(#linear-gradient);
      }

      .cls-4, .cls-5, .cls-7 {
        stroke: #ff5f00;
      }

      .cls-5 {
        fill: url(#linear-gradient-5);
      }

      .cls-6 {
        fill: url(#linear-gradient-7);
      }

      .cls-7 {
        fill: url(#linear-gradient-4);
      }

      .cls-8 {
        fill: url(#linear-gradient-11);
      }

      .cls-9 {
        fill: url(#linear-gradient-3);
        stroke-width: .75px;
      }

      .cls-10 {
        fill: none;
        stroke: #ffc88a;
      }

      .cls-15 {
        fill: #fff9d6;
      }

      .cls-11 {
        fill: url(#linear-gradient-10);
      }

      .cls-12 {
        fill: url(#linear-gradient-8);
        stroke-width: .9px;
      }
    </style>
    <linearGradient
       id="linear-gradient"
       x1="6.6999998"
       y1="18.540001"
       x2="23.24"
       y2="2"
       gradientTransform="rotate(23.29,-7.3272645,21.389418)"
       gradientUnits="userSpaceOnUse">
      <stop
         offset="0"
         stop-color="#ff5f00"
         id="stop1" />
      <stop
         offset=".08"
         stop-color="#ff6801"
         id="stop2" />
      <stop
         offset=".23"
         stop-color="#ff8105"
         id="stop3" />
      <stop
         offset=".33"
         stop-color="#ff9909"
         id="stop4" />
      <stop
         offset=".84"
         stop-color="#ffc40e"
         id="stop5" />
      <stop
         offset="1"
         stop-color="#ffd311"
         id="stop6" />
    </linearGradient>
    <linearGradient
       id="linear-gradient-2"
       x1="4.5599999"
       y1="8.7700005"
       x2="8.7399998"
       y2="4.5799999"
       xlink:href="#linear-gradient" />
    <linearGradient
       id="linear-gradient-3"
       x1="12.47"
       y1="20.92"
       x2="15.98"
       y2="17.41"
       xlink:href="#linear-gradient" />
    <linearGradient
       id="linear-gradient-4"
       x1="3.0599999"
       y1="18.969999"
       x2="4.9499998"
       y2="17.09"
       xlink:href="#linear-gradient" />
    <linearGradient
       id="linear-gradient-5"
       x1="-0.43000001"
       y1="15.18"
       x2="0.34999999"
       y2="14.4"
       xlink:href="#linear-gradient" />
    <linearGradient
       id="linear-gradient-6"
       x1="18.889999"
       y1="-213.89999"
       x2="18.889999"
       y2="-157.37"
       gradientTransform="matrix(0.01029726,0.99994698,-0.81993496,0.01053804,-96.87,0.73)"
       gradientUnits="userSpaceOnUse">
      <stop
         offset="0"
         stop-color="#fff9d6"
         id="stop7" />
      <stop
         offset=".54"
         stop-color="#fef3cc"
         id="stop8" />
      <stop
         offset=".77"
         stop-color="#fef0c7"
         id="stop9" />
      <stop
         offset=".9"
         stop-color="#fbdea9"
         id="stop10" />
      <stop
         offset=".99"
         stop-color="#f9d293"
         id="stop11" />
    </linearGradient>
    <linearGradient
       id="linear-gradient-7"
       x1="15.77"
       y1="-159.82001"
       x2="15.77"
       y2="-138.92"
       gradientTransform="rotate(88.52,-60.523745,-55.53799)"
       gradientUnits="userSpaceOnUse">
      <stop
         offset="0"
         stop-color="#f9dc93"
         id="stop12" />
      <stop
         offset=".42"
         stop-color="#6678ff"
         id="stop13" />
      <stop
         offset=".62"
         stop-color="#5c6fff"
         id="stop14" />
      <stop
         offset=".71"
         stop-color="#576aff"
         id="stop15" />
    </linearGradient>
    <linearGradient
       id="linear-gradient-8"
       x1="15.77"
       y1="-169.85001"
       x2="15.77"
       y2="-159.81"
       gradientTransform="rotate(88.52,-60.523745,-55.53799)"
       gradientUnits="userSpaceOnUse">
      <stop
         offset="0"
         stop-color="#f9dc93"
         id="stop16" />
      <stop
         offset="0"
         stop-color="#a5a7bc"
         id="stop17" />
      <stop
         offset=".43"
         stop-color="#6470d8"
         id="stop18" />
      <stop
         offset="1"
         stop-color="#576aff"
         id="stop19" />
    </linearGradient>
    <linearGradient
       id="linear-gradient-9"
       x1="28.75"
       y1="-166.99001"
       x2="28.75"
       y2="-142.88"
       gradientTransform="rotate(88.52,-60.523745,-55.53799)"
       gradientUnits="userSpaceOnUse">
      <stop
         offset="0"
         stop-color="#6678ff"
         id="stop20" />
      <stop
         offset=".2"
         stop-color="#6678ff"
         id="stop21" />
      <stop
         offset=".4"
         stop-color="#576aff"
         id="stop22" />
    </linearGradient>
    <linearGradient
       id="linear-gradient-10"
       x1="2.8"
       y1="-167.46001"
       x2="2.8"
       y2="-143.49001"
       gradientTransform="rotate(88.52,-60.523745,-55.53799)"
       gradientUnits="userSpaceOnUse">
      <stop
         offset="0"
         stop-color="#6678ff"
         id="stop23" />
      <stop
         offset=".4"
         stop-color="#576aff"
         id="stop24" />
    </linearGradient>
    <linearGradient
       id="linear-gradient-11"
       x1="71.82"
       y1="10.25"
       x2="71.82"
       y2="25.25"
       gradientUnits="userSpaceOnUse">
      <stop
         offset="0"
         stop-color="#fffdd6"
         id="stop25" />
      <stop
         offset=".54"
         stop-color="#fef7cc"
         id="stop26" />
      <stop
         offset=".77"
         stop-color="#fef5c7"
         id="stop27" />
      <stop
         offset=".9"
         stop-color="#fbe6a9"
         id="stop28" />
      <stop
         offset=".99"
         stop-color="#f9dc93"
         id="stop29" />
    </linearGradient>
    <linearGradient
       inkscape:collect="always"
       xlink:href="#linear-gradient"
       id="linearGradient44"
       gradientUnits="userSpaceOnUse"
       gradientTransform="rotate(23.29,-7.3272645,21.389418)"
       x1="6.6999998"
       y1="18.540001"
       x2="23.24"
       y2="2" />
  </defs>
  <g
     id="Layer_4"
     data-name="Layer 4"
     transform="rotate(-90,39.240793,39.180221)">
    <path
       class="cls-14"
       d="m 28.88,13.59 c 0,0 1.58,4.49 1.57,4.38 -0.01,-0.11 -0.53,4.24 -0.53,4.24 0,0 -2.73,1.67 -2.99,1.68 -0.26,0.01 -5.68,3.9 -5.68,3.9 l -4.55,-2.07 -2.12,0.43 0.99,-1.33 -1.41,-0.9 -0.17,-1.42 -1.18,-0.54 -2.13,1.01 -1.06,0.92 -6.89,-4.92 4.43,1.37 1.02,-0.17 1.68,-3.68 2.18,0.36 2.46,-0.53 1.63,-1.29 -2.44,0.54 2.03,-1.24 0.62,-1.27 3.72,-3.2 4.13,0.48 2.08,2.35 2.63,0.91 z"
       id="path29" />
    <polygon
       class="cls-14"
       points="5.01,15.19 9,13.49 10.09,13.03 14.07,13.58 12.15,14.85 9.78,14.61 "
       id="polygon29" />
    <path
       class="cls-14"
       d="m 16.4,28.94 c 0,0 -0.11,0 -0.19,-0.02 -0.43,-0.08 -1.29,-0.34 -1.29,-0.34 l -1.91,0.28 -2.68,-1.09 2.49,1.91 1.88,-0.13 2.33,-0.34 -0.64,-0.26 z"
       id="path30" />
    <polygon
       class="cls-14"
       points="3.75,24.33 8.8,24.25 7.25,23.22 5.19,21.84 0.65,22.27 "
       id="polygon30" />
  </g>
  <g
     id="Layer_3"
     data-name="Layer 3"
     transform="rotate(-90,39.240793,39.180221)">
    <path
       class="cls-4"
       d="m 27.79,14.21 c 0,0 1.57,3.92 1.57,3.83 0,-0.09 -0.33,3.7 -0.33,3.7 0,0 -2.39,1.46 -2.62,1.47 -0.23,0.01 -4.95,3.41 -4.95,3.41 l -4.15,-1.81 -1.89,0.38 0.84,-1.16 -1.3,-0.78 -0.21,-1.24 -1.07,-0.47 -1.87,0.88 -0.91,0.8 -6.35,-4.29 4.02,1.2 0.9,-0.15 1.37,-3.22 1.97,0.31 2.18,-0.47 1.42,-1.13 -2.17,0.47 1.77,-1.08 0.51,-1.11 3.22,-2.8 3.72,0.41 1.95,2.05 2.39,0.79 z"
       id="path31"
       style="fill:url(#linearGradient44)" />
    <polygon
       class="cls-3"
       points="8.26,13.71 10.92,12.69 11.65,12.42 14.3,12.87 13.01,13.65 11.44,13.44 "
       id="polygon31"
       style="fill:url(#linear-gradient-2)" />
    <path
       class="cls-9"
       d="m 15.73,28.31 c 0,0 -0.09,0 -0.17,-0.02 -0.38,-0.07 -1.13,-0.32 -1.13,-0.32 l -1.7,0.24 -2.34,-1.02 2.15,1.77 1.67,-0.11 2.07,-0.3 -0.56,-0.24 z"
       id="path32"
       style="fill:url(#linear-gradient-3)" />
    <polygon
       class="cls-7"
       points="4.22,22.99 6,23.19 5.3,22.89 4.36,22.48 2.81,22.38 "
       id="polygon32"
       style="fill:url(#linear-gradient-4)" />
    <polygon
       class="cls-5"
       points="1.25,17.62 1.59,18.74 2.79,18.78 "
       id="polygon33"
       style="fill:url(#linear-gradient-5)" />
    <polygon
       class="cls-15"
       points="21.15,14.9 24.67,20.56 18,20.48 "
       id="polygon34" />
    <polygon
       class="cls-15"
       points="21.92,23.33 24.87,22.43 21.71,24.67 20.35,22.66 "
       id="polygon35" />
    <polygon
       class="cls-15"
       points="16.3,18.16 14.97,19.16 12.66,18.93 "
       id="polygon36" />
    <polygon
       class="cls-15"
       points="19.58,13.79 20.84,12.99 23.91,14.33 "
       id="polygon37" />
  </g>
  <g
     id="Layer_1-2"
     data-name="Layer 1"
     transform="rotate(-90,39.240793,39.180221)">
    <g
       id="g38">
      <path
         class="cls-13"
         d="m 77.79,17.57 c 0,-0.23 -0.02,-1.21 -0.43,-2.18 -0.34,-0.82 -1.97,-3.38 -4.86,-5 C 71.47,9.81 70.26,9.41 69.14,9.14 67.27,8.68 65.64,8.57 65.41,8.56 H 65.4 c 0,0 -0.02,0 -0.02,0 v 0 c 0,0 -0.1,0 -0.15,0 L 36.02,8.71 c -2.42,0.01 -4.37,2.42 -4.35,5.39 l 0.04,7.48 c 0.01,2.96 1.99,5.36 4.41,5.35 l 29.21,-0.15 c 0.16,0 0.33,-0.02 0.48,-0.06 v 0 c 1.07,-0.1 4.38,-0.51 6.76,-1.88 2.88,-1.65 4.48,-4.23 4.81,-5.05 0.39,-0.97 0.41,-1.95 0.4,-2.18 v -0.02 z"
         id="path37"
         style="fill:url(#linear-gradient-6)" />
      <path
         class="cls-10"
         d="m 77.79,17.57 c 0,-0.23 -0.02,-1.21 -0.43,-2.18 -0.34,-0.82 -1.97,-3.38 -4.86,-5 C 71.47,9.81 70.26,9.41 69.14,9.14 67.27,8.68 65.64,8.57 65.41,8.56 H 65.4 c 0,0 -0.02,0 -0.02,0 v 0 c 0,0 -0.1,0 -0.15,0 L 36.02,8.71 c -2.42,0.01 -4.37,2.42 -4.35,5.39 l 0.04,7.48 c 0.01,2.96 1.99,5.36 4.41,5.35 l 29.21,-0.15 c 0.16,0 0.33,-0.02 0.48,-0.06 v 0 c 1.07,-0.1 4.38,-0.51 6.76,-1.88 2.88,-1.65 4.48,-4.23 4.81,-5.05 0.39,-0.97 0.41,-1.95 0.4,-2.18 v -0.02 z"
         id="path38" />
    </g>
    <path
       class="cls-6"
       d="M 35.28,20.75 C 33.3,20.8 24.81,19.46 24.8,18.57 c -0.01,-0.89 8.4,-2.66 10.41,-2.71 1.6,-0.04 10.47,1.2 10.48,2.18 0.01,0.98 -8.81,2.67 -10.41,2.71 z"
       id="path39"
       style="fill:url(#linear-gradient-7)" />
    <path
       class="cls-12"
       d="m 45.92,27.1 c 4.92,-4.25 -0.16,-9.09 -0.16,-9.09 0,0 4.7,-4.31 -0.16,-9.09 L 55.48,8.7 c -4.69,4.99 0.16,9.09 0.16,9.09 0,0 -4.91,5.06 0.16,9.09 z"
       id="path40"
       style="fill:url(#linear-gradient-8)" />
    <path
       class="cls-1"
       d="m 52.33,25.83 -11.54,0.29 c -0.53,0.01 -1.02,0.38 -1.3,0.97 -0.38,0.8 -1.05,1.93 -2.06,2.62 -1.23,0.85 -5.22,2.36 -7.33,3.57 -0.32,0.19 -1.54,0.72 -0.54,1.68 0.31,0.3 1.29,0.82 3.17,1.01 l 2.4,0.19 c 2.3,0.19 4.59,0.02 6.83,-0.51 l 3.53,-0.84 c 2.46,-0.58 4.7,-2.21 6.38,-4.62 l 0.09,-0.13 c 0.4,-0.58 0.73,-1.22 0.99,-1.93 v 0 c 0.22,-0.6 0.2,-1.31 -0.05,-1.89 v 0 c -0.12,-0.27 -0.34,-0.43 -0.57,-0.43 z"
       id="path41"
       style="fill:url(#linear-gradient-9)" />
    <path
       class="cls-11"
       d="M 52.36,9.91 40.82,10.2 C 40.29,10.21 39.79,9.87 39.5,9.29 39.1,8.51 38.4,7.42 37.36,6.77 36.1,5.99 32.07,4.67 29.93,3.57 29.6,3.4 28.37,2.93 29.34,1.92 29.64,1.6 30.61,1.04 32.47,0.75 l 2.39,-0.31 c 2.3,-0.31 4.59,-0.25 6.84,0.16 l 3.56,0.65 c 2.47,0.46 4.76,1.96 6.52,4.29 l 0.09,0.12 c 0.42,0.55 0.77,1.19 1.05,1.88 v 0 c 0.24,0.59 0.24,1.3 0,1.9 v 0 C 52.81,9.71 52.6,9.89 52.36,9.89 Z"
       id="path42"
       style="fill:url(#linear-gradient-10)" />
    <path
       class="cls-2"
       d="m 66.54,18.77 -0.91,0.47 c -0.46,0.24 -0.77,0.68 -0.83,1.2 l -0.11,0.92 c -0.14,1.12 -1.53,1.55 -2.28,0.71 l -0.46,-0.53 c -0.37,-0.42 -0.93,-0.61 -1.48,-0.5 l -0.75,0.15 c -1.07,0.21 -1.92,-0.9 -1.43,-1.87 l 0.51,-1.01 c 0.22,-0.44 0.22,-0.96 0,-1.4 L 58.29,15.9 c -0.49,-0.97 0.36,-2.09 1.43,-1.87 l 0.75,0.15 c 0.55,0.11 1.11,-0.08 1.48,-0.5 l 0.46,-0.53 c 0.75,-0.85 2.14,-0.41 2.28,0.71 l 0.11,0.92 c 0.06,0.51 0.38,0.96 0.83,1.2 l 0.91,0.47 c 0.95,0.49 0.95,1.84 0,2.33 z"
       id="path43" />
  </g>
  <g
     id="Layer_2-2"
     data-name="Layer 2"
     transform="rotate(-90,39.240793,39.180221)">
    <path
       class="cls-8"
       d="m 71,10.25 c 0,0 3.68,6.12 0,15"
       id="path44"
       style="fill:url(#linear-gradient-11)" />
  </g>
</svg>
