<?xml version="1.0" encoding="UTF-8"?>
<svg id="curvy_transition_wisp" xmlns="http://www.w3.org/2000/svg" xmlns:xlink="http://www.w3.org/1999/xlink" viewBox="0 0 2983.6 3037.47">
  <defs>
    <style>
      .cls-1 {
        fill: url(#linear-gradient);
      }
    </style>
    <linearGradient id="linear-gradient" x1="1201.46" y1="2965.22" x2="1201.46" y2="876.8" gradientUnits="userSpaceOnUse">
      <stop offset=".35" stop-color="#4017d8"/>
      <stop offset="1" stop-color="#6381ff"/>
    </linearGradient>
  </defs>
  <path class="cls-1" d="M2147.27,1986.76c-254.68-52.24-434.44-144.98-545.28-214.5-171.13-107.33-190.8-167.33-194.35-202.71-9.39-93.78,101.13-141.89,119.93-303.83,3.09-26.57,8.75-75.36-5.33-125.26-62.93-223.04-466.07-276.64-471.74-261.19-5.5,14.98,360.25,102.27,365.13,263.86.59,19.38-3.59,54.05-61.3,119.93-136.97,156.36-285.36,160.65-575.68,295.84-187.35,87.24-266.5,151.16-295.84,175.9-88.01,74.23-180.38,154.29-214.42,288.2-35.03,137.82,10.46,258.94,36.45,314.9h1831.62c3.6-117.05,7.2-234.09,10.8-351.14Z"/>
</svg>