<?xml version="1.0" encoding="UTF-8"?>
<svg id="Layer_1" xmlns="http://www.w3.org/2000/svg" xmlns:xlink="http://www.w3.org/1999/xlink" viewBox="0 0 1575.53 963.91">
  <defs>
    <style>
      .cls-1 {
        fill: url(#linear-gradient);
      }

      .cls-2 {
        fill: #7b7031;
      }
    </style>
    <linearGradient id="linear-gradient" x1="1028.78" y1="899.41" x2="546.75" y2="64.5" gradientUnits="userSpaceOnUse">
      <stop offset=".19" stop-color="#827631"/>
      <stop offset=".58" stop-color="#a39335"/>
      <stop offset=".95" stop-color="#ebd06a"/>
    </linearGradient>
  </defs>
  <path class="cls-2" d="M1574.39,339.58c-20.47-113.11-389.31-141.07-823.82-62.43C316.06,355.78-19.58,511.22.89,624.33c20.47,113.11,389.3,141.07,823.82,62.43,434.51-78.63,770.16-234.08,749.69-347.19ZM798.64,576.49c-345.73,62.57-636.1,57.4-648.58-11.54-12.48-68.94,257.68-175.54,603.4-238.11,345.73-62.57,636.1-57.4,648.58,11.54,12.48,68.94-257.68,175.54-603.4,238.11Z"/>
  <circle class="cls-1" cx="787.76" cy="481.95" r="481.95"/>
  <path class="cls-2" d="M1574.64,339.45c-11.64-64.34-135.99-101.12-321.02-106.41,6.39,17.66,12.14,35.54,17.24,53.61,78.08,7.07,126.49,24.35,131.42,51.61,12.48,68.94-257.68,175.54-603.4,238.11-345.73,62.57-636.1,57.4-648.58-11.54-5.32-29.38,40.73-65.6,122.06-102.34-2.08-10.34-4.18-20.67-5.77-31.08-.96-6.28-1.87-12.72-2.49-19.2C92.9,481.97-10.5,559.92,1.14,624.21c20.47,113.11,389.31,141.07,823.82,62.43,434.51-78.63,770.16-234.08,749.69-347.19Z"/>
</svg>