<?xml version="1.0" encoding="UTF-8"?>
<svg xmlns="http://www.w3.org/2000/svg" xmlns:xlink="http://www.w3.org/1999/xlink" viewBox="0 0 2857.63 4409.66">
  <defs>
    <style>
      .cls-1 {
        fill: url(#linear-gradient);
      }

      .cls-2 {
        fill: url(#linear-gradient-2);
      }

      .cls-2, .cls-3 {
        opacity: .5;
      }

      .cls-3 {
        fill: url(#linear-gradient-3);
      }

      .cls-4 {
        fill: url(#linear-gradient-4);
        opacity: .75;
      }
    </style>
    <linearGradient id="linear-gradient" x1="1399.07" y1="1899.13" x2="1399.07" y2="2610.03" gradientUnits="userSpaceOnUse">
      <stop offset="0" stop-color="#000"/>
      <stop offset="1" stop-color="#00015c"/>
    </linearGradient>
    <linearGradient id="linear-gradient-2" x1="1396.01" y1="2954.32" x2="1396.01" y2="2104.58" gradientTransform="translate(388.03 150.58) rotate(11.38) scale(1 .87)" gradientUnits="userSpaceOnUse">
      <stop offset="0" stop-color="#639dff"/>
      <stop offset="1" stop-color="#fff"/>
    </linearGradient>
    <linearGradient id="linear-gradient-3" x1="1320.17" y1="2291.23" x2="1320.17" y2="1469.93" gradientTransform="translate(388.03 150.58) rotate(11.38) scale(1 .87)" gradientUnits="userSpaceOnUse">
      <stop offset="0" stop-color="#fff"/>
      <stop offset="1" stop-color="#000"/>
    </linearGradient>
    <linearGradient id="linear-gradient-4" x1="1348.24" y1="2602.96" x2="1348.24" y2="1795.93" xlink:href="#linear-gradient-2"/>
  </defs>
  <g id="Gradient_bg">
    <rect class="cls-1" x="304.01" y="1899.13" width="2190.12" height="710.91"/>
  </g>
  <g id="galaxy">
    <path class="cls-2" d="M2626.44,2694.6c-8.76-6.38-141.39,197.43-246.71,170.19-140.82-36.41-69.94-437.21-214.49-485.41-173.29-57.78-419.63,471.77-651.79,420.95-220.97-48.37-225.89-585.1-426.15-620-179.56-31.3-284.9,381.13-574.87,353.63-175.65-16.66-402.55-190.87-465.75-159.96-22.05,10.78-10.91,29.4-15.09,118.26-6.31,134.13-31.36,203.39-10.8,209.79,21.85,6.8,40.37-63.96,128.35-97.68,102.69-39.37,209.41,7.72,318.17,14.07,318.43,18.59,410.4-323.89,587.84-294.16,210.95,35.35,227.66,543.9,442.88,587.53,235.84,47.81,515.25-488.7,642.84-430.44,47.92,21.88,81.36,126.38,101.07,188.3,13.78,43.3,14.36,63.53,34.13,106.28,22.96,49.68,54.12,117.07,102.31,131.12,105.75,30.83,257.48-205.61,248.06-212.47ZM416.64,2577.35c-8.88,13.86-81.8-39.69-210.79-39.23-67.82.24-104.26,15.25-118.44-2.17-17.04-20.94,9.25-75.01,54.39-89.73,25.12-8.19,50.28-2.3,74.81,5.54,108.47,34.66,210.53,109.21,200.03,125.59ZM1233.76,2424.54c-5.14,1.77-21.69-38.22-67.04-95.18-39.13-49.15-58.7-73.73-86.61-80.05-52.16-11.83-115.69,27.5-144.56,45.36-16.98,10.51-35.14,24.01-37.55,21.72-2.74-2.61,17.11-23.91,27.7-34.31,27.58-27.08,92.75-91.09,160.47-78.67,54.13,9.92,83.87,63.91,113.14,117.05,28.27,51.33,40.08,102.14,34.44,104.07ZM2195.22,2460.5c-3.23,3.2-16.66-9.17-45.95-16.97-42.58-11.33-71.26-.36-73.48-5.97-2.63-6.63,33.07-32.98,69.51-24.6,34.1,7.84,54.66,42.84,49.92,47.54Z"/>
    <g id="Layer_6">
      <path class="cls-3" d="M2632.22,2186.69c-40.22-13.32-120.98,113-175.99,94.83-30.88-10.2-26.84-57.71-38.04-122.77-4.86-28.24-46.34-255.94-150.57-286.6-47.62-14.01-106.68,13.61-350.14,213.05-245.93,201.47-318.59,282.19-375.34,264.68-55-16.97-36.51-108.14-76.76-291.45-37.51-170.83-86.59-394.32-203.97-425.48-185.5-49.25-405.04,418.05-662.33,365.53-155.47-31.74-184.1-224.57-337.09-240.54-116.87-12.2-247.04,85-229.21,181.05,20.11,108.35,225.95,201.24,387.4,218.79,395.55,42.99,587.46-359.45,791.72-299.64,205.57,60.2,120.07,499.69,324.88,559.37,204.13,59.49,447.22-331.03,673.25-269.69,202.18,54.87,196.19,418.5,294.49,428.19,101.31,9.98,191.21-368.27,127.69-389.3ZM395.71,2100.1c-78.21-23.57-158.8-84.92-168.09-153.73-1.21-8.98-7.74-65.79,28.02-84.27,16.54-8.55,35.58-5.51,41.45-4.5,70.84,12.18,78.72,97.16,154.12,149.84,90.37,63.14,204.04,27.62,207.9,46.58,4.28,21.06-131.75,85.74-263.41,46.07ZM1441.28,2175.07c-11.51,2.03-43.87-68.26-60.14-132.79-11.35-45.02-19.43-105.38-9.27-107.26,10.31-1.9,38.41,56.54,54.24,108.1,18.27,59.51,26.37,129.98,15.17,131.95ZM2382.95,2231.97c-6.15.5-9.54-60.47-56.57-133.19-26.49-40.96-49.83-77.06-89.12-86.02-33.81-7.72-59.85,9.13-155.8,67.82-146.07,89.35-155.87,93.21-157.71,91.44-6.22-5.97,74.42-79.57,157.24-142.6,130.92-99.63,164.47-94.6,176.14-91.89,62.01,14.39,91.52,99.05,109.26,149.94,26.78,76.84,22.99,143.98,16.57,144.5Z"/>
      <path class="cls-4" d="M2572.05,2701.07c-27.54,15.58-72.5,35.42-116.91,22.95-164.06-46.04-83.15-466.18-244.24-531.18-177.25-71.51-435.4,367.06-664.46,307.97-230.44-59.44-204.88-567.01-375.27-596.51-170.78-29.57-309.82,457.04-589.07,429.67-143.36-14.05-222.43-151.89-405.28-149.83-65.02.73-150.57,19.38-156.41,55.93-12.2,76.39,289.51,254.95,517.65,234.3,136.98-12.4,226.93-104.14,406.84-287.63,134.71-137.39,153.45-190.57,202.19-184.45,162.76,20.45,162.09,638.66,392.04,689.59,228.74,50.66,497.49-498.79,661.73-439.58,141.37,50.96,46.21,498.15,189.63,540.84,55.48,16.51,123.85-34.29,181.56-92.08ZM1575.45,2648.34c-69.7-9.18-108.17-89.93-99.72-96.97,6.9-5.75,42.33,39.93,105.97,47.1,65.41,7.37,109.43-31.71,114.98-24.95,6.89,8.4-48.11,84.45-121.23,74.81Z"/>
    </g>
  </g>
</svg>