<?xml version="1.0" encoding="UTF-8"?>
<svg id="Layer_2" data-name="Layer 2" xmlns="http://www.w3.org/2000/svg" viewBox="0 0 60.13 75.9">
  <defs>
    <style>
      .cls-1 {
        fill: #ff5f00;
      }

      .cls-1, .cls-2, .cls-3, .cls-4, .cls-5, .cls-6, .cls-7, .cls-8 {
        stroke-width: 0px;
      }

      .cls-2 {
        fill: rgba(0, 18, 126, .5);
      }

      .cls-3 {
        fill: #735703;
      }

      .cls-4 {
        fill: rgba(255, 95, 0, .25);
      }

      .cls-5 {
        fill: #505050;
      }

      .cls-6 {
        fill: #ffed7b;
      }

      .cls-7 {
        fill: rgba(255, 95, 0, .25);
      }

      .cls-8 {
        fill: #bf9106;
      }
    </style>
  </defs>
  <g id="Layer_group" data-name="Layer group">
    <g id="Vector_layer" data-name="Vector layer">
      <path class="cls-8" d="M25.14,73.6c-.87-.71-1.78-1.38-2.63-2.12-1.25-1.34-2.71-2.46-3.8-3.99-.98-1.24-2.03-2.43-3.11-3.6-1.43-1.94-3.06-3.76-4.2-5.97-.52-.89-.91-1.86-1.32-2.83-.41-.86-.93-1.64-1.31-2.53-.25-.66-.55-1.23-.89-1.8-.05-.08-.11-.15-.16-.23-.18-.25-.35-.51-.52-.77-.08-.13-.16-.25-.25-.38-.01-.02-.03-.04-.04-.06-.01-.01-.02-.03-.03-.04-.09-.15-.18-.3-.28-.42-.35-.58-.6-1.22-1.02-1.76-.42-.77-.86-1.53-1.3-2.3-.03-.05-.05-.1-.08-.16-.05-.09-.1-.17-.15-.25-.17-.3-.34-.6-.5-.91,0,0,0,0,0,0-.25-.58-.46-1.19-.79-1.73-.47-1-.97-2.01-1.3-3.09-.23-1-.35-2.04-.41-3.08.05-1.7.45-3.32.9-5.01.18-.67.51-1.25.92-1.76.47-.31.95-.6,1.43-.89.13-.18.26-.35.4-.53.08-.14.16-.28.25-.42,1.22-.89,2.4-1.89,3.74-2.51,1.18-.32,2.32-.8,3.44-1.37.77-.32,1.59-.37,2.38-.57,1.37-.4,2.6-.71,4.03-1.01.93-.27,1.82-.72,2.77-.81.93-.1,1.84-.4,2.71-.84.79-.3,1.62-.37,2.41-.67,1.72-.94,3.59-1.27,5.3-2.26.92-.67,1.93-1.03,2.93-1.5,1.2-.66,2.33-1.46,3.49-2.22.83-.43,1.7-.7,2.56-.98.14.03.27-.04.36-.17.01,0,.02,0,.03.01.25.16.51.3.75.48.51.41.88.95,1.07,1.64.29.69.77,1.25.96,2,.07.93.32,1.81.3,2.75-.23,1.68-.65,3.37-1.18,4.98-.55,1.74-1.36,3.38-1.84,5.12,0,.01,0,.02,0,.03-.59.83-1.23,1.62-1.94,2.3-.75.72-1.46,1.48-2.16,2.25-.76.82-1.55,1.6-2.3,2.42-.2.25-.39.5-.57.76-.37.55-.73,1.1-1.07,1.67-.3.59-.56,1.2-.83,1.81-.21.55-.41,1.1-.59,1.66-.16.51-.31,1.03-.46,1.54-.2.82-.4,1.64-.55,2.46-.04.27-.07.54-.1.81,1.35,2.1,2.69,4.19,4.08,6.21-.06.03-.12.07-.18.1-1.54.78-3.06,1.59-4.62,2.29-.31.13-.64.28-.98.4-.02,0-.04,0-.06,0-.57.1-1.15.33-1.72.53,0-.05,0-.09-.02-.14-.08-.19-.24-.38-.33-.57-.02-.25-.17-.46-.28-.66-.29-.3-.8-.38-1.21-.27-.12-.02-.28.01-.4.02-.48.01-.83.37-1.21.64-.04.03-.08.06-.12.09-.01-.02-.02-.03-.03-.05-.1.08-.19.16-.27.25-.26.17-.5.35-.64.64,0,0,0-.01.02-.02-.07.09-.08.22,0,.3,0,0,.01.01.02.02-.07.24-.09.51-.15.76-.1.69-.23,1.31-.29,2.01,0,.84.29,1.63.65,2.33.05.13.08.26.12.4-.18.27-.04.63.1.88.15.29.43.39.7.5.06.02.12.05.18.08.07.03.14.06.21.1,0,0,.01,0,.02,0,0,0,0,0,0,0,0,0,0,0,0,0,.28.17.6.27.91.38.26.09.52.18.76.3.83.24,1.71-.2,2.56-.34.85-.14,1.68-.44,2.52-.7,1.01-.29,2.01-.76,2.99-1.29,0,0,0,0,0,0,.72-.28,1.4-.68,2.08-1.06,1.02-.54,2.11-.87,3.15-1.38.15-.07.29-.14.43-.23.17.2.34.41.5.61.45.56.93,1.08,1.37,1.64.51.65.99,1.31,1.45,1.99.94,1.39,1.75,2.95,2.19,4.62,0,.01,0,.02,0,.04.08.11.15.22.23.33.32.49.57,1.07.67,1.68-3.86,1.32-7.69,2.68-11.57,3.64-1.92.53-3.89.68-5.82.69-.15,0-.33,0-.53-.03-.26-.3-.83-.37-1.22-.46-.49-.1-1.03-.1-1.48-.3-.09-.04-.18-.08-.26-.14Z"/>
      <path class="cls-8" d="M23.96,62.22c-.08-.07-.13-.18-.19-.27,0,0,0,0,0,0-.21-.99-.82-1.82-.81-2.9.03-.82.25-1.64.24-2.46.1-.12.11-.25.07-.34.1,0,.22-.06.3-.16.55-.37,1.15-.65,1.75-.92.34.06.76.06.91.44.02.33.21.61.36.88-.28.15-.52.39-.37.7.16.28.49.11.73.02,2.81-.92,5.53-2.19,8.26-3.53.71.95,1.42,1.9,2.13,2.84.55.73,1.13,1.42,1.72,2.12-.8.44-1.65.76-2.5,1.07-.59.24-1.11.54-1.67.83,0,.02,0,.03,0,.04-2.76,1.2-5.58,2.25-8.47,2.61-.85-.26-1.6-.68-2.44-.97Z"/>
      <path class="cls-8" d="M36.52,70.45c-1.67-2.32-3.2-4.78-4.61-7.37-.03-.05-.05-.1-.08-.15.71-.27,1.41-.62,2.1-.99,0,0,0,0,0,0,.72-.28,1.4-.68,2.08-1.06.93-.5,1.93-.81,2.89-1.25,1.32,1.77,2.65,3.49,4.09,5.11,1.48,1.66,2.9,3.35,4.34,5.01-.26.09-.52.18-.77.26-2.8.96-5.58,1.94-8.38,2.79-.55-.79-1.1-1.57-1.66-2.35Z"/>
      <path class="cls-8" d="M29.75,58.36c-.24-.63-.46-1.27-.66-1.93.15-.06.3-.11.45-.16,1.53-.63,3.05-1.3,4.54-2.07.41-.2.82-.39,1.23-.58.13.27.26.54.38.81.19.37.39.75.58,1.12.26.5.58.97.86,1.45.4.67.84,1.31,1.29,1.94-.61.29-1.24.52-1.87.75-.59.24-1.1.54-1.67.83,0,.02,0,.03,0,.04-1.17.51-2.34.99-3.53,1.4-.58-1.17-1.11-2.38-1.59-3.63Z"/>
      <path class="cls-8" d="M28.29,53.16c-.73-4.02-.78-8.42.56-12.65.96-3.14,2-6.29,3.27-9.4.98-2.38,2.23-4.67,3.74-6.76.8-1.15,1.58-2.48,2.89-2.82.92-.24,1.79.34,1.92,1.4.13,1.07-.56,2.09-1.46,2.37-.34.41-.63.86-.94,1.3.03-.05.07-.09.1-.14-2.4,3.34-3.57,7.37-4.33,11.27-.34,1.91-.75,3.81-.87,5.7-.07,3.33.71,6.5,1.81,9.37-2.03,1.02-4,2.13-6.08,2.93-.23-.84-.43-1.7-.6-2.58Z"/>
      <path class="cls-3" d="M28.92,55.17s0-.02,0-.03c-1.99.39-2.03-2.04-1.7-3.62-.09-.02-.18-.06-.27-.1-.4-.22-.6-.66-.58-1.14-.11-.03-.2-.08-.29-.15-.24-.19-.39-.5-.42-.83-.51-.33-.51-1.06-.19-1.61.66-1.55,1.65-2.91,2.49-4.38.69-1.19,1.58-2.21,2.35-3.35.67-.92,2.28-3.3,3.36-3.17.02-.02.05-.04.07-.05.17-.13.38-.16.56-.1-.54,2.23-.93,4.55-1.13,6.79-.07,2.22.32,4.33.8,6.38,0,0,.02,0,.03,0,.28,1.03.61,2.02.98,2.99-.1.05-.2.1-.31.15,0,0,0,0,0,0-1.9.97-3.75,1.99-5.71,2.76-.01-.18-.02-.36-.04-.54Z"/>
      <path class="cls-3" d="M35.25,60.15c-.61-.62-.72-1.58-.39-2.49-.18-.72-.46-1.4-.73-2.08-.32-.25-.44-.74-.46-1.17.14-.07.28-.14.41-.21.41-.2.82-.39,1.23-.58.5,1.1,1.36,1.93,2.02,2.9.52.69,1.07,1.34,1.62,2-.01.06-.02.13-.04.19-1.14.62-2.4.92-3.53,1.56-.05-.04-.09-.08-.14-.13Z"/>
      <path class="cls-3" d="M41.76,66.2c-.43-.61-.84-1.23-1.26-1.85-.29.01-.57-.16-.8-.32,0,0,0,0-.01,0-.43,1.21-1.56.25-2.11-.14-1.07-.01-.66-1.81.35-1.59.19-.27.55-.42.82-.31.17.07.31.21.45.35.52-.42,1,.08,1.33.42.12-.04.24-.05.36-.03.59-.71,1.31-.03,1.52.56.35.52.7,1.05,1.01,1.6.15.17.24.37.23.63-.15,1.34-1.23,1.8-1.89.7Z"/>
      <path class="cls-6" d="M33.37,47.68c-.24-.83-.27-1.74-.32-2.62.1-.66.07-1.14.14-1.88-.03-.32.07-.65.05-.97-.04-.31.07-.62.16-.92.04-.26,0-.52.05-.78.05-.22.16-.43.15-.66.09-1.07.36-2.15.61-3.2.07-.14.25,0,.13.1-.14.76-.35,1.48-.44,2.23-.12.47-.06.96-.23,1.41-.11.4.04.81-.14,1.21-.12.42,0,.85-.1,1.27-.02.7-.05,1.47-.13,2.16.03.67.09,1.32.17,1.98.03.19.07.38.12.56.02.06-.02.13-.07.16-.06.03-.14.01-.16-.05Z"/>
      <path class="cls-6" d="M34.03,37.1c.08-.33.34-.55.53-.81.22-.36.46-.73.77-1,.43-.52.8-1.11,1.31-1.53.46-.56.93-1.13,1.48-1.57.09-.09.19-.21.27-.32.45-.64,1.11-1.01,1.54-1.67.39-.45.87-.81,1.2-1.33,0-.12.15-.19.2-.09.04.25-.24.46-.36.65-.4.49-.84.9-1.2,1.43-.35.33-.72.63-1.02,1.02-.33.52-.81.85-1.2,1.3-.35.4-.67.86-1.08,1.17-.3.34-.57.7-.84,1.06-.33.31-.62.66-.85,1.06-.16.23-.37.41-.46.68-.06.22-.36.16-.3-.07Z"/>
      <path class="cls-6" d="M47.14,69.74s0-.02,0-.03c-.8-.94-1.46-2.01-2.32-2.92-1.08-1.4-1.89-3.05-2.9-4.54-.6-.8-1.33-1.48-1.93-2.29-.1-.16.14-.39.26-.23.65.89,1.49,1.6,2.1,2.51.76,1.2,1.44,2.46,2.21,3.62.87,1.13,1.75,2.25,2.51,3.46.07.13.25.25.19.42-.03.06-.12.07-.14,0Z"/>
      <path class="cls-6" d="M40.15,60.15s0,0,0,0c0-.01-.01-.03-.02-.05,0-.03,0-.05,0-.08-.01-.04.01-.08.04-.1.02-.01.05-.01.07,0,.28-.03.07.48-.1.23Z"/>
      <path class="cls-6" d="M39.98,60.08c0-.07-.03-.15-.08-.2-.64-.88-1.48-1.6-2.15-2.45-.58-.74-1.05-1.49-1.57-2.28-.49-.75-1.07-1.43-1.47-2.22-.7-1.23-.84-2.73-1.14-4.15,0-.35-.6-1.89-.18-1.92.11-.02.18.08.17.19.28,1.44.58,3.06.91,4.43.47,1.4,1.43,2.48,2.2,3.64,1.05,1.73,2.62,3.02,3.54,4.81.08.15-.17.3-.23.14Z"/>
      <path class="cls-6" d="M40.25,60c-.22-.33-.52-.64-.83-.87-.04-.03-.06-.09-.03-.15.19-.33.97.75,1.05.94.08.14-.18.26-.18.08Z"/>
      <path class="cls-6" d="M33.24,41.8c.02-.24,0-.47.02-.71.06-.21.09-.45.08-.65,0-.82.3-1.63.42-2.45,0-.23.08-.46.17-.66.09-.21.09-.52.29-.63.13-.05.18.16.06.22-.12.44-.25.81-.27,1.22-.07.43-.2.84-.24,1.27-.02.15-.08.29-.11.43-.04.34-.05.68-.11,1.02-.1.23-.09.45-.1.68-.01.08-.03.17-.04.24,0,.11-.16.13-.16.01Z"/>
      <path class="cls-6" d="M34.15,36.88s0-.09.02-.11c.37-.8,1.04-1.34,1.52-2.05.46-.44.81-.99,1.28-1.41.15-.08.35-.45.5-.31.03.05.02.12-.02.16-.83.72-1.55,1.59-2.24,2.46-.39.33-.61.81-.91,1.22,0,0,0,0,0-.01-.03.07-.11.12-.15.05Z"/>
      <path class="cls-6" d="M35.6,54.14c-.76-.95-1.37-2.09-1.51-3.41,0,0,0,.01,0,.02-.06-.13.14-.25.19-.11.05.16.07.35.12.51.08.39.24.71.42,1.03.22.37.35.83.61,1.16.16.16.29.36.43.55.09.16-.13.37-.26.24Z"/>
      <path class="cls-6" d="M43.77,65.14c-.66-.73-1.11-1.64-1.64-2.48-.77-1.13-1.54-2.28-2.47-3.28-.12-.02-.05-.26.07-.2,1.23,1.23,2.3,2.63,3.16,4.17.29.48.59.95.94,1.37.05.07.11.14.16.22.07.13-.12.3-.22.2Z"/>
      <path class="cls-8" d="M45.61,70.11c-.19-.23.11-.47.34-.52,0-.01,0-.02-.01-.04-.36-.18-.41-.72,0-.97-.06-.22-.31-.32-.3-.54-.16-.46-1.38-.51-.85-1.18,0-.02,0-.04.01-.05-.3-.18-.6-.37-.89-.56-.06-.03-.08-.14-.02-.2.05-.05.12-.05.17-.01.31.22.66.35.99.54.25-.05.4.22.57.35.12.1.26.18.37.3.53.35,1.35.63,1.51,1.33.21.65-.35,1.49-1.03,1.5-.27.03-.63.26-.85.06Z"/>
      <path class="cls-8" d="M46.02,69.92c-.07-.25.2-.38.39-.46.2-.14.43-.22.62-.33.12-.34-.15-.51-.29-.75-.15-.23-.26-.51-.49-.66-.39-.26-.8-.4-1.2-.62-.37-.23-.61-.63-.91-.94-.12-.19-.46-.35-.26-.62.07-.07.18-.07.24,0,.2.25.42.47.63.7.57.75,1.72.62,2.25,1.41.15.32.42.52.56.84.24.51-.06,1.19-.66,1.29-.26.11-.73.51-.89.14Z"/>
      <path class="cls-8" d="M46.94,69.34c-.08-.12,0-.28,0-.43-.29-.77-.87-1.3-1.53-1.7-.49-.37-.91-.85-1.38-1.24-.06-.07-.15-.14-.16-.25.02-.21.24-.23.32-.09.45.39.88.83,1.39,1.12.77.33,1.39.9,1.78,1.65.13.23.17.5.08.78-.05.25-.4.35-.51.15Z"/>
      <path class="cls-6" d="M46.8,67.63c-.39-.36-.96-.47-1.36-.83-.42-.36-.89-.67-1.27-1.07-.12-.09-.24-.2-.31-.33-.13-.04-.09-.28.06-.29.16-.02.19.22.28.31.14.14.23.33.38.46.23.33.64.42.97.61,0,0-.01,0-.02,0,.53.26,1.01.6,1.44,1,.09.11-.09.28-.18.17Z"/>
      <path class="cls-6" d="M47.3,69.6c-.04-.05.01-.12.05-.15.11-.13.26-.26.28-.44,0-.3-.16-.55-.29-.79-.04-.05-.07-.1-.12-.13-.04-.02-.05-.07-.02-.11.19-.18.57.7.56.87.06.28-.17.55-.36.75-.03.03-.08.03-.1,0Z"/>
    </g>
    <g id="Vector_layer-2" data-name="Vector layer">
      <path class="cls-2" d="M42.83,56.86c.8-1.03,1.39-2.21,1.87-3.44.16-.16.14-.45-.03-.56-.61-.31-1.42,1.71-1.77,2.22-.27.46-.61.86-.9,1.3-.43.42-.92.77-1.38,1.13-1.19,1.12-2.64,1.67-4.07,2.2-.59.24-1.1.54-1.67.83,0,.02,0,.03,0,.04-2.76,1.2-5.58,2.25-8.47,2.61-.5-.15-.95-.41-1.46-.53-.29-.17-.63-.36-.98-.44-.08-.07-.13-.18-.2-.27,0,0,0,0,0,0-.08-.24-.11-.51-.21-.74-.31-.67-.59-1.36-.6-2.15.03-.82.25-1.64.24-2.46.1-.12.11-.25.07-.34.1,0,.22-.06.3-.16.05-.04.1-.08.15-.12.28-.15.57-.29.84-.45.23-.11.47-.24.71-.33.01,0,.03-.01.04-.02.13.02.27.03.39.07.23.04.43.13.52.37.01.32.2.59.34.86,0,0,.01.02.02.03-.28.15-.52.39-.37.7.16.28.49.11.73.02.34-.09.66-.24.99-.36.28-.11.57-.19.85-.31.26-.08.51-.19.75-.27,1.53-.63,3.05-1.3,4.54-2.07.98-.49,2-.89,2.95-1.49.43-.26.93-.42,1.27-.85.15-.17.24-.38.34-.58.2-.25.51-.48.54-.81,0-.04,0-.08-.01-.12.12-.18.23-.37.34-.56.24-.4.14-.83,0-1.2-.02-.08.05-.15.06-.22.02-.09.03-.17.02-.26.03-.14.08-.29.13-.43.31-.62.9-1.04,1.39-1.46.07-.12.07-.28,0-.38-.44-.45-1.91,1.24-2.12,1.75-.08.16-.17.29-.22.51-.07.48.09.88.2,1.31-.01.21-.24.34-.31.55-.06.15-.13.29-.2.43-.15.12-.29.22-.45.4-.3.63-.88.84-1.42,1.13-.68.44-1.41.75-2.1,1.13-1.54.78-3.06,1.59-4.62,2.29-.31.13-.64.28-.98.4-.02,0-.04,0-.06,0-.57.1-1.15.33-1.72.53,0-.05,0-.09-.02-.14-.08-.19-.24-.38-.33-.57-.02-.25-.17-.46-.28-.66-.29-.3-.8-.38-1.21-.27-.12-.02-.28.01-.4.02-.48.01-.83.37-1.21.64-.04.03-.08.06-.12.09-.01-.02-.02-.03-.03-.05-.1.08-.19.16-.27.25-.26.17-.5.35-.64.64,0,0,0-.01.02-.02-.07.09-.08.22,0,.3,0,0,.01.01.02.02-.08.24-.09.51-.15.76-.1.69-.23,1.31-.29,2.01,0,.84.29,1.63.65,2.33.05.13.08.26.12.4-.18.27-.04.63.1.88.23.43.72.45,1.09.68,0,0,.01,0,.02,0,0,0,0,0,0,0,0,0,0,0,0,0,.52.31,1.14.41,1.67.68.83.24,1.71-.2,2.56-.34.85-.14,1.68-.44,2.52-.7,1.01-.29,2.01-.76,2.99-1.29,0,0,0,0,0,0,.72-.28,1.4-.68,2.08-1.06,1.02-.54,2.11-.87,3.15-1.38.77-.35,1.42-.98,2.12-1.47.52-.37,1.14-.64,1.55-1.18ZM55.04,66.4c.02.07-.03.14-.09.16-.05.02-.09.04-.14.05.03,0,.06,0,.09,0-.97.6-2.02,1.07-3.05,1.47-1.75.72-3.52,1.34-5.29,1.94-4.04,1.38-8.06,2.83-12.12,3.82-1.92.53-3.89.68-5.82.69-.15,0-.33,0-.53-.03-.26-.3-.83-.37-1.22-.46-.59-.12-1.24-.1-1.74-.44-.87-.71-1.78-1.38-2.63-2.12-1.25-1.34-2.71-2.46-3.8-3.99-.99-1.24-2.03-2.43-3.11-3.6-1.43-1.94-3.06-3.76-4.2-5.97-.52-.89-.91-1.86-1.32-2.83-.41-.86-.93-1.64-1.31-2.53-.25-.66-.55-1.23-.89-1.8-.05-.08-.11-.15-.16-.23-.18-.25-.35-.51-.52-.77-.08-.13-.16-.25-.25-.38-.01-.02-.03-.04-.04-.06-.01-.01-.02-.03-.03-.04-.09-.15-.18-.3-.28-.42-.35-.58-.6-1.22-1.02-1.76-.42-.77-.86-1.53-1.3-2.3-.03-.05-.05-.1-.08-.16-.05-.09-.1-.17-.15-.25-.17-.3-.34-.6-.5-.91,0,0,0,0,0,0-.25-.58-.46-1.19-.79-1.73-.47-1-.97-2.01-1.3-3.09-.23-1-.35-2.04-.41-3.08.05-1.7.45-3.32.9-5.01.34-1.29,1.25-2.22,2.18-3.02,1.52-1,2.93-2.32,4.56-3.08,1.18-.32,2.32-.8,3.44-1.37.77-.32,1.59-.37,2.38-.57,1.37-.4,2.6-.71,4.03-1.01.93-.27,1.82-.72,2.77-.81.93-.1,1.84-.4,2.71-.84.79-.3,1.62-.37,2.41-.67,1.72-.94,3.59-1.27,5.3-2.26.92-.67,1.93-1.03,2.93-1.5,1.2-.66,2.33-1.46,3.49-2.22.83-.43,1.7-.7,2.56-.98.14.03.27-.04.36-.17.01,0,.02,0,.03.01.25.16.51.3.75.48.51.41.88.95,1.07,1.64.29.69.77,1.25.96,2,.07.93.32,1.81.3,2.75-.23,1.68-.65,3.37-1.18,4.98-.55,1.74-1.36,3.38-1.84,5.12-.19.85-.27,1.72-.33,2.58,0,.19-.03.37-.06.56,0,0,0,0,0,0-.09.52-.13,1.04-.18,1.55-.15.74-.13,1.48-.2,2.21-.01.12-.03.24-.04.36-.02.14-.04.28-.07.42,0,.1,0,.18.03.25,0,.43.04.85.19,1.24.13.26.17.55.21.85.06.87.16,1.72.51,2.47.05.13.14.21.24.24,0,.02.02.05.03.07.11.42.23.83.46,1.17.12.21.24.42.36.63.04.11.09.22.13.34.44.75.73,1.55,1.01,2.39.84,1.37,1.45,2.92,1.77,4.57.1.29.3.54.38.84.02.42.04.88.18,1.27,0,.02.01.04.02.06-.03.64-.05,1.27.03,1.88.33,1.22.72,2.41,1.18,3.55.3.66.47,1.4.84,2.01.56.93.97,1.96,1.66,2.78.02.03.05.06.07.09.07.07.14.13.21.2.14.12.27.25.41.37.11.1.23.21.35.3.04.02.07.04.11.07.01,0,.03.02.04.03.02.01.04.03.06.05.02.02.05.03.07.05t0,0s.09.07.14.11c0,0,0,0,0,0,.11.1.22.2.32.3,0,0,0,0,0,0,.05.04.09.08.13.12.03.02.06.05.09.08.13.11.25.23.39.33.1.07.21.13.31.19.08.05.17.1.25.15.08.05.16.1.23.16.09.07.18.14.28.2.03,0,.07.02.1.02.12.03.25.05.37.08.05,0,.1.01.15.02.07,0,.15,0,.22.02,0,0,0,0,.01,0,.11,0,.22.03.32.05.07.01.15.03.22.04.01,0,.03,0,.04.01.03,0,.05,0,.08,0,.02,0,.03,0,.05,0,.01,0,.03,0,.04,0,.06-.01.11-.03.17-.04.03,0,.06-.02.09-.02.03,0,.06-.01.09,0,.03,0,.04.02.05.04.04,0,.06.03.07.07Z"/>
      <path class="cls-2" d="M59.16,61.65c.07,1.24-.17,2.46-1.32,2.99-.13,0-.28.06-.43.16,0,0,0,0,0,0-.8.33-1.61.5-2.42.44-.11,0-.21,0-.32,0,0,0,0,0,0,0-.09-.01-.18-.03-.26-.04-1.13-.13-1.79-1.09-2.57-1.79-1.09-.82-1.88-1.99-2.79-3.03-.58-.99-1.17-1.98-1.66-3.04,0-.03-.02-.06-.03-.09-.12-.89-.42-1.71-.61-2.58-.04-.54-.12-1.08-.18-1.62.06-.09.09-.2.08-.32-.03-.35-.13-.69-.12-1.05-.01-.44-.24-.79-.41-1.16-.2-.85-.4-1.71-.72-2.5-.33-.93-.83-1.65-1.3-2.47-.21-.7-.55-1.32-.96-1.89-.33-.58-.53-1.24-.86-1.82-.01-.02-.03-.04-.04-.07-.05-.14-.1-.27-.15-.41.01-.06.02-.13,0-.2-.27-.99-.36-2.02-.49-3.06-.21-1.15.03-2.4.2-3.61.04-.82.12-1.64.24-2.47.05-.21.02-.47-.09-.6.05-.59.11-1.18.19-1.77.41-1.84,1.34-3.54,1.92-5.37.18.78.21,1.63.48,2.37.55,1.25.95,2.6,1.62,3.75.88,1.76,1.74,3.54,2.92,5,1.75,2.09,2.75,4.78,4.12,7.12,1.3,2.28,2.18,4.83,3.02,7.34.95,1.99,1.46,4.2,2.12,6.33.26,1.83.72,3.58.81,5.45Z"/>
      <path class="cls-2" d="M45.13,13.9c0,.47-.09.94-.15,1.42-.2-.49-.51-.91-.79-1.33-.25-.34-.41-.75-.61-1.14-.3-.42-.69-.74-1.09-1.03-.33-.24-.73-.38-1.14-.39-.08-.05-.2-.05-.29.02-.17-.16-.44.02-.7.03-.19.01-.38.03-.57.06.46-.36.9-.75,1.33-1.14.89-.67,1.38-1.95,2.31-2.57.38.46.59,1.14.86,1.7.55,1.34.7,2.87.83,4.38Z"/>
      <path class="cls-2" d="M15.48,68.41c1.72,1.53,1.73,2.23,3.8,2.24-.97-.89-1.77-1.99-2.64-3,0,0,0,0,0,.01,0,0-.01-.01-.02-.02,0,0,0,0,0,0-.7-.91-1.55-1.67-2.3-2.55-.45-.57-.9-1.15-1.35-1.73-.01-.02-.02-.04-.03-.05,0-.02-.01-.03-.02-.05,0-.01-.02-.03-.02-.04-.02-.05-.04-.1-.07-.15-.02-.04-.04-.09-.07-.13-.06-.1-.13-.19-.2-.29,0-.01-.02-.03-.03-.05-.04-.09-.07-.17-.12-.26-.05-.09-.09-.18-.14-.27-.04-.08-.1-.15-.15-.23-.06-.1-.11-.2-.17-.3-.05-.09-.12-.16-.18-.25,0,0-.01-.02-.02-.03-.08-.13-.17-.25-.24-.38,0,0,0,0,0,0-.05-.09-.09-.19-.13-.28-.03-.07-.07-.13-.11-.19-.07-.12-.14-.23-.22-.33-.07-.09-.14-.17-.21-.27-.07-.11-.14-.23-.2-.35-.03-.06-.06-.13-.1-.19-.03-.07-.06-.14-.1-.21-.07-.13-.15-.26-.23-.38,0,0,0,0,0,0,0,0,0,0,0,0-.08-.13-.14-.27-.21-.41-.07-.16-.13-.33-.2-.49-.03-.09-.08-.17-.13-.24-.04-.06-.08-.12-.11-.18,0,0,0,0,0,0,0,0,0,0,0,0h0s0,0,0,0t0,0h0s-.05-.1-.06-.15c-.03-.09-.07-.19-.11-.28-.04-.1-.09-.19-.13-.29,0,0,0-.01,0-.01,0-.02-.02-.04-.02-.07,0,0,0,0,0,0-.06-.15-.14-.29-.22-.43-.01-.02-.02-.04-.03-.06-.01-.03-.02-.07-.03-.1-.04-.15-.08-.3-.14-.45-.07-.16-.14-.32-.21-.47,0,0,0,.01,0,.02-.06-.13-.12-.27-.17-.4-.04-.13-.06-.28-.11-.4-.05-.12-.1-.23-.16-.34-.05-.09-.09-.19-.15-.28-.05-.08-.09-.16-.13-.24h0s0,0,0,0c0,0,0,0,0-.01,0,0,0,0,0,0-.03-.06-.06-.12-.09-.18-.01-.02-.03-.04-.05-.05-.03-.08-.06-.16-.09-.24-.06-.14-.11-.28-.18-.42,0,0,0,0,0-.02-.08-.17-.18-.32-.27-.48-.04-.08-.08-.16-.11-.24-.03-.06-.07-.13-.1-.2-.16-.35-.34-.68-.53-1.01-.02-.06-.04-.12-.06-.17-.05-.11-.11-.21-.17-.31-.07-.12-.13-.25-.21-.37-.08-.11-.15-.22-.22-.34-.05-.09-.1-.17-.15-.25-.02-.04-.04-.07-.06-.11,0,0,0,0,0-.01,0,0,0-.02-.01-.03,0-.01-.01-.02-.02-.04-.02-.03-.03-.07-.05-.1-.02-.03-.03-.07-.05-.1-.04-.08-.08-.15-.12-.23-.03-.05-.06-.1-.1-.15-.03-.04-.06-.08-.09-.12-.03-.04-.06-.08-.09-.12,0,0,0,0-.01-.01-.01-.02-.03-.04-.05-.06-.04-.05-.07-.11-.11-.16-.06-.14-.13-.29-.19-.43-.54-.79-1.04-1.64-1.62-2.41-.18.1-.43,0-.63.06-.41.97-.23,2.03-.09,3.03.14,1.01.37,2.01.62,2.99.5,1.34,1.44,2.35,1.99,3.65.5.74.79,1.61,1.19,2.41.53.99,1.14,1.93,1.74,2.87.71.79,1.44,1.56,1.97,2.52.47.65,1.05,1.19,1.52,1.83.3.39.57.83.96,1.14,1.2.78,2.01,2.02,3.15,2.87ZM44.99,15.32c.06-.48.14-.95.15-1.42-.13-1.51-.28-3.04-.83-4.38-.27-.57-.48-1.24-.86-1.7-.93.62-1.43,1.89-2.31,2.57-.43.39-.87.78-1.33,1.14.19-.03.38-.04.57-.06.26,0,.53-.19.7-.03.09-.07.21-.07.29-.02.41.01.81.15,1.14.39.4.29.79.61,1.09,1.03.19.39.36.79.61,1.14.28.42.59.84.79,1.33ZM51.32,64.2c-.07-.06-.15-.12-.23-.18-.03-.02-.05-.03-.08-.05.1.08.2.16.31.23ZM54.95,66.56c.06-.02.11-.09.09-.16-.01-.04-.04-.06-.07-.07,0-.02-.03-.04-.05-.04-.03,0-.06,0-.09,0-.03,0-.06.02-.09.02-.06.01-.11.03-.17.04-.01,0-.03,0-.04,0-.02,0-.03,0-.05,0-.03,0-.05,0-.08,0-.01,0-.02-.01-.04-.01-.07-.02-.15-.03-.22-.04-.11-.02-.21-.04-.32-.05,0,0,0,0-.01,0-.07-.02-.15-.02-.22-.02-.05,0-.1-.01-.15-.02-.12-.02-.25-.05-.37-.08-.03,0-.07-.02-.1-.02-.1-.06-.18-.13-.28-.2-.08-.05-.15-.1-.23-.16-.08-.05-.16-.11-.25-.15-.1-.06-.21-.12-.31-.19-.13-.11-.26-.22-.39-.33-.03-.03-.06-.05-.09-.08,0,0,0,0,0,0-.04-.04-.08-.07-.13-.11t0,0c-.11-.1-.21-.21-.32-.3,0,0,0,0,0,0-.04-.04-.09-.08-.14-.11h0s0,0,0,0c-.02-.02-.05-.04-.07-.05-.02-.02-.04-.03-.06-.05-.01,0-.03-.02-.04-.03-.04-.02-.07-.05-.11-.07-.12-.1-.23-.2-.35-.3-.14-.12-.27-.25-.41-.37-.07-.06-.14-.13-.21-.2-.02-.03-.04-.06-.07-.09-.69-.82-1.09-1.86-1.66-2.78-.38-.61-.54-1.35-.84-2.01-.46-1.14-.85-2.33-1.18-3.55-.08-.61-.06-1.24-.03-1.88,0-.02-.02-.04-.02-.06-.14-.39-.16-.85-.18-1.27-.09-.3-.28-.55-.38-.84-.32-1.65-.93-3.19-1.77-4.57-.28-.83-.57-1.64-1.01-2.39-.04-.11-.09-.22-.13-.34-.12-.21-.24-.42-.36-.63-.23-.34-.35-.75-.46-1.17-.01-.02-.02-.05-.03-.07-.1-.03-.19-.1-.24-.24-.35-.75-.45-1.6-.51-2.47-.03-.3-.08-.59-.21-.85-.15-.38-.19-.8-.19-1.24-.03-.07-.04-.15-.03-.25.03-.14.05-.28.07-.42.01-.12.03-.24.04-.36.07-.74.04-1.47.2-2.21.05-.51.09-1.04.18-1.55,0,0,0,0,0,0,.03-.19.05-.37.06-.56.06-.85.14-1.72.33-2.58.49-1.74,1.29-3.38,1.84-5.12.53-1.61.95-3.3,1.18-4.98.02-.94-.23-1.82-.3-2.75-.19-.75-.67-1.31-.96-2-.19-.69-.56-1.24-1.07-1.64-.24-.18-.5-.32-.75-.48-.01,0-.02,0-.03-.01-.09.12-.23.2-.36.17-.86.28-1.73.55-2.56.98-1.16.76-2.3,1.56-3.49,2.22-1,.47-2.01.83-2.93,1.5-1.71,1-3.58,1.33-5.3,2.26-.79.31-1.62.37-2.41.67-.87.44-1.78.74-2.71.84-.95.09-1.85.54-2.77.81-1.43.3-2.66.61-4.03,1.01-.79.2-1.61.25-2.38.57-1.12.57-2.26,1.05-3.44,1.37-1.64.76-3.04,2.08-4.56,3.08-.92.8-1.84,1.73-2.18,3.02-.45,1.68-.85,3.31-.9,5.01.06,1.05.19,2.08.41,3.08.33,1.09.83,2.09,1.3,3.09.33.54.53,1.15.79,1.73,0,0,0,0,0,0,.16.31.33.61.5.91.05.08.11.16.15.25.03.05.05.1.08.16.44.77.88,1.53,1.3,2.3.42.53.67,1.17,1.02,1.76.09.12.19.27.28.42.01.01.02.02.03.04.01.02.03.04.04.06.08.13.16.25.25.38.17.26.34.52.52.77.05.07.11.15.16.23.35.56.64,1.14.89,1.8.38.89.9,1.67,1.31,2.53.41.97.8,1.94,1.32,2.83,1.14,2.22,2.77,4.04,4.2,5.97,1.08,1.17,2.12,2.35,3.11,3.6,1.09,1.53,2.55,2.65,3.8,3.99.85.74,1.76,1.41,2.63,2.12.5.34,1.15.32,1.74.44.38.08.96.15,1.22.46.2.03.38.04.53.03,1.93-.01,3.9-.16,5.82-.69,4.06-1,8.08-2.44,12.12-3.82,1.77-.6,3.54-1.22,5.29-1.94,1.03-.39,2.07-.86,3.05-1.47-.03,0-.06,0-.09,0,.05-.02.1-.04.14-.05ZM57.84,64.64c1.15-.53,1.39-1.75,1.32-2.99-.09-1.86-.55-3.62-.81-5.45-.66-2.13-1.17-4.33-2.12-6.33-.85-2.51-1.72-5.06-3.02-7.34-1.37-2.35-2.37-5.04-4.12-7.12-1.18-1.47-2.04-3.25-2.92-5-.67-1.16-1.07-2.5-1.62-3.75-.27-.74-.3-1.59-.48-2.37-.58,1.83-1.52,3.52-1.92,5.37-.08.59-.13,1.18-.19,1.77.11.14.14.39.09.6-.12.83-.2,1.65-.24,2.47-.17,1.21-.41,2.46-.2,3.61.13,1.04.22,2.08.49,3.06.01.07,0,.14,0,.2.05.14.1.27.15.41.01.02.03.04.04.07.33.58.53,1.25.86,1.82.41.57.75,1.19.96,1.89.47.82.98,1.53,1.3,2.47.32.79.52,1.66.72,2.5.17.36.4.72.41,1.16-.01.37.08.7.12,1.05.01.12-.02.23-.08.32.06.54.14,1.08.18,1.62.19.87.49,1.69.61,2.58,0,.03.02.06.03.09.49,1.06,1.08,2.05,1.66,3.04.91,1.04,1.69,2.21,2.79,3.03.78.7,1.44,1.65,2.57,1.79.09.01.18.02.26.04,0,0,0,0,0,0,.11,0,.21,0,.32,0,.81.06,1.62-.11,2.42-.44,0,0,0,0,0,0,.15-.09.3-.17.43-.16ZM60.12,61.83c.09,1.07-.34,2.15-1.11,2.99-.22.26-.52.36-.8.5-.04.02-.07.04-.11.06-.03.06-.07.11-.11.16-.03,0-.06,0-.09.02-.05.03-.1.07-.15.1-.09.06-.17.12-.26.18-.07.05-.14.1-.22.15-.04.02-.08.05-.12.08-.21.13-.41.26-.62.38-.08.04-.16.08-.23.13,0,0,0,0,0,0,0,0,0,0,0,0-.24.13-.47.27-.7.41-.03.02-.05.05-.05.08-.08.06-.16.11-.24.17,0,0,0,0,0,0-.09.06-.18.12-.27.19,0,0,0,0,0,0t0,0s0,0-.01,0c-.06.04-.12.08-.18.12-.02,0-.03.02-.05.03-.02,0-.04.02-.06.03-.01,0-.03.01-.04.02-.02.01-.04.02-.06.03-.01,0-.03.01-.04.02,0,0,0,0,.01,0,0,0,0,0-.01,0-.13.06-.26.13-.38.2-.37.19-.74.38-1.1.56-.02,0-.03-.02-.05-.03-1.2.6-2.45,1.08-3.68,1.56-3.04,1.1-6.08,2.1-9.1,3.14-3.59,1.13-7.18,2.58-10.85,2.73-.92.14-1.83.07-2.72-.05-.2-.03-.37-.15-.46-.33,0,0-.02,0-.02,0-.55-.04-1.09-.15-1.58-.36-.39-.17-.75-.4-1.07-.71-1.18-.86-2.29-1.81-3.35-2.84-.14.09-.32.09-.48.1-.3,0-.6.07-.9.07-.19.08-.41.03-.59-.02-.06,0-.12,0-.18,0-.06-.01-.12-.03-.18-.05,0,0,0,0,0,0-.1-.03-.19-.07-.29-.11-.09-.04-.18-.08-.27-.12-.04-.02-.07-.03-.11-.05-.07-.03-.14-.06-.21-.09-.03-.01-.06-.03-.09-.04,0,0,0,0,0,0-.61-.29-1.07-.78-1.59-1.2-1.05-.67-2.05-1.41-2.83-2.42-.57-.6-1.33-.97-1.82-1.68-.66-.98-1.51-1.8-2.12-2.83-.42-.89-1.18-1.48-1.73-2.26-.64-1.08-1.34-2.13-1.91-3.26-.35-.8-.73-1.57-1.15-2.33-.59-1.38-1.6-2.55-1.84-4.12-.24-1.88-.91-3.85-.43-5.8.16-.69.47-1.12,1.06-1.06-.29-.61-.5-1.28-.85-1.87-.52-1.23-1.07-2.44-1.38-3.78-.11-.81-.25-1.62-.31-2.45-.15-1.63.28-3.27.63-4.88.22-.84.46-1.7.89-2.45.48-.77,1.12-1.4,1.74-2.03,1.57-1.21,3.12-2.6,4.83-3.55.53-.26,1.23-.44,1.72-.65.72-.31,1.39-.75,2.11-1.07,1.39-.48,2.83-.65,4.22-1.17,1.34-.27,2.66-.62,3.98-1.13.72-.21,1.5-.21,2.22-.41.85-.25,1.67-.66,2.55-.72.78-.09,1.55-.33,2.3-.69,1-.4,2.03-.58,3.03-1.02.67-.24,1.28-.67,1.91-1.06.66-.43,1.37-.64,2.05-.97,1.2-.66,2.29-1.59,3.48-2.26.09-.04.18-.08.27-.12,1.56-1.08,2.87-2.56,4.11-4.14.29-.35.63-.62.99-.86.19-.16.41-.29.63-.25,1.16.42,1.41,2.08,1.69,3.32.24,1.4.6,2.84.45,4.31-.1.83-.38,1.88-.46,2.61.03.12.02.23-.01.33.01.07.02.14.04.22.23,1.16-.08,2.36-.45,3.51-.16.71-.34,1.42-.54,2.12.41.57.6,2.45.76,2.8.98,2.41,2.17,4.62,3.34,6.84.76,1.45,1.84,2.6,2.7,3.94,1.33,2.09,2.53,4.26,3.68,6.44.29.79.67,1.53.99,2.3.4,1.19.74,2.33,1.1,3.5.77,1.72,1.29,3.56,1.77,5.41.33.83.55,1.7.64,2.62.36,1.57.67,3.16.75,4.81Z"/>
      <path class="cls-2" d="M19.28,70.66c-2.07,0-2.08-.71-3.8-2.24-1.13-.85-1.95-2.09-3.15-2.87-.39-.31-.65-.74-.96-1.14-.48-.64-1.05-1.18-1.52-1.83-.53-.96-1.25-1.72-1.97-2.52-.59-.94-1.2-1.87-1.74-2.87-.4-.8-.69-1.67-1.19-2.41-.55-1.3-1.49-2.31-1.99-3.65-.25-.98-.47-1.98-.62-2.99-.14-.99-.32-2.05.09-3.03.2-.05.45.04.63-.06.58.77,1.07,1.61,1.62,2.41.07.14.13.29.19.43.04.05.07.11.11.16.02.02.03.04.05.06,0,0,0,.01.01.01.03.04.06.08.09.12.03.04.06.08.09.12.03.05.07.1.1.15.04.07.08.15.12.23.02.03.03.07.05.1.02.03.03.07.05.1.01.02.02.04.03.06,0,0,0,0,0,.01.02.04.04.08.06.11.05.08.1.17.15.25.07.12.14.23.22.34.08.12.14.24.21.37.06.1.12.2.17.31.02.06.04.12.06.17.19.33.36.67.53,1.01.03.07.07.13.1.2.04.08.07.16.11.24.09.16.19.32.27.48,0,0,0,0,0,.02.07.13.12.28.18.42.03.08.06.16.09.24.02.01.04.03.05.05.03.06.06.12.09.18,0,0,0,0,0,0,0,0,0,0,0,.01,0,0,0,0,0,0h0c.04.08.08.16.13.24.05.09.1.19.15.28.06.11.11.22.16.34.05.13.07.27.11.4.05.14.11.27.17.4,0,0,0-.01,0-.02.07.15.15.31.21.47.06.15.1.3.14.45.01.04.02.07.03.1,0,.02.02.04.03.06.08.14.17.28.22.43,0,0,0,0,0,0,0,.02.02.04.02.07,0,0,0,0,0,0,0,0,0,0,0,0,.04.1.08.19.13.29.04.09.07.18.11.28.02.05.04.1.06.15h0s0,0,0,0c0,0,0,0,0,0h0s0,0,0,0c0,0,0,0,0,0t0,0s0,0,0,0h0c.04.06.08.12.11.18.05.08.09.16.13.24.07.16.12.33.2.49.07.14.13.28.21.41,0,0,0,0,0,0,0,0,0,0,0,0,.08.13.16.25.23.38.04.07.07.14.1.21.03.07.06.13.1.19.07.12.13.24.2.35.06.09.14.17.21.27.08.11.15.22.22.33.04.06.07.13.11.19.04.09.08.19.13.28,0,0,0,0,0,0,.08.13.16.25.24.38,0,0,.01.02.02.03.06.08.12.16.18.25.06.1.11.2.17.3.05.08.1.15.15.23.05.09.1.18.14.27.04.08.08.17.12.26,0,.02.02.03.03.05.07.1.14.19.2.29.02.04.04.09.07.13.03.05.05.1.07.15,0,.02.01.03.02.04,0,.02.01.03.02.05.01.02.02.04.03.05.45.58.9,1.16,1.35,1.73.75.87,1.6,1.63,2.3,2.55,0,0,0,0,0,0,0,0,.01.01.02.02,0,0,0,0,0-.01.88,1.01,1.67,2.1,2.64,3Z"/>
      <path class="cls-2" d="M25.14,73.6c-.87-.71-1.78-1.38-2.63-2.12-1.25-1.34-2.71-2.46-3.8-3.99-.99-1.24-2.03-2.43-3.11-3.6-1.43-1.94-3.06-3.76-4.2-5.97-.52-.89-.91-1.86-1.32-2.83-.41-.86-.93-1.64-1.31-2.53-.25-.66-.55-1.23-.89-1.8-.05-.08-.11-.15-.16-.23-.18-.25-.35-.51-.52-.77-.08-.13-.16-.25-.25-.38-.01-.02-.03-.04-.04-.06-.01-.01-.02-.03-.03-.04-.09-.15-.18-.3-.28-.42-.35-.58-.6-1.22-1.02-1.76-.42-.77-.86-1.53-1.3-2.3-.03-.05-.05-.1-.08-.16-.05-.09-.1-.17-.15-.25-.17-.3-.34-.6-.5-.91,0,0,0,0,0,0-.25-.58-.46-1.19-.79-1.73-.47-1-.97-2.01-1.3-3.09-.23-1-.35-2.04-.41-3.08.05-1.7.45-3.32.9-5.01.34-1.29,1.26-2.22,2.18-3.02,1.52-1,2.93-2.32,4.56-3.08.92-.25,1.81-.6,2.69-1,.11.31.22.61.33.92.47,1.22.94,2.44,1.43,3.63.39.95.8,1.88,1.21,2.81.65,1.14,1.29,2.27,1.96,3.37.93,1.54,1.87,3.05,2.82,4.55,1.66,2.62,3.38,5.14,5.08,7.65.74,1.03,1.48,2.04,2.22,3.06.31.43.65.83.97,1.24.47.6.93,1.2,1.4,1.79.29.37.61.72.92,1.07.38.45.77.89,1.15,1.33-.33.16-.66.31-.99.46-.31.13-.64.28-.98.4-.02,0-.04,0-.06,0-.57.1-1.15.33-1.72.53,0-.05,0-.09-.02-.14-.08-.19-.24-.38-.33-.57-.02-.25-.17-.46-.28-.66-.29-.3-.8-.38-1.21-.27-.12-.02-.28.01-.4.02-.48.01-.83.37-1.21.64-.04.03-.08.06-.12.09-.01-.02-.02-.03-.03-.05-.1.08-.19.16-.27.25-.26.17-.5.35-.64.64,0,0,0-.01.02-.02-.07.09-.08.22,0,.3,0,0,.01.01.02.02-.07.24-.09.51-.15.76-.1.69-.23,1.31-.29,2.01,0,.84.29,1.63.65,2.33.05.13.08.26.12.4-.18.27-.04.63.1.88.15.29.43.39.7.5.06.02.12.05.19.08.07.03.14.07.2.11,0,0,.01,0,.02,0,0,0,0,0,0,0,0,0,0,0,0,0,.28.17.6.27.91.38.26.09.52.18.76.3.83.24,1.71-.2,2.56-.34.85-.14,1.68-.44,2.52-.7,1.01-.29,2.01-.76,2.99-1.29,0,0,0,0,0,0,.72-.28,1.4-.68,2.08-1.06.15-.08.31-.16.47-.23.7.67,1.41,1.33,2.12,1.98.98.89,1.96,1.76,2.96,2.61.83.71,1.68,1.4,2.52,2.09,1.01.72,2,1.46,3.05,2.09.15.08.3.16.46.24-.34.12-.69.24-1.03.35-4.04,1.38-8.06,2.83-12.12,3.82-1.93.53-3.89.68-5.82.69-.15,0-.33,0-.53-.03-.26-.3-.83-.37-1.22-.46-.49-.1-1.02-.1-1.48-.3-.09-.04-.18-.08-.26-.14Z"/>
      <path class="cls-2" d="M23.96,62.22c-.08-.07-.13-.18-.19-.27,0,0,0,0,0,0-.21-.99-.82-1.82-.81-2.9.03-.82.25-1.64.24-2.46.1-.12.11-.25.07-.34.1,0,.22-.06.3-.16.55-.37,1.15-.65,1.75-.92.34.06.76.06.91.44.02.33.21.61.36.88-.28.15-.52.39-.37.7.16.28.49.11.73.02.34-.09.66-.24.99-.36,1.16-.4,2.3-.85,3.43-1.36,1.47,1.56,2.95,3.09,4.47,4.55-.32.16-.63.34-.97.51,0,.02,0,.03,0,.04-2.76,1.2-5.58,2.25-8.47,2.61-.85-.26-1.6-.68-2.44-.97Z"/>
      <path class="cls-2" d="M15.48,68.41c-1.13-.85-1.95-2.09-3.15-2.87-.39-.31-.65-.74-.96-1.14-.48-.64-1.05-1.18-1.52-1.83-.53-.96-1.25-1.72-1.97-2.52-.59-.94-1.2-1.87-1.74-2.87-.4-.8-.69-1.67-1.19-2.41-.55-1.3-1.49-2.31-1.99-3.65-.25-.98-.47-1.98-.62-2.99-.14-.99-.32-2.05.09-3.03.2-.05.45.04.63-.06.58.77,1.07,1.61,1.62,2.41.07.14.13.29.19.43.04.05.07.11.11.16.02.02.03.04.05.06,0,0,0,.01.01.01.03.04.06.08.09.12.03.04.06.08.09.12.03.05.07.1.1.15.04.07.08.15.12.23.02.03.03.07.05.1.02.03.03.07.05.1.01.02.02.04.03.06,0,0,0,0,0,.01.02.04.04.08.06.11.05.08.1.17.15.25.07.12.14.23.22.34.08.12.14.24.21.37.06.1.12.2.17.31.02.06.04.12.06.17.19.33.36.67.53,1.01.03.07.07.13.1.2.04.08.07.16.11.24.09.16.19.32.27.48,0,0,0,0,0,.01.07.13.12.28.18.42.03.08.06.16.09.24.02.01.04.03.05.05.03.06.06.12.09.18h0s0,0,0,0c0,0,0,0,0,0h0c.04.08.08.16.13.24.05.09.1.19.15.28.06.11.11.22.16.34.05.13.07.27.11.4.05.14.11.27.17.4,0,0,0-.01,0-.02.07.15.15.31.21.47.06.15.1.3.14.45,0,.04.02.07.03.1,0,.02.02.04.03.06.08.14.16.28.22.43,0,0,0,0,0,0,0,.02.02.04.02.07,0,0,0,0,0,0,0,0,0,0,0,0,.04.1.08.19.13.29.04.09.07.18.11.28.02.05.04.1.06.15h0s0,0,0,0c0,0,0,0,0,0h0s0,0,0,0c0,0,0,0,0,0t0,0s0,0,0,0h0c.04.06.08.12.11.18.05.08.09.16.13.24.07.16.13.33.2.49.07.14.13.28.21.41,0,0,0,0,0,0,0,0,0,0,0,0,.08.13.16.25.23.38.04.07.07.14.1.21.03.07.06.13.1.19.07.12.13.24.2.35.06.09.14.17.21.27.08.11.15.22.22.33.04.06.07.13.11.19.04.09.08.19.13.28,0,0,0,0,0,0,.08.13.16.25.24.38,0,0,.01.02.02.03.06.08.12.16.18.25.06.1.11.2.17.3.05.08.1.15.15.23.05.09.1.18.14.27.04.08.08.17.12.26,0,.02.02.03.03.05.07.1.14.19.2.29.02.04.04.09.07.13.03.05.05.1.07.15,0,.02.01.03.02.04,0,.02.01.03.02.05.01.02.02.04.03.05.45.58.9,1.16,1.35,1.73.75.87,1.6,1.63,2.3,2.55,0,0,0,0,0,0,0,0,.01.01.02.02,0,0,0,0,0-.01.88,1.01,1.67,2.1,2.64,3-.69,0-1.15-.08-1.52-.24-.75-.32-1.13-.98-2.28-2Z"/>
      <path class="cls-2" d="M7.89,53.4s0,0,0,0c0,0,0,0,0,0Z"/>
      <path class="cls-2" d="M7.89,53.4s0,0,0,0c0,0,0,0,0,0Z"/>
      <path class="cls-2" d="M7.89,53.4s0,0,0,0c0,0,0,0,0,0Z"/>
      <path class="cls-2" d="M7.89,53.4s0,0,0,0c0,0,0,0,0,0Z"/>
      <path class="cls-2" d="M15.48,68.41c-1.13-.85-1.95-2.09-3.15-2.87-.39-.31-.65-.74-.96-1.14-.48-.64-1.05-1.18-1.52-1.83-.53-.96-1.25-1.72-1.97-2.52-.59-.94-1.2-1.87-1.74-2.87-.4-.8-.69-1.67-1.19-2.41-.55-1.3-1.49-2.31-1.99-3.65-.25-.98-.47-1.98-.62-2.99-.14-.99-.32-2.05.09-3.03.2-.05.45.04.63-.06.58.77,1.07,1.61,1.62,2.41.07.14.13.29.19.43.04.05.07.11.11.16.02.02.03.04.05.06,0,0,0,.01.01.01.03.04.06.08.09.12.03.04.06.08.09.12.03.05.07.1.1.15.04.07.08.15.12.23.02.03.03.07.05.1.02.03.03.07.05.1.01.02.02.04.03.06,0,0,0,0,0,.01.02.04.04.08.06.11.05.08.1.17.15.25.07.12.14.23.22.34.08.12.14.24.21.37.06.1.12.2.17.31.02.06.04.12.06.17.19.33.36.67.53,1.01.03.07.07.13.1.2.04.08.07.16.11.24.09.16.19.32.27.48,0,0,0,0,0,.02.07.13.12.28.18.42.03.08.06.16.09.24.02.01.04.03.05.05.03.06.06.12.09.18h0s0,0,0,0c0,0,0,0,0,0h0c.04.08.08.16.13.24.05.09.1.19.15.28.06.11.11.22.16.34.05.13.07.27.11.4.05.14.11.27.17.4,0,0,0-.01,0-.02.07.15.15.31.21.47.06.15.1.3.14.45,0,.04.02.07.03.1,0,.02.02.04.03.06.08.14.16.28.22.43,0,0,0,0,0,0,0,.02.02.04.02.07,0,0,0,0,0,0,0,0,0,0,0,0,.04.1.08.19.13.29.04.09.07.18.11.28.02.05.04.1.06.15h0s0,0,0,0c0,0,0,0,0,0h0s0,0,0,0c0,0,0,0,0,0t0,0s0,0,0,0h0c.04.06.08.12.11.18.05.08.09.16.13.24.07.16.13.33.2.49.07.14.13.28.21.41,0,0,0,0,0,0,0,0,0,0,0,0,.08.13.16.25.23.38.04.07.07.14.1.21.03.07.06.13.1.19.07.12.13.24.2.35.06.09.14.17.21.27.08.11.15.22.22.33.04.06.07.13.11.19.04.09.08.19.13.28,0,0,0,0,0,0,.08.13.16.25.24.38,0,0,.01.02.02.03.06.08.12.16.18.25.06.1.11.2.17.3.05.08.1.15.15.23.05.09.1.18.14.27.04.08.08.17.12.26,0,.02.02.03.03.05.07.1.14.19.2.29.02.04.04.09.07.13.03.05.05.1.07.15,0,.02.01.03.02.04,0,.02.01.03.02.05.01.02.02.04.03.05.45.58.9,1.16,1.35,1.73.75.87,1.6,1.63,2.3,2.55,0,0,0,0,0,0,0,0,.01.01.02.02,0,0,0,0,0-.01.88,1.01,1.67,2.1,2.64,3-.69,0-1.15-.08-1.52-.24-.75-.32-1.13-.98-2.28-2Z"/>
      <path class="cls-2" d="M7.89,53.4s0,0,0,0c0,0,0,0,0,0Z"/>
      <path class="cls-2" d="M15.48,68.41c-1.13-.85-1.95-2.09-3.15-2.87-.39-.31-.65-.74-.96-1.14-.48-.64-1.05-1.18-1.52-1.83-.53-.96-1.25-1.72-1.97-2.52-.59-.94-1.2-1.87-1.74-2.87-.4-.8-.69-1.67-1.19-2.41-.55-1.3-1.49-2.31-1.99-3.65-.25-.98-.47-1.98-.62-2.99-.14-.99-.32-2.05.09-3.03.2-.05.45.04.63-.06.58.77,1.07,1.61,1.62,2.41.07.14.13.29.19.43.04.05.07.11.11.16.02.02.03.04.05.06,0,0,0,.01.01.01.03.04.06.08.09.12.03.04.06.08.09.12.03.05.07.1.1.15.04.07.08.15.12.23.02.03.03.07.05.1.02.03.03.07.05.1.01.02.02.04.03.06,0,0,0,0,0,.01.02.04.04.08.06.11.05.08.1.17.15.25.07.12.14.23.22.34.08.12.14.24.21.37.06.1.12.2.17.31.02.06.04.12.06.17.19.33.36.67.53,1.01.03.07.07.13.1.2.04.08.07.16.11.24.09.16.19.32.27.48,0,0,0,0,0,.02.07.13.12.28.18.42.03.08.06.16.09.24.02.01.04.03.05.05.03.06.06.12.09.18h0s0,0,0,0c0,0,0,0,0,0h0c.04.08.08.16.13.24.05.09.1.19.15.28.06.11.11.22.16.34.05.13.07.27.11.4.05.14.11.27.17.4,0,0,0-.01,0-.02.07.15.15.31.21.47.06.15.1.3.14.45.01.04.02.07.03.1,0,.02.02.04.03.06.08.14.16.28.22.43,0,0,0,0,0,0,0,.02.02.04.02.07,0,0,0,0,0,0,0,0,0,0,0,0,.04.1.08.19.13.29.04.09.07.18.11.28.02.05.04.1.06.15h0s0,0,0,0c0,0,0,0,0,0h0s0,0,0,0c0,0,0,0,0,0t0,0s0,0,0,0h0c.04.06.08.12.11.18.05.08.09.16.13.24.07.16.12.33.2.49.07.14.13.28.21.41,0,0,0,0,0,0,0,0,0,0,0,0,.08.13.16.25.23.38.04.07.07.14.1.21.03.07.06.13.1.19.07.12.13.24.2.35.06.09.14.17.21.27.08.11.15.22.22.34.04.06.07.13.11.19.04.09.08.19.13.28,0,0,0,0,0,0,.08.13.16.25.24.38,0,0,.01.02.02.03.06.08.12.16.18.25.06.1.11.2.17.3.05.08.1.15.15.23.05.09.1.18.14.27.04.08.08.17.12.26,0,.02.02.03.03.05.07.1.14.19.2.29.02.04.04.09.07.13.03.05.05.1.07.15,0,.02.01.03.02.04,0,.02.01.03.02.05.01.02.02.04.03.05.45.58.9,1.16,1.35,1.73.75.87,1.6,1.63,2.3,2.55,0,0,0,0,0,0,0,0,.01.01.02.02,0,0,0,0,0-.01.88,1.01,1.67,2.1,2.64,3-.69,0-1.15-.08-1.52-.24-.75-.32-1.13-.98-2.28-2Z"/>
      <path class="cls-2" d="M7.89,53.4h0,0Z"/>
      <path class="cls-2" d="M25.14,73.6c-.87-.71-1.78-1.38-2.63-2.12-1.25-1.34-2.71-2.46-3.8-3.99-2.49-3.07-5.34-5.92-7.31-9.57-.52-.89-.91-1.86-1.32-2.83-.41-.86-.93-1.64-1.31-2.53-.25-.66-.55-1.23-.89-1.8-1.6-2.27-2.92-4.77-4.33-7.26,0,0,0,0,0,0-.63-1.63-1.57-3.11-2.09-4.82-.25-1.23-.48-2.52-.37-3.81,3.82,5.84,7.49,11.64,11.84,16.6,3.26,3.75,6.31,7.62,9.97,10.72-.09.6.37,1.1.87,1.23.43.18.82.44,1.28.56,4.22,3.21,8.59,6.09,12.91,8.91-3.26.99-6.57,1.84-9.86,1.62-.78-.68-2.1-.33-2.95-.9Z"/>
      <path class="cls-2" d="M25.14,73.6c-.87-.71-1.78-1.38-2.63-2.12-1.25-1.34-2.71-2.46-3.8-3.99-.98-1.24-2.03-2.43-3.11-3.6-1.43-1.94-3.06-3.76-4.2-5.97-.52-.89-.91-1.86-1.32-2.83-.12-.26-.26-.52-.4-.77.21.23.42.46.62.69,1.11,1.24,2.21,2.47,3.35,3.65.01.01.03.03.04.04.03.03.06.06.08.09-.03-.03-.05-.05-.08-.08.08.08.16.16.24.24,0,0-.02-.02-.03-.03.09.09.18.18.27.27-.02-.01-.03-.03-.04-.04.14.14.28.28.43.43,0,0,0,0-.01-.01.06.06.12.12.18.19-.04-.04-.07-.07-.11-.11.06.06.13.13.19.19,0,0,0,0,.01.01,0,0,0,0,0,0,0,0,0,0,0,0,.43.41.86.83,1.29,1.24.37.36.78.66,1.17.99.79.65,1.59,1.26,2.4,1.88.6.39,1.2.77,1.8,1.16.52.34,1.08.62,1.62.92-.02-.01-.04-.02-.06-.04,2.13,1.08,4.21,2.2,6.31,3.29,1.01.52,2.01,1.06,3.04,1.53,1.26.57,2.51,1.19,3.79,1.7.02,0,.04.01.06.02.5-.09,1.07-.03,1.49.2.07.04.15.08.22.13-1.17.35-2.34.68-3.52.97-1.93.53-3.89.68-5.82.69-.15,0-.33,0-.53-.03-.26-.3-.83-.37-1.22-.46-.49-.1-1.02-.1-1.48-.3-.09-.04-.18-.08-.26-.14Z"/>
      <path class="cls-2" d="M14.83,59.84s-.03-.03-.05-.05c.02.02.03.03.05.05h0Z"/>
      <path class="cls-2" d="M13.82,58.82s.07.07.1.1c-.03-.03-.07-.07-.1-.1Z"/>
    </g>
    <g id="Vector_layer-3" data-name="Vector layer">
      <path class="cls-7" d="M25.14,73.6c-.87-.71-1.78-1.38-2.63-2.12-1.25-1.34-2.71-2.46-3.8-3.99-2.49-3.07-5.34-5.92-7.31-9.57-.52-.89-.91-1.86-1.32-2.83-.41-.86-.93-1.64-1.31-2.53-.25-.66-.55-1.23-.89-1.8-1.6-2.27-2.92-4.77-4.33-7.26,0,0,0,0,0,0-.63-1.63-1.57-3.11-2.09-4.82-.72-2.76-.33-5.29.48-8.09.34-1.29,1.26-2.22,2.18-3.02,1.52-1,2.93-2.32,4.56-3.08,1.18-.32,2.32-.8,3.44-1.37.77-.32,1.59-.37,2.38-.57,1.37-.4,2.6-.71,4.03-1.01.93-.27,1.82-.72,2.77-.81.93-.1,1.84-.4,2.71-.84.79-.3,1.62-.37,2.41-.67,1.72-.94,3.59-1.27,5.3-2.26.92-.67,1.93-1.03,2.93-1.5,1.2-.66,2.33-1.46,3.49-2.22.83-.43,1.7-.7,2.56-.98.14.03.27-.04.36-.17.83.41,1.58,1.08,1.85,2.13.29.69.77,1.25.96,2,.07.93.32,1.81.3,2.75-.23,1.68-.65,3.37-1.18,4.98-.55,1.74-1.36,3.38-1.84,5.12-.24,1.04-.27,2.1-.39,3.14,0,0,0,0,0,0-.22,1.61-.38,3.24-.46,4.8-.08.77.33,1.36.39,2.08.06.87.16,1.72.51,2.47.05.13.14.21.24.24.5,1.63,1.54,2.93,1.98,4.6.84,1.37,1.45,2.92,1.77,4.57.1.29.3.54.38.84.02.42.04.88.18,1.27.04.64-.06,1.31.05,1.94.54,1.93,1.2,3.82,2.02,5.56.82,1.51,1.52,3.04,2.97,3.94t0,0s.09.07.14.11c0,0,0,0,0,0,.11.1.22.2.32.3,0,0,0,0,0,0,.41.42.91.71,1.4,1.02.29.29.72.29,1.12.34.26,0,.5.13.76.1.12,0,.31-.14.4-.03.11.01.09.19-.02.22-.05.02-.09.04-.14.05.03,0,.06,0,.09,0-2.67,1.56-5.55,2.4-8.34,3.41-6.1,1.95-12.27,4.75-18.46,4.48-.78-.68-2.1-.33-2.95-.9ZM24.15,63.58c.52.32,1.16.42,1.7.7.83.24,1.71-.2,2.56-.34,2.62-.52,5.15-1.69,7.6-3.05,1.02-.54,2.11-.87,3.15-1.38.77-.35,1.42-.98,2.12-1.47,1.76-.87,2.7-2.78,3.41-4.62.16-.16.14-.45-.03-.56-.61-.31-1.42,1.71-1.77,2.22-.57,1.01-1.36,1.81-2.28,2.43-1.67,1.6-3.87,1.92-5.74,3.03,0,.02,0,.03,0,.04-2.76,1.2-5.58,2.25-8.47,2.61-.85-.26-1.6-.68-2.44-.97-.08-.07-.13-.18-.19-.27,0,0,0,0,0,0-.21-.99-.82-1.82-.81-2.9.03-.82.25-1.64.24-2.46.1-.12.11-.25.07-.34.1,0,.22-.06.3-.16.55-.37,1.15-.65,1.75-.92.34.06.76.06.91.44.02.33.21.61.36.88-.28.15-.52.39-.37.7.16.28.49.11.73.02,2.42-.82,4.81-1.81,7.14-3,.98-.49,2-.89,2.95-1.49.64-.32,1.32-.67,1.61-1.43.21-.27.61-.56.53-.93.42-.59.65-1.11.35-1.76-.02-.08.05-.15.06-.22.03-.24.06-.46.16-.69.31-.62.9-1.04,1.39-1.46.07-.12.07-.28,0-.38-.44-.45-1.91,1.24-2.12,1.75-.41.57-.18,1.26-.02,1.83-.01.21-.24.34-.31.55-.12.4-.37.54-.66.83-.3.63-.88.84-1.42,1.13-.68.44-1.41.75-2.1,1.13-1.87.93-3.68,1.95-5.6,2.68-.59.05-1.19.33-1.78.53,0-.27-.25-.47-.35-.71-.02-.25-.17-.46-.28-.66-.41-.43-1.07-.3-1.61-.24-.52.02-.9.44-1.33.73-.01-.02-.02-.03-.03-.05-.1.08-.19.16-.27.25-.26.17-.5.35-.64.64,0,0,0-.01.02-.02-.07.09-.08.22,0,.3,0,0,.01.01.02.02-.19.93-.34,1.83-.44,2.77-.04,1.02.49,1.83.77,2.73-.18.27-.04.63.1.88.23.43.72.45,1.09.68Z"/>
      <path class="cls-7" d="M15.48,68.41c-1.13-.85-1.95-2.09-3.15-2.87-.39-.31-.65-.74-.96-1.14-.48-.64-1.05-1.18-1.52-1.83-.53-.96-1.25-1.72-1.97-2.52-.59-.94-1.2-1.87-1.74-2.87-.4-.8-.69-1.67-1.19-2.41-.55-1.3-1.49-2.31-1.99-3.65-.25-.98-.47-1.98-.62-2.99-.14-.99-.32-2.05.09-3.03.2-.05.45.04.63-.06,1.78,2.56,3.41,5.26,4.67,8.11.02.01.04.03.05.05.03.06.06.12.09.18,0,0,0,0,0,0,0,0,0,.01,0,.01.33.51.49,1.1.72,1.66,0,0,0-.01,0-.02.25.49.37,1.04.64,1.52,0,0,0,0,0,0,.11.26.22.53.33.8,0,0,0,0,0,0,0,0,0,0,0,0t0,0s0,0,0,0h0c.28.4.39.91.65,1.33.25.35.39.78.63,1.14.39.42.59.99.91,1.46.44.62.79,1.31,1.15,1.98,1.07,1.63,2.5,2.91,3.71,4.38,0,0,0,0,0,0,0,0,.01.01.02.02,0,0,0,0,0-.01.88,1.01,1.67,2.1,2.64,3-2.04,0-2.07-.7-3.8-2.24Z"/>
      <path class="cls-7" d="M23.96,62.22c-.08-.07-.13-.18-.19-.27,0,0,0,0,0,0-.08-.24-.11-.51-.21-.74-.31-.67-.59-1.36-.6-2.15,0-.18.02-.36.04-.54,0,0,0,0,0,0,0,0,0,0,0,0,.04-.38.11-.75.15-1.13.03-.09.06-.18.1-.27-.03-.2-.03-.4.03-.6.03-.11.07-.21.13-.3.06-.03.11-.07.15-.12.05-.04.1-.08.15-.12.17-.09.35-.18.52-.27.02,0,.04,0,.05,0-.02,0-.03,0-.05,0,.11-.06.22-.12.32-.18.23-.11.47-.24.71-.33.01,0,.03-.01.04-.02.13.02.27.03.39.07.23.04.43.13.52.37.01.32.2.59.34.86,0,0,.01.02.02.03-.28.15-.52.39-.37.7.15.26.45.13.68.04.02.05.03.11.04.16.16-.08.31-.17.47-.25.16-.09.32-.18.49-.27.02,0,.03-.01.05-.02.28-.11.57-.19.85-.31.26-.08.51-.19.75-.27,1.48-.62,2.96-1.26,4.41-2,.05-.02.1-.04.14-.06.43-.2.86-.39,1.29-.6.07-.04.15-.08.22-.13.49-.23.97-.48,1.43-.77.43-.26.93-.42,1.27-.85.15-.17.24-.38.34-.58.2-.25.51-.48.54-.81,0-.04,0-.08-.01-.12.12-.18.23-.37.34-.56.08-.13.12-.26.14-.39.01-.01.02-.02.03-.03.01-.01.03-.03.04-.04-.05-.14-.08-.28-.1-.44,0,.03,0,.06,0,.08-.03-.22-.04-.44.07-.65.15-.31.41-.52.71-.57.06-.11.13-.2.21-.27.04-.06.09-.11.15-.16.28-.24.67-.26.92-.04.11.1.19.23.27.36.07.11.14.22.21.33.14.21.26.44.38.67.23.45.31.99.48,1.47,0,.01,0,.02.01.03.22.27.42.59.53.94.01.03.02.07.03.11.05.08.1.17.14.26.13.25.21.52.26.8.04.2.06.41.1.61.02.05.03.11.03.17,0,.01,0,.03,0,.04-.48.5-.97,1.64-1.22,2.01-.16.27-.35.53-.53.78-.14.16-.29.31-.43.47-.04.08-.08.16-.13.24-.38.34-.79.64-1.18.95-1.19,1.12-2.64,1.67-4.07,2.2-.59.24-1.11.54-1.67.83,0,.02,0,.03,0,.04-2.76,1.2-5.58,2.25-8.47,2.61-.5-.15-.95-.41-1.46-.53-.29-.17-.63-.36-.99-.44Z"/>
      <path class="cls-7" d="M40.52,47.61s0,0,0,0c0,0,0,0,0,0,0,0,0,0,0,0Z"/>
      <path class="cls-7" d="M33.21,61.28c.56-.22,1.11-.46,1.66-.7,0-.01,0-.03,0-.04,1.87-1.11,4.08-1.43,5.74-3.03,1.06-.71,1.89-1.65,2.51-2.83.47-.13.78.34.43.78-.35.64-.98.93-1.55,1.23-.21.12-.36.34-.49.54-.4.52-.96.86-1.43,1.3-1.21,1.24-2.83,1.69-4.29,2.38-.84.36-1.85,1.1-2.59.36Z"/>
      <path class="cls-7" d="M23.96,62.22c-.08-.07-.13-.18-.19-.27,0,0,0,0,0,0-.08-.24-.11-.51-.21-.74-.03-.05-.05-.11-.07-.16.06-.04.12-.08.19-.11.3-.12.55-.11.83-.03.17.04.33.08.5.14,0,0-.02,0-.02,0,0,0,.02,0,.03,0,.02,0,.03.01.05.02-.02,0-.03-.01-.05-.02.16.03.32.06.48.08.14,0,.29,0,.43-.02,0,0-.01,0-.02,0,.18-.02.36-.03.54-.04.3-.01.6,0,.91-.02.21-.03.42-.07.62-.12.23-.06.46-.13.69-.2.35-.1.69-.19,1.04-.32.34-.16.67-.35,1.02-.5.41-.17.82-.32,1.23-.45.41-.13.82-.28,1.22-.43.39-.14.79-.28,1.18-.43.53-.22,1.06-.42,1.59-.62.25-.11.49-.23.74-.36.3-.18.6-.35.91-.52.26-.14.52-.27.77-.41.27-.16.53-.31.8-.47.32-.18.64-.33.96-.5.04-.04.07-.07.11-.11.05-.09.1-.18.17-.27.07-.08.14-.16.21-.23.05-.07.09-.14.15-.21.07-.08.14-.15.21-.23.07-.08.13-.16.2-.24.29-.59.91-1,1.5-.92.33.04.64.23.83.51-.24.43-.45.87-.59,1.07-.27.46-.61.86-.9,1.3-.43.42-.92.77-1.38,1.13-1.19,1.12-2.64,1.67-4.07,2.2-.59.24-1.11.54-1.67.83,0,.02,0,.03,0,.04-2.76,1.2-5.58,2.25-8.47,2.61-.5-.15-.95-.41-1.46-.53-.29-.17-.63-.36-.99-.44Z"/>
      <path class="cls-7" d="M25.11,61.06s-.07-.01-.1-.02c-.02,0-.04-.02-.07-.02.05.02.11.03.17.04Z"/>
      <path class="cls-7" d="M25.01,61.04s0,0,0,0c0,0,0,0,0,0,0,0,0,0,0,0,0,0,0,0,0,0Z"/>
      <path class="cls-7" d="M11.4,57.92c-.52-.89-.91-1.86-1.32-2.83-.41-.86-.93-1.64-1.31-2.53-.25-.66-.55-1.23-.89-1.8-.05-.08-.11-.15-.16-.23-.18-.25-.35-.51-.52-.77-.08-.13-.16-.25-.25-.38-.01-.02-.03-.04-.04-.06-.01-.01-.02-.03-.03-.04-.09-.15-.18-.3-.28-.42-.35-.58-.6-1.22-1.02-1.76-.42-.77-.86-1.53-1.3-2.3-.03-.05-.05-.1-.08-.16-.05-.09-.1-.17-.15-.25-.17-.3-.34-.6-.5-.91,0,0,0,0,0,0-.25-.58-.46-1.19-.79-1.73-.47-1-.97-2.01-1.3-3.09-.23-1-.35-2.04-.41-3.08.05-1.7.45-3.32.9-5.01.34-1.29,1.26-2.22,2.18-3.02,1.52-1,2.93-2.32,4.56-3.08,1.18-.32,2.32-.8,3.44-1.37.77-.32,1.59-.37,2.38-.57,1.37-.4,2.6-.71,4.03-1.01.93-.27,1.82-.72,2.77-.81.93-.1,1.84-.4,2.71-.84.79-.3,1.62-.37,2.41-.67,1.72-.94,3.59-1.27,5.3-2.26.92-.67,1.93-1.03,2.93-1.5,1.2-.66,2.33-1.46,3.49-2.22.73-.38,1.5-.63,2.26-.88.01.15,0,.31-.06.47-.17.57-.63,1.03-1.02,1.39-.46.43-.99.77-1.51,1.1-.48.3-.96.59-1.45.88-1.77,1.04-3.58,1.96-5.44,2.6-.95.32-1.91.6-2.86.91-.03,0-.06.02-.09.03-.12.15-.27.27-.44.33-.5.17-.99.32-1.49.47-.56.18-1.12.37-1.68.51.04-.01.08-.02.12-.03-1.07.29-2.13.54-3.2.79,0,0-.02,0-.03,0-.54.19-1.08.36-1.62.58-.63.5-1.25,1-1.86,1.52-1.09.94-2.18,1.88-3.2,2.92,0,0,0,0,.01-.01,0,0-.01.01-.02.02-.02.02-.05.05-.07.07.02-.02.03-.03.05-.05-.11.11-.21.22-.32.34-.19.23-.38.46-.56.7-.74.98-1.43,2-2.07,3.06-.24.41-.48.83-.71,1.25-.19.34-.38.68-.54,1.03-.14.3-.28.61-.42.91-.32.68-.64,1.36-.95,2.04-.24.56-.47,1.11-.69,1.67-.1.52-.17,1.05-.22,1.57-.04.57-.04,1.14-.03,1.7.06,1.15.25,2.26.38,3.39.06.53.12,1.05.17,1.57.07.37.15.75.24,1.12.19.78.37,1.56.55,2.34.1.43.2.86.3,1.28.09.33.19.65.28.98.29.96.67,1.87,1.05,2.78.28.61.56,1.21.84,1.82.15.32.3.65.45.97.14.3.31.59.46.89.33.64.66,1.28.94,1.94.28.64.55,1.29.82,1.93.16.32.31.64.47.96.03.06.06.12.09.19-1.31-1.71-2.71-3.37-3.73-5.34Z"/>
      <path class="cls-7" d="M14.59,26.81s0,0,0,0c0,.01-.02.02-.03.03,0,0,.01-.02.02-.02Z"/>
    </g>
    <g id="Vector_layer-4" data-name="Vector layer">
      <path class="cls-1" d="M41.02,32.29c-.08-.04-.16-.07-.24-.11.03-.19.05-.37.06-.56.06-.85.14-1.72.33-2.58.48-1.74,1.29-3.38,1.84-5.12.53-1.61.95-3.3,1.18-4.98.02-.94-.23-1.82-.3-2.75-.19-.75-.67-1.31-.96-2-.19-.69-.56-1.24-1.07-1.64-.24-.18-.5-.32-.75-.48-.19-.03-.28-.34-.13-.54.1-.14.26-.17.37-.1.41.01.81.15,1.14.39.4.29.79.61,1.09,1.03.19.39.36.79.61,1.14.39.6.86,1.19.98,1.98.05.52.13,1.04.22,1.55.23,1.15-.08,2.36-.45,3.51-.2.88-.43,1.75-.69,2.62-.54,2.07-1.66,3.95-2.11,6-.13,1.02-.2,2.04-.3,3.04-.27-.14-.55-.27-.82-.4Z"/>
      <path class="cls-1" d="M5.38,48.39c-.87-1.05-1.52-2.3-2.35-3.4-.59-.77-.8-1.78-1.3-2.62-.52-1.23-1.07-2.44-1.38-3.78-.11-.81-.25-1.62-.31-2.45-.15-1.63.28-3.27.63-4.88.22-.84.46-1.7.89-2.45.48-.77,1.12-1.4,1.74-2.03,1.57-1.21,3.12-2.6,4.83-3.55.53-.26,1.23-.44,1.72-.65.72-.31,1.39-.75,2.11-1.07,1.39-.48,2.83-.65,4.22-1.17,1.34-.27,2.66-.62,3.98-1.13.72-.21,1.5-.21,2.22-.41.85-.25,1.67-.66,2.55-.72.78-.09,1.55-.33,2.3-.69,1-.4,2.03-.58,3.03-1.02.67-.24,1.28-.67,1.91-1.06.66-.43,1.37-.64,2.05-.97,1.2-.66,2.29-1.59,3.48-2.26.86-.4,1.79-.57,2.68-.63.32,0,.66-.29.8.16.08.3-.19.66-.45.6-.86.28-1.73.55-2.56.98-1.16.76-2.3,1.56-3.49,2.22-1,.47-2.01.83-2.93,1.5-1.71,1-3.58,1.33-5.3,2.26-.79.31-1.62.37-2.41.67-.87.44-1.78.74-2.71.84-.95.09-1.85.54-2.77.81-1.43.3-2.66.61-4.03,1.01-.79.2-1.61.25-2.38.57-1.12.57-2.26,1.05-3.44,1.37-1.64.76-3.04,2.08-4.56,3.08-.92.8-1.84,1.73-2.18,3.02-.45,1.68-.85,3.31-.9,5.01.06,1.05.19,2.08.41,3.08.33,1.09.83,2.09,1.3,3.09.33.54.54,1.15.79,1.73,0,.02,0,.04,0,.06,0,.06.03.1.08.12.05.1.09.21.15.31.06.11.14.21.21.32,0,0,0,0,0-.02.08.12.16.25.23.38.09.19.18.37.28.56,0,0,0-.01,0-.02.02.04.04.07.06.11,0,0,0,0,0,0,0,0,0,0,0,0,0,0,0,0,0,0,.07.13.14.25.21.37.07.12.14.23.2.35,0,0,0,0,0,0,0,0,0,0,0,0,0,0,0,0,0,0,.08.16.16.31.22.48.06.15.13.28.21.41.09.15.18.31.27.46.08.13.17.26.25.39.06.11.12.22.17.33.05.09.09.18.14.27,0,.01.02.03.03.04-.18.19-.45.24-.66.14-.07-.03-.13-.08-.19-.14Z"/>
      <path class="cls-1" d="M3.6,43.63s0,0,0,.01c0,0,0,0,0-.01Z"/>
      <path class="cls-1" d="M44.77,17.32c-.1-.45.07-1,.16-1.44.05-.67.2-1.33.21-1.98-.13-1.51-.28-3.04-.83-4.38-.27-.57-.48-1.24-.86-1.7-.93.62-1.43,1.89-2.31,2.57-.99.9-2.05,1.79-3.18,2.34-.28.02-.38-.44-.14-.64,1.62-1.09,2.98-2.61,4.25-4.24.29-.35.63-.62.99-.86.19-.16.41-.29.63-.25,1.16.42,1.41,2.08,1.69,3.32.24,1.4.6,2.84.45,4.31-.1.83-.38,1.88-.46,2.61.14.5-.47.88-.6.34Z"/>
      <path class="cls-1" d="M38.66,49.97c.08-.21.3-.34.31-.55-.11-.43-.27-.83-.2-1.31.05-.23.14-.35.22-.51.21-.51,1.68-2.2,2.12-1.75.08.1.08.25,0,.38-.48.43-1.08.84-1.39,1.46-.05.14-.11.28-.13.43,0,.09,0,.17-.02.26-.02.07-.08.14-.06.22.14.37.23.8,0,1.2-.25.44-.52.84-.78,1.26-.09-.03-.2-.03-.3.01-.15.06-.3.12-.44.17.24-.41.49-.82.67-1.26Z"/>
      <path class="cls-1" d="M33.41,61.96c.16-.12.32-.24.48-.35.11-.07.22-.13.33-.2.12-.08.25-.16.35-.27.1-.11.19-.22.25-.36.03-.07.05-.15.06-.23.57-.29,1.08-.59,1.67-.83,1.44-.52,2.89-1.08,4.07-2.2.47-.37.96-.71,1.38-1.13.29-.44.63-.84.9-1.3.36-.51,1.17-2.53,1.77-2.22.17.11.18.4.03.56-.47,1.23-1.06,2.41-1.87,3.44-.41.54-1.02.81-1.55,1.18-.7.5-1.35,1.13-2.12,1.47-1.04.51-2.13.83-3.15,1.38-.79.44-1.56.89-2.4,1.18-.24.09-.47.17-.69.25.16-.12.32-.23.48-.35Z"/>
      <path class="cls-1" d="M23.01,55.98c.05-.28.27-.48.49-.66.03.06.08.11.13.15-.04.17,0,.35.09.48-.06.04-.11.08-.16.13-.11.14-.3.2-.42.14-.08-.03-.13-.11-.13-.25Z"/>
      <path class="cls-1" d="M22.85,61.62c-.36-.7-.65-1.49-.65-2.33.06-.7.19-1.32.29-2.01.09-.34.07-.74.28-1.04.24-.38.72.01.42.35.01.82-.2,1.64-.24,2.46.02.79.29,1.49.6,2.15.09.23.13.5.21.74-.07.04-.14.08-.21.12-.17.1-.34.19-.5.28-.08-.24-.13-.5-.21-.73Z"/>
      <path class="cls-1" d="M51.3,64.91c-.17-.17-.34-.33-.54-.47-.07-.05-.14-.1-.21-.14-.12-.1-.23-.2-.35-.3-.14-.12-.27-.25-.41-.37-.07-.06-.14-.13-.21-.2-.02-.03-.04-.06-.07-.09-.69-.82-1.09-1.86-1.66-2.78-.38-.61-.54-1.35-.84-2.01-.46-1.14-.85-2.33-1.18-3.55-.1-.79-.04-1.62,0-2.44.15-.04.28-.14.35-.29.03-.06.05-.13.07-.19.05-.14.11-.28.18-.42,0,0,0-.02.01-.03,0,.07,0,.15.02.21.02.97.2,1.9.27,2.85.19.87.49,1.69.61,2.58.26.84.52,1.69.8,2.5.31.66.71,1.26.97,1.96.74,1.25,1.72,2.35,3,2.94.16.06.22.27.16.45-.09.23-.26.3-.43.28-.19-.16-.37-.32-.55-.48Z"/>
      <path class="cls-1" d="M52.69,65.93c-.08-.05-.15-.1-.23-.16-.08-.05-.16-.11-.25-.15-.1-.06-.21-.12-.31-.19-.21-.17-.41-.35-.61-.53,0,0,0,0,0,0-.17-.17-.34-.33-.53-.47-.02-.02-.04-.03-.06-.05.35-.21.75-.02,1.15.18.23.11.45.22.65.24.76.36,1.61.46,2.49.43.81.06,1.63-.11,2.44-.44,1.51-.42,1.81-1.77,1.73-3.14-.09-1.86-.55-3.62-.81-5.45-.66-2.13-1.17-4.33-2.12-6.32-.85-2.51-1.72-5.06-3.02-7.34-1.37-2.35-2.37-5.04-4.12-7.12-1.18-1.47-2.04-3.25-2.92-5-.67-1.16-1.07-2.5-1.62-3.75-.36-.97-.29-2.14-.72-3.09-.07-.18,0-.42.18-.53.7-.48.95,2.46,1.15,2.91.98,2.41,2.17,4.62,3.34,6.84.76,1.45,1.84,2.6,2.7,3.94,1.33,2.09,2.53,4.26,3.68,6.44.29.79.67,1.53.99,2.3.4,1.19.74,2.33,1.1,3.5.77,1.72,1.29,3.56,1.77,5.41.33.83.55,1.7.64,2.62.36,1.57.67,3.16.75,4.81.09,1.07-.34,2.15-1.11,2.99-.22.26-.52.36-.8.5-.33.16-.6.43-.91.62-.67.45-1.56.66-2.5.69.05-.02.1-.03.14-.05.06-.02.11-.09.09-.16-.01-.04-.04-.06-.07-.07,0-.02-.03-.04-.05-.04-.03,0-.06,0-.09,0-.03,0-.06.02-.09.02-.06.01-.11.03-.17.04-.01,0-.03,0-.04,0-.02,0-.03,0-.05,0-.03,0-.05,0-.08,0-.01,0-.02-.01-.04-.01-.07-.02-.15-.03-.22-.04-.11-.02-.21-.04-.32-.05,0,0,0,0-.01,0-.07-.02-.15-.02-.22-.02-.05,0-.1-.01-.15-.02-.12-.02-.25-.05-.37-.08-.03,0-.07-.02-.1-.02-.1-.06-.18-.13-.28-.2Z"/>
      <path class="cls-1" d="M51.3,64.91c-.17-.17-.34-.33-.54-.47-.07-.05-.14-.1-.21-.14-.12-.1-.23-.2-.35-.3-.14-.12-.27-.25-.41-.37,0,0,0,0,0,0-.02-.2.03-.36.17-.45.15-.09.34-.07.42.09.12.07.21.21.16.37.25.52.57.93.94,1.34.05.06.08.12.09.19-.09-.08-.17-.15-.26-.23Z"/>
      <path class="cls-1" d="M23.59,74.38c-1.32-.96-2.55-2.03-3.71-3.21-1.26-.97-2.2-2.3-3.25-3.51-.7-.91-1.55-1.67-2.3-2.54-.45-.57-.9-1.15-1.35-1.73-.01-.02-.02-.04-.03-.05,0-.02-.01-.03-.02-.05,0-.01-.01-.03-.02-.04-.02-.05-.04-.1-.07-.15-.02-.04-.04-.09-.07-.13-.06-.1-.13-.19-.2-.29,0-.02-.02-.03-.03-.05-.04-.09-.07-.17-.11-.26-.05-.09-.09-.18-.14-.27-.04-.08-.1-.15-.15-.23-.06-.1-.11-.2-.17-.3-.05-.09-.12-.16-.18-.25,0,0-.01-.02-.02-.03-.08-.13-.17-.25-.24-.38-.05-.09-.09-.19-.13-.28-.04-.08-.08-.15-.12-.23,0,.01.01.02.02.03-.07-.12-.14-.23-.22-.33-.07-.09-.14-.17-.21-.26-.07-.11-.14-.23-.2-.35-.03-.06-.06-.13-.1-.19-.03-.07-.06-.14-.1-.21-.07-.13-.15-.26-.23-.38t0,0s0,0,0,0c0,0,0,0,0,0-.08-.14-.15-.28-.22-.42,0,0,0,.02.01.02-.08-.16-.14-.33-.2-.5-.04-.09-.08-.17-.13-.24-.04-.06-.08-.12-.11-.18t0,0s0,0,0,0h0s0,0,0,0c0,0,0,0,0,0,0,0,0,0,0,0,0,0,0,0,0,0h0s0,0,0,0c0,0,0,0,0,0h0s0,0,0,0c0,0,0,0,0,0,0,0,0,0,0,0,0,0,0,0,0,0-.03-.05-.04-.1-.06-.15,0,0,0,.01,0,.02-.04-.1-.07-.2-.11-.29-.04-.1-.09-.2-.13-.3,0,0,0,.01,0,.02-.01-.03-.02-.05-.03-.08,0,0,0,0,0,0-.06-.15-.14-.29-.23-.43,0,0,0,.01,0,.02-.01-.03-.03-.05-.04-.08-.01-.03-.02-.07-.03-.1,0,0,0,.01,0,.02-.05-.16-.09-.32-.15-.47-.07-.16-.14-.32-.21-.47,0,0,0,.01,0,.02-.06-.13-.12-.26-.17-.4-.04-.13-.06-.28-.11-.4-.05-.11-.1-.23-.16-.33-.05-.09-.09-.19-.15-.28-.05-.08-.09-.16-.13-.24h0s0,0,0,0c0,0,0,0,0,0t0,0s0,0,0-.01c0,0,0,0,0,0-.03-.06-.06-.12-.09-.18-.01-.02-.03-.04-.05-.05-.03-.08-.06-.16-.09-.24-.06-.15-.11-.29-.18-.43,0,0,0,.01,0,.02-.09-.18-.19-.33-.28-.51-.04-.08-.08-.15-.11-.23-.03-.07-.06-.13-.1-.2-.16-.35-.34-.68-.53-1.01-.02-.06-.04-.11-.06-.17-.05-.11-.11-.21-.17-.31-.07-.12-.13-.25-.21-.37-.08-.11-.15-.22-.22-.34-.05-.09-.11-.18-.16-.27,0,0,0,.01.01.02-.15-.25-.25-.53-.41-.76-.06-.08-.12-.16-.18-.24-.08-.23-.15-.47-.26-.68-.07-.61.61-.67.78-.13.28.8.85,1.37,1.34,2.01.01.02.03.04.04.06.08.13.16.25.25.38.17.26.34.52.52.77.05.08.11.15.16.23.34.57.64,1.14.89,1.8.38.89.9,1.67,1.31,2.53.41.96.8,1.93,1.32,2.83,1.14,2.22,2.77,4.04,4.2,5.97,1.08,1.17,2.12,2.35,3.11,3.6,1.09,1.53,2.55,2.65,3.8,3.99.85.74,1.76,1.41,2.63,2.12.5.34,1.15.32,1.74.44.57.12,1.55.22,1.32,1.07-.35.91-1.32.33-1.96.33-.55-.04-1.09-.15-1.58-.36-.39-.17-.75-.4-1.07-.71Z"/>
      <path class="cls-1" d="M9.58,57.36s0,0,0,0c0,0,0,0,0,0Z"/>
      <path class="cls-1" d="M9.58,57.36s0,0,0,0c0,0,0,0,0,0,0,0,0,0,0,0Z"/>
      <path class="cls-1" d="M9.58,57.36s0,0,0,0c0,0,0,0,0,0,0,0,0,0,0,0,0,0,0,0,0,0Z"/>
      <path class="cls-1" d="M9.57,57.36s0,0,0,0c0,0,0,0,0,0Z"/>
      <path class="cls-1" d="M7.89,53.41h0s0,0,0,0c0,0,0,0,0,0Z"/>
      <path class="cls-1" d="M7.89,53.41h0s0,0,0,0h0s0,0,0,0Z"/>
      <path class="cls-1" d="M12.57,62.67s0,.01.01.02c0,0,0-.01-.01-.02Z"/>
      <path class="cls-1" d="M12.55,62.63s0,.01,0,.02c0,0,0-.01,0-.02Z"/>
      <path class="cls-1" d="M11.52,60.9s0,.01.01.02c0,0,0-.01-.01-.02Z"/>
      <path class="cls-1" d="M16.64,67.67s0,0,0,.01c0,0,0,0,0-.01Z"/>
      <path class="cls-1" d="M16.62,67.65s0,0,0,0c0,0,0,0,0,.01,0,0-.01-.01-.02-.02Z"/>
      <path class="cls-1" d="M16.62,67.65s0,0,0,0c0,0,0,0,0,0,0,0,0,0,0,0Z"/>
      <path class="cls-1" d="M16.62,67.64s0,0,0,0c0,0,0,0,0,0Z"/>
      <path class="cls-1" d="M26.2,75.12c.16-1.15,1.71-.55,2.42-.59,1.93-.01,3.9-.16,5.82-.69,4.06-1,8.08-2.44,12.12-3.82,1.77-.6,3.54-1.22,5.29-1.94,1.49-.56,3-1.29,4.29-2.35.19-.14.15-.44.4-.51.15-.05.29.04.31.2,0,.46-.46.83-.79,1.11-2.03,1.65-4.39,2.55-6.68,3.44-3.04,1.1-6.08,2.1-9.1,3.14-3.59,1.13-7.18,2.58-10.85,2.73-.92.14-1.83.07-2.72-.05-.31-.04-.54-.31-.52-.65Z"/>
      <path class="cls-1" d="M53,68.33c-.11-.18-.06-.48.14-.62.76-.56,1.63-.9,2.37-1.51-.68-.11-1.38-.18-2.03-.4-.96-.34-1.59-1.19-2.39-1.77-.94-.58-1.53-1.58-2.24-2.43-.56-.64-.93-1.44-1.28-2.24-.38-.62-.68-1.31-.92-2.01-.17-.44-.33-.89-.51-1.31,0-.07-.02-.13,0-.21.47-.81.86.84,1.06,1.13.52,1.22,1.19,2.34,1.84,3.45.91,1.04,1.69,2.21,2.79,3.03.78.7,1.44,1.65,2.57,1.79.73.09,1.49.3,2.25,0,.51-.05,1.13-.98,1.49-.33.09.24,0,.47-.15.66-.03,0-.06,0-.09.02-.05.03-.1.07-.15.1-.09.06-.17.12-.26.18-.07.05-.14.1-.22.15-.04.02-.08.05-.12.08-.21.13-.41.26-.62.38-.08.04-.16.08-.24.13,0,0,0,0,0,0,0,0,0,0,0,0,0,0,0,0,0,0,0,0,0,0,0,0,0,0,0,0,0,0-.24.13-.47.27-.7.41-.03.02-.05.05-.05.08-.08.06-.16.11-.24.17,0,0,0,0,0,0-.09.06-.18.13-.27.19h0s0,0,0,0c0,0,0,0-.01,0,0,0,0,0,.01,0,0,0,0,0-.01,0-.06.04-.12.08-.18.12-.02.01-.04.02-.06.03,0,0,0,0,0,0-.02,0-.04.02-.06.03,0,0,0,0,.01,0-.02.01-.04.02-.06.03,0,0,0,0,.01,0-.03.01-.05.03-.07.04,0,0,0,0,.01,0-.01,0-.03.01-.04.02,0,0,0,0,.01,0,0,0,0,0-.01,0-.13.07-.26.13-.39.2t0,0c-.37.19-.74.38-1.11.56-.04-.02-.08-.06-.11-.1Z"/>
      <path class="cls-1" d="M2.86,44.72c.05-.11.16-.15.26-.1.1.04.13.18.08.29-.05.11-.16.15-.26.1-.1-.04-.13-.18-.08-.29Z"/>
      <path class="cls-1" d="M17.36,71.39s.01,0,.02,0c-.04-.02-.08-.04-.12-.06,0,0,.01,0,.02,0-.08-.03-.15-.07-.23-.1-.03-.01-.06-.03-.09-.04,0,0,0,0,0,0-.61-.29-1.07-.78-1.59-1.2-1.05-.67-2.05-1.41-2.83-2.42-.57-.6-1.33-.98-1.82-1.68-.66-.98-1.51-1.8-2.12-2.83-.42-.89-1.18-1.48-1.73-2.26-.64-1.08-1.34-2.13-1.91-3.26-.35-.8-.73-1.57-1.15-2.33-.59-1.38-1.6-2.55-1.84-4.12-.24-1.88-.91-3.85-.43-5.8.18-.78.56-1.23,1.32-1.01.38-.29.75.31.38.62-.18.31-.51.14-.77.21-.41.97-.23,2.03-.09,3.03.14,1.01.37,2.01.62,2.99.5,1.34,1.44,2.35,1.99,3.65.5.74.79,1.61,1.19,2.41.53.99,1.14,1.93,1.74,2.87.71.79,1.44,1.56,1.97,2.52.47.65,1.05,1.19,1.52,1.83.3.39.57.83.96,1.14,1.2.78,2.01,2.02,3.15,2.87,1.92,1.71,1.7,2.39,4.63,2.22,0,0,0,0,0,0,.4,0,.54.55.23.83-.16.15-.38.16-.57.17-.3,0-.6.07-.9.07-.19.08-.41.03-.59-.02-.06,0-.12,0-.18,0-.06-.01-.12-.03-.18-.05,0,0,0,0,0,0,0,0-.01,0-.01,0,0,0,0,0,0,0,0,0,0,0,0,0-.1-.03-.19-.07-.29-.11-.09-.04-.18-.08-.27-.12Z"/>
      <path class="cls-1" d="M27.77,56.58s-.03-.02-.04-.02c0,0,.02,0,.02-.01.14-.09.27-.19.41-.29.08-.06.16-.11.23-.17.09-.07.19-.14.27-.22.02-.02.04-.04.07-.06.01-.01.03-.02.04-.03,0,0,0,0,0,0,.38-.12.75-.29,1.09-.43,1.56-.7,3.08-1.51,4.62-2.29.7-.38,1.43-.69,2.1-1.13.53-.3,1.12-.5,1.42-1.13.2-.23.37-.33.57-.5.05-.08.13-.15.23-.17.21-.05.39.13.38.35-.03.33-.35.57-.54.81-.11.2-.2.41-.34.58-.33.43-.83.59-1.27.85-.95.6-1.97,1-2.95,1.49-1.49.77-3.02,1.43-4.54,2.07-.5.17-1.04.43-1.55.4-.05,0-.09-.02-.13-.03-.03-.01-.07-.03-.1-.05Z"/>
      <path class="cls-1" d="M28.02,56.36s.09-.07.14-.1c.08-.06.16-.11.23-.17.09-.07.19-.14.27-.22.02-.02.04-.04.06-.05,0,.01,0,.03,0,.04.05.4-.36.67-.64.55-.02-.01-.05-.02-.07-.04Z"/>
      <path class="cls-1" d="M24.18,63.6s0,0,0,0c0,0,0,0-.02-.01,0,0,.01,0,.02.01,0,0,.01,0,.02.01-.37-.25-.89-.26-1.13-.71-.16-.29-.31-.71,0-.99.17-.15.43-.19.6-.06.15.09.18.27.31.37.36.08.69.27.99.44.51.13.96.39,1.46.53,3.52-.43,6.93-1.9,10.28-3.41.16-.34.7-.23.64.15-.02.2-.2.31-.35.4-.36.21-.75.35-1.1.57-1.59.86-3.25,1.86-4.93,2.34-.84.26-1.67.56-2.53.7,0,0,0,0,0,0h.02c-.85.13-1.74.58-2.58.34-.54-.27-1.16-.37-1.68-.68h0Z"/>
      <path class="cls-1" d="M22.62,56.5c-.09-.08-.08-.22,0-.31-.01.01-.02.03-.03.05.2-.47.7-.67,1.07-.95.38-.28.73-.63,1.21-.64.22-.02.56-.12.6.19.02.14-.07.29-.2.34-.24.09-.48.22-.71.33-.48.29-1.03.5-1.48.84-.14.1-.31.28-.46.14Z"/>
      <path class="cls-1" d="M26.21,57.19c-.22-.47.41-.75.75-.87.61-.21,1.24-.47,1.86-.58.39,0,.47.55.1.74-.32.15-.66.24-.99.37-.33.12-.65.27-.99.36-.24.09-.57.26-.73-.02Z"/>
      <path class="cls-1" d="M26.56,56.46c-.13-.27-.32-.53-.34-.86-.09-.24-.29-.33-.52-.37-.16-.05-.34-.06-.5-.08-.26-.05-.2-.45.05-.52.41-.12.93-.04,1.23.26.11.21.26.41.28.66.09.2.25.38.33.57.13.35-.33.65-.52.34Z"/>
      <path class="cls-1" d="M45.79,53.05c-.14-.39-.17-.85-.18-1.27-.09-.3-.28-.54-.39-.84-.32-1.65-.93-3.19-1.77-4.57-.28-.83-.57-1.64-1.01-2.39-.28-.73-.55-1.47-.94-2.13-.29-.63-.4-1.37-.66-2.03-.16-.52-.09-1.12-.34-1.61-.33-.83-.15-1.84-.04-2.76,0-.74.2-1.5.39-2.23,0-.55.12-1.11.21-1.66,0-.34.33-.66.59-.45.32.34.06.95-.02,1.4-.06.91-.29,1.81-.27,2.7-.04.88-.17,1.77-.2,2.63.17.5.18,1.12.26,1.62.29.79.41,1.69.85,2.4.33.58.53,1.25.86,1.82.41.57.75,1.19.96,1.89.47.82.97,1.53,1.3,2.47.32.79.52,1.65.72,2.5.17.36.4.72.41,1.16-.01.37.08.7.12,1.05.05.52-.71.8-.86.31Z"/>
      <path class="cls-1" d="M40.3,36.74c.21-1,.1-1.99.31-3,.08-.89.15-1.83.49-2.69.2-.35.69-.2.63.2-.46,1.82-.44,3.63-.58,5.43-.01.66-.92.72-.85.05Z"/>
      <path class="cls-1" d="M41.23,41.54c-.5-1.07-.49-2.34-.59-3.56-.09-.51-.02-1.03.1-1.56,0-.51,0-1.1.16-1.59.15-.45.11-.91.2-1.36.13-.53.24-1.07.3-1.6-.05-.16,0-.36.15-.48.41-.28.6.24.51.63-.12.83-.2,1.65-.24,2.47-.17,1.21-.41,2.46-.2,3.61.13,1.04.22,2.08.49,3.07.08.55-.68.87-.87.37Z"/>
      <path class="cls-1" d="M44.43,47.59c-.8-1.53-1.61-3.06-2.48-4.57-.38-.57-.47-1.31-.67-1.98-.05-.2-.06-.4-.07-.61-.05-.12-.02-.28.1-.37.33-.22.45.24.49.5.2.65.47,1.28.66,1.93.41.88.83,1.72,1.28,2.54.37.81.89,1.44,1.25,2.25.15.38-.41.7-.57.33Z"/>
      <path class="cls-1" d="M7.54,52.22c-.58-.9-1.04-1.9-1.67-2.76-.1-.15-.19-.3-.29-.45-.11-.21-.2-.44-.34-.63-.06-.09-.13-.17-.19-.25-.01-.02-.03-.04-.04-.06-.04-.05-.07-.11-.11-.16-.25-.56-.5-1.13-.86-1.61-.32-.9-.78-1.74-1.25-2.56-.51-.43.21-1.23.58-.6.7,1.37,1.51,2.67,2.23,3.99.42.53.67,1.17,1.02,1.76.19.24.38.59.49.84.3.69.78,1.27,1.09,1.94.14.21.12.53-.1.68-.12.08-.25.09-.36.04-.07-.03-.13-.09-.18-.16Z"/>
    </g>
    <g id="Vector_layer-5" data-name="Vector layer">
      <path class="cls-8" d="M44.2,13.99c-.25-.34-.41-.75-.61-1.14-.62-.77-1.52-1.57-2.52-1.4-.17-.16-.44.02-.7.03-.19.01-.38.03-.57.06.46-.36.9-.75,1.33-1.14.89-.68,1.38-1.95,2.31-2.57,1.15,1.67,1.54,3.89,1.69,6.08,0,.47-.09.94-.15,1.42-.2-.49-.51-.91-.79-1.33Z"/>
      <path class="cls-8" d="M43.91,10.45c-.08-.06-.14-.14-.19-.24-1.58-.76-1-3.36.63-4.06.47-.21.97-.55,1.45-.34.71.36,1.09,1.38.93,2.33-.23,1.39-1.7,3.14-2.82,2.3Z"/>
      <path class="cls-8" d="M47.51,5.37c-.91-.82.29-2.73,1.33-2.57.54.11.73.8.84,1.37.25,1.5-1.42,1.9-2.17,1.2Z"/>
      <path class="cls-8" d="M50.79,2.19c-.5-1.42.05-1.85,1.25-1.95.27-.1.56-.2.83-.14.38.03.6.61.26.98-.35.32-.77.47-1.16.68.06.72-.99,1.03-1.18.43Z"/>
      <path class="cls-8" d="M50.46,2.25c-.18-.66.14-1.63.75-1.94.58-.24,1.28-.45,1.81-.17.97.84.38,2.44-.92,2.25-.26,1.32-1.45.76-1.64-.14Z"/>
      <path class="cls-8" d="M41.85,10.32c-.33-.3-.19-.9.14-1.22l.02-.06c.18-.54.1-1.2.36-1.7.25-.58.69-1.03,1.09-1.47.8-.72,2.35-1.09,2.65.2.14.54-.55.94-.75.44-.61-.08-1.21.29-1.54.97-.32.31-.22.71-.14,1.08.03.35.13.65.05,1.02-.14.47-.67.87-1.01.56-.22.33-.63.43-.88.2Z"/>
      <path class="cls-8" d="M44.14,12.36c-.57-.47.11-1.93.36-2.59.15-.51.39-.98.76-1.33-.01-.64.43-1.35,1.01-1.27,1.06.21.52,2.05-.28,2.52.02.15-.04.31-.14.42-.24.39-.51.76-.7,1.1-.24.33-.09.81-.42,1.09-.18.16-.4.17-.58.07Z"/>
      <path class="cls-6" d="M51.01,1.28s-.03-.14.03-.19c.48-.53,1.06-.99,1.69-.97.29.01.6.22.59.6,0,.16-.2.16-.18.01-.09-.63-.85-.37-1.24-.14-.28.17-.5.43-.74.67-.05.05-.11.05-.15,0Z"/>
      <path class="cls-6" d="M52.31,2.14c0-.16.15-.23.25-.24.18-.04.39-.16.48-.38,0,0,0,.01,0,.02,0,0,0,0,0,0,.13-.25-.08-.52.19-.65.25-.06.21.22.2.42-.01.47-.38.87-.76.94-.13.03-.34.09-.35-.12Z"/>
      <path class="cls-6" d="M52.06,1.7c-.14-.18-.27-.51-.07-.76.17-.23.49-.32.65-.11.28.38-.17,1.26-.58.86ZM52.29,1.33s.02,0,.02,0c.01-.03.02-.07.02-.1,0,0,0,0,0,0,0,0,0,0,0,0-.04-.02-.07-.05-.08-.09-.01.01-.02.02-.03.04.01.07.04.11.07.16Z"/>
      <path class="cls-6" d="M52.16,1.39c-.19-.18.08-.59.28-.44.25.18-.06.7-.28.44Z"/>
      <path class="cls-6" d="M50.83,2.76c-.2-.17-.45-.37-.42-.72,0-.11.03-.29.15-.27.16.04.02.28.08.4.08.15.2.26.32.34.05.03.06.12.02.19-.04.07-.11.09-.16.06Z"/>
      <path class="cls-6" d="M47.48,4.18c-.02-1.73,1.85-2.14,2.11-.53.05.14.05.4-.1.48-.07.04-.14-.05-.1-.13-.07-.25-.23-.55-.42-.69-.26-.1-.71-.06-.85.32-.06.17-.05.35-.06.53-.04.45-.62.47-.58.02Z"/>
      <path class="cls-6" d="M48.61,4.27c-.27-.24.05-.69.34-.54.12.05.18.29.04.4-.05.21-.27.24-.38.14Z"/>
      <path class="cls-6" d="M42.49,7.29c.35-1.19,1.49-2.14,2.5-2.17.1.01.23,0,.23.15,0,.13-.12.23-.21.18-.77.06-1.57.67-2.02,1.45-.08.16-.14.32-.18.48-.08.26-.41.16-.32-.1Z"/>
      <path class="cls-6" d="M46.15,6.38c-.12-.19-.19-.49-.38-.6-.06-.02-.1-.1-.07-.18.23-.4.54.44.67.61.09.16-.14.33-.21.17Z"/>
      <path class="cls-6" d="M46.54,8.77c.08-.46.22-.96.12-1.4-.03-.19-.34-.35-.14-.57.12-.1.21.02.25.13.11.17.19.36.19.59.02.42-.08.85-.17,1.28-.02.08-.08.14-.15.13-.07,0-.11-.08-.09-.16Z"/>
      <path class="cls-6" d="M45.61,8.53c-.03-.19-.02-.4-.05-.59-.03-.2-.11-.42-.03-.63.12-.3.65-.28.59.08.09.34.31.91-.09,1.16-.14.08-.37.23-.42-.01Z"/>
      <path class="cls-6" d="M45.86,8.58c-.08-.1,0-.22.06-.31.07-.22.08-.47.06-.67-.02-.09-.04-.16-.09-.22-.08-.15.13-.29.2-.14.24.21.25,1.6-.23,1.35Z"/>
      <path class="cls-6" d="M45.93,8.54c0-.19.26-.22.24-.03-.01.17-.24.19-.24.03Z"/>
      <path class="cls-6" d="M43.89,10.52c-.15-.09-.29-.19-.45-.25-.08-.05-.2-.07-.21-.19.02-.26.27-.2.41-.21.41-.04.74.24,1.13.21.19-.01.4-.09.59-.09.12.02.07.2-.04.23,0,.12-.06.26-.15.33-.08.05-.15.02-.23.04-.37.12-.73.09-1.06-.07Z"/>
      <path class="cls-6" d="M42.98,10.74c-.36-.32-.24-.65.23-.5.13.03.34.22.13.35.17.26-.26.27-.36.15Z"/>
      <path class="cls-6" d="M43.29,10.75c-.12-.1.03-.3.12-.16,0,0,0,0,0,0,0,0,0,0,0,0,0,0,0,0,0,0,0,0,0,0,0,0,.11.07-.04.28-.12.16Z"/>
      <path class="cls-6" d="M45.03,10.57c0-.09.06-.16.12-.18,0,0,0,0,0,0,.1-.04.05-.21.11-.28.22-.25.26.18.18.36-.06.19-.39.36-.42.11Z"/>
      <path class="cls-6" d="M44.91,11.52c.33-.87,1.03-1.48,1.38-2.34.03-.08.11-.11.17-.08.05.03.06.1.03.16-.19.62-.62,1.11-.96,1.64-.15.24-.28.49-.4.74-.03.07-.11.09-.16.07-.06-.03-.09-.12-.05-.19Z"/>
      <path class="cls-6" d="M44.84,12.94c-.05-.48-.03-1.02.16-1.5.37-.82.93-1.51,1.34-2.31.08-.16.15-.31.18-.49.02-.14.14-.29.24-.17.03.04.03.1.01.15-.06.32-.15.62-.31.9-.37.53-.68,1.1-1,1.65,0,0,0,0,0-.01-.23.42-.37.91-.43,1.38-.03.15.05.42-.11.49-.05,0-.09-.03-.09-.09Z"/>
      <path class="cls-6" d="M44.93,14.5c.04-.26.02-.87-.03-1.07-.02-.04,0-.09.03-.12.26-.12.2.99.16,1.19-.01.12-.18.13-.16,0Z"/>
      <path class="cls-6" d="M44.83,12.34c-.07-.32-.06-.69.15-.98.03-.03.07-.03.09-.01.03.02.04.07.02.11-.03.13-.07.25-.08.38,0,.14.03.26.06.39.04.18-.2.29-.24.11Z"/>
      <path class="cls-6" d="M42.83,9.57c-.27-.28.21-.66.38-.34.12.25-.21.52-.38.34Z"/>
      <path class="cls-6" d="M42.35,9.56c.03-.07.11-.12.16-.09.06.03.09.11.06.18-.03.07-.11.12-.16.09s-.09-.11-.06-.18Z"/>
      <path class="cls-6" d="M45.64,8.7c-.04-.18.22-.31.26-.12.17.02.1-.26.14-.38.05-.17.26-.12.22.05,0,.11.02.25-.04.34-.06.32-.49.38-.57.1Z"/>
    </g>
  </g>
  <g id="Vector_layer-6" data-name="Vector layer">
    <path class="cls-5" d="M14.31,24.52s0,0,0,0c0,0,0,0,0,0Z"/>
    <path class="cls-5" d="M14.31,24.52s0,0,0,.01c0,0,0,0,0-.01Z"/>
    <path class="cls-4" d="M13.16,25.94s.03-.04.04-.05c-.19-.26-.41-.55-.57-.85-.01,0-.02.02-.04.02,0,0,0,0,0,0h0c-.05.32.26.66.45.89,0,0,0,0,0,0,.03.02.08,0,.11-.02ZM14.94,25.35s0-.01.02-.02c-.15-.31-.31-.64-.51-.94-.02.01-.03.03-.05.04-.03.03-.07.05-.1.09,0,0,0,0,0-.02h0s0,0,0-.01c-.04.06-.07.11-.13.15,0,0-.01,0-.02,0-.04.02-.08.03-.12.03-.1.04-.22.04-.33,0-.21-.11-.4-.48-.23-.62,0-.08.03-.14.07-.19.03-.05.07-.08.11-.11.02-.01.03-.02.05-.03.03-.02.05-.05.08-.07,0,0,0,0,0,0-.06-.04-.12-.08-.18-.11-.28-.04-.57.24-.75.45-.03.41-.02.61.25.99.26.41.5.8.86,1.1.01,0,.02-.02.03-.03.01,0,.03,0,.05-.02.02-.01.06-.03.08-.05.05-.23-.27-.53-.05-.74.19-.22.67-.28.85.09ZM15.45,25.43c0,.34-.59.93-.86.17-.01,0-.05,0-.05,0,0,0-.02,0-.02,0,.2.35.13.74-.14.9-.03.02-.07.04-.11.05-.23.22-.49.02-.72-.23-.04.04-.09.08-.15.11-.04.03-.09.05-.14.05-.7.06-1.55-1.5-.9-1.92,0,0,0,0,0,0,.02-.02.05-.03.07-.03-.05-.2-.06-.41,0-.61-.04-.37.39-.6.62-.75.4-.25.81-.09,1.18.25,0,0,0,0,0,0,.1-.03.24.04.29.17,0,0,0,0,0,.01.05.07.09.15.12.23.02.04.03.09.04.14.34.49.61,1.07.75,1.47Z"/>
  </g>
</svg>