<?xml version="1.0" encoding="UTF-8"?>
<svg id="Layer_2" data-name="Layer 2" xmlns="http://www.w3.org/2000/svg" viewBox="0 0 104.99 98.3">
  <defs>
    <style>
      .cls-1 {
        fill: #ff5f00;
      }

      .cls-1, .cls-2, .cls-3, .cls-4, .cls-5, .cls-6 {
        stroke-width: 0px;
      }

      .cls-2 {
        fill: #6380ff;
      }

      .cls-3 {
        fill: #ffd311;
      }

      .cls-4 {
        fill: rgba(255, 255, 255, .5);
      }

      .cls-5 {
        fill: rgba(174, 189, 255, .77);
      }

      .cls-6 {
        fill: #0a0058;
      }
    </style>
  </defs>
  <g id="Vector_layer" data-name="Vector layer">
    <path class="cls-6" d="M78.23,89.4c.28.46-.39.9-.7.44-.09-.15-.18-.29-.28-.42-.43-.58-.96-1.05-1.35-1.66-.4-.76-1.04-1.35-1.54-2.04-.51-.79-1.03-1.58-1.68-2.27-.52-.85-1.16-1.61-1.74-2.42-.02-.02-.03-.04-.05-.06-.03-.04-.06-.08-.09-.13,0,0,0,0,0-.01-.09-.04-.14-.09-.16-.15-.01-.03-.02-.07-.01-.11,0-.05.03-.1.06-.14.04-.05.09-.09.15-.11,0,0,0,0,0,0,.07-.02.14-.01.21.04.04.03.07.07.1.12,0,0,0,.01.01.02.06.09.13.18.2.26.02.02.04.04.05.07.05.07.11.13.17.2.2.23.42.45.62.67.07.07.13.15.19.22,0,0,0,0,0,0,.04.04.08.09.11.13.04.04.07.09.11.14.03.04.06.07.08.11.01.02.03.03.04.05.06.09.12.18.17.27.03.03.06.06.08.1,0,0,0,0,0,0,.7.8,1.43,1.58,1.99,2.5.62.78,1.3,1.5,1.79,2.36.38.45.8.87,1.15,1.34.11.15.21.3.31.46Z"/>
    <path class="cls-6" d="M79.73,86.63c.16.35-.04.67-.32.79-.06.03-.13.04-.2.04-.1,0-.2-.02-.29-.07,0,0,0,0,0,0,0,0,0,0,0,0t0,0s-.06-.03-.08-.06c-.03-.02-.05-.05-.08-.08-.06-.06-.11-.11-.16-.17,0,0-.02-.02-.03-.03-.04-.05-.08-.09-.13-.14-.01-.01-.03-.03-.04-.04-.05-.06-.1-.11-.15-.17-.06-.07-.12-.14-.17-.21-.04-.05-.08-.1-.11-.15-.06-.08-.12-.15-.17-.23-.1-.13-.19-.27-.29-.41-.09-.14-.19-.27-.28-.41-.07-.1-.14-.21-.21-.31-.07-.1-.14-.21-.21-.31-.09-.14-.19-.27-.29-.41-.05-.07-.1-.14-.15-.2-.03-.03-.05-.06-.07-.09-.02-.03-.04-.06-.07-.08-.05-.07-.11-.14-.15-.21-.02-.03-.04-.05-.06-.08-.03-.05-.07-.1-.1-.14-.03-.05-.06-.09-.09-.14-.06-.1-.13-.2-.19-.3-.04-.06-.08-.13-.12-.19-.06-.1-.12-.2-.19-.31,0,0,0,0,0,0-.06-.1-.12-.2-.19-.3-.05-.06-.1-.12-.14-.17,0,0,0,0,0,0-.58-.72-1.05-1.52-1.6-2.26,0,0,0,0,0-.01-.02-.02-.04-.05-.05-.07,0,0,0,0,0,0-.01-.34.18-.29.41-.1.34.28.78.87.87.98.96.98,1.8,2.06,2.72,3.07.49.52.87,1.13,1.32,1.68.21.26.46.49.69.75,0,0,0,0,0,0,0,0,0,0,0,0,.04.04.07.08.1.12.02.02.04.04.05.07.02.02.04.05.05.08.03.04.05.07.07.11.01.02.02.04.03.06,0,.01.01.03.02.04,0,0,0,0,0,0,.01.02.02.05.03.07Z"/>
    <path class="cls-6" d="M81.96,85.83c.44.59-.41,1.3-.91.73,0-.01-.01-.02-.02-.03-.17-.26-.35-.53-.53-.79-.09-.13-.18-.26-.27-.39-.06-.09-.12-.17-.19-.26-.27-.38-.56-.75-.84-1.1-.12-.2-.26-.4-.39-.59-.05-.07-.09-.13-.14-.19-.05-.06-.09-.13-.14-.19-.09-.13-.19-.25-.28-.38-.24-.31-.48-.62-.72-.94-.09-.13-.19-.25-.28-.38-.09-.13-.18-.26-.27-.39-.04-.07-.09-.13-.14-.2-.03-.05-.06-.09-.1-.14-.34-.47-.69-.91-1.01-1.37-.03-.05-.07-.1-.1-.14-.03-.05-.07-.1-.1-.15-.03-.05-.06-.1-.1-.15-.03-.05-.06-.1-.09-.15h0c-.07-.12-.14-.23-.2-.35-.02-.05-.01-.1,0-.15.02-.18.23-.29.39-.2.1.1.18.21.26.33.02.03.05.07.07.1.05.07.11.15.17.21.23.28.46.57.7.85,0,0,0,0,0,0,.54.64,1.08,1.26,1.63,1.89.02.02.03.04.05.06,0,0,0,0,0,0,.16.19.33.38.49.56.12.14.24.28.36.42.7.82,1.39,1.66,2.03,2.54.05.07.1.13.15.2.07.1.15.21.22.31.04.06.08.12.12.18.05.08.11.16.16.24h0s.01.01.01.02Z"/>
    <path class="cls-6" d="M84.35,84.31c.34.52-.27,1.18-.81.88-.14-.09-.28-.2-.4-.31h0s0,0,0,0c-.04-.03-.08-.07-.11-.11-.04-.04-.07-.07-.11-.11,0,0,0,0,0,0-.03-.04-.06-.07-.1-.11-.04-.04-.07-.08-.1-.12s-.07-.08-.1-.12c0,0,0,0-.01-.01-.03-.04-.06-.07-.09-.11-.05-.06-.1-.13-.14-.19-.01-.02-.03-.04-.04-.06-.02-.03-.04-.06-.07-.09-.02-.03-.04-.05-.05-.08-.04-.05-.07-.1-.11-.16-.04-.06-.08-.12-.12-.18-.06-.08-.11-.17-.17-.25-.06-.08-.11-.16-.16-.24h0c-.07-.09-.13-.18-.2-.26-.06-.08-.11-.15-.17-.23-.02-.03-.04-.05-.06-.08-.05-.08-.11-.15-.16-.23-.07-.09-.13-.18-.2-.27-.08-.12-.16-.23-.24-.35-.16-.24-.33-.48-.49-.71,0,0,0,0,0,0,0,0,0,0,0,0,0,0,0,0,0,0-.8-1.18-1.58-2.36-2.48-3.49,0-.01-.02-.02-.03-.04-.02-.03-.04-.05-.06-.08-.14-.16-.31-.33-.35-.53,0-.02,0-.04,0-.06-.07-.33.27-.49.48-.39.09.04.16.13.18.27h0c.14.15.29.3.43.46.06.06.11.12.17.18.06.06.11.12.17.18.06.06.11.12.17.18.06.06.11.12.17.18.03.04.06.07.09.1.11.12.21.24.32.35.14.15.27.31.41.46,0,0,.01.01.02.02.1.11.2.22.3.34.02.02.04.05.06.07.05.06.1.12.16.18.05.06.1.12.15.18.02.03.04.05.06.08.05.06.1.12.15.18.03.03.05.06.08.09.09.1.17.2.26.31,0,0,.01.02.02.02.09.11.18.21.26.32.1.12.19.23.28.35.07.09.14.17.21.26.04.05.09.11.13.16.04.05.08.1.12.15.04.05.08.1.12.15.03.04.06.08.09.12.1.13.19.25.29.38,0,0,.01.02.02.02.1.13.2.27.3.4.06.09.13.17.19.26.06.09.13.17.19.26.1.14.2.28.3.42h0s.05.07.08.1c.03.03.05.07.08.1.03.03.06.07.08.1.03.03.06.07.08.1.06.06.11.13.17.19.01.01.02.03.03.04.04.04.07.08.11.12,0,0,0,0,.01.02,0,0,0,.01.01.02.06.07.12.15.18.23Z"/>
    <path class="cls-6" d="M79.04,76.15s0,.04,0,.06c-.02.14-.09.28-.18.38,0,0-.01.01-.02.02,0,0-.01.01-.02.02,0,0,0,0,0,0t0,0s0,0-.01.01c-.01.01-.03.02-.04.03-.02.01-.03.02-.05.04-.02.01-.04.02-.06.03-.06.03-.12.06-.18.1-.06.03-.12.06-.18.1h0c-.17.09-.34.19-.51.29-.04.03-.09.05-.13.08-.07.04-.14.09-.21.13h0c-.06.04-.13.08-.19.12-.07.04-.13.08-.2.12-.07.04-.14.09-.21.13-.1.06-.2.12-.3.18-.1.06-.2.12-.31.18-.07.04-.13.07-.2.11-.02.01-.05.02-.07.04-.03.02-.06.03-.09.05-.06.03-.12.06-.18.09-.09.05-.18.09-.28.14-.02.02-.05.03-.07.05-.05.04-.11.07-.16.11-.2.13-.39.27-.6.39-.06.04-.13.08-.19.12-.07.04-.13.08-.2.11-.13.07-.26.15-.4.21h0s-.02.01-.04.02c-.09.04-.18.09-.27.13-.03.01-.06.03-.09.04,0,0,0,0,0,0-.04.02-.08.04-.12.06-.05.02-.1.05-.15.07h0s-.01,0-.02.01c-.05.02-.09.05-.14.07-.04.02-.08.04-.12.07-.05.03-.1.06-.15.08-.07.04-.14.08-.21.12-.15.09-.3.17-.44.26-.06.03-.11.06-.17.1-.06.04-.13.07-.19.11-.03.02-.06.03-.1.05-.06.03-.11.06-.17.09-.11.06-.23.11-.34.16-.04.02-.07.03-.11.05-.18.08-.37.14-.57.19,0,0,0,0,0,0h0s-.02,0-.03,0c0,0,0,0,0,0,0,0,0,0,0,0-.01,0-.02,0-.04-.02-.05-.02-.08-.06-.11-.11-.02-.03-.03-.07-.04-.11h0s0-.04,0-.05c0-.05.02-.09.04-.13.12-.17.32-.26.49-.37.03-.02.06-.04.1-.07.02-.01.04-.03.05-.04,0,0,0,0,0,0,1.35-1.02,2.74-1.95,4.09-2.96.68-.4,1.36-.77,1.99-1.24.34-.2.76-.6,1.17-.74.29-.09.58-.06.83.27,0,0,.01.02.02.03.02.03.03.06.04.08.05.11.07.24.07.36,0,0,0,.01,0,.02h0Z"/>
    <path class="cls-6" d="M69.88,81.33c-.34-.18-.37-.64-.6-.93-.58-.83-.91-1.81-.73-2.83-.03-1.8,1.14-3.37,2.57-4.36.49-.36,1.17-.56,1.72-.69.78-.26,1.59-.43,2.42-.35,1.46.22,3.43.85,3.65,2.54.1.45.77.85.39,1.33-.83.72-1.41-1-1.56-1.59-.26-.39-.81-.66-1.21-.82-2.87-1.3-6.95.78-7.23,4.04-.08.47-.22.95-.06,1.42.18.64.62,1.17.79,1.81.29.1.11.54-.17.41Z"/>
    <path class="cls-6" d="M69.85,81.32c-.17,0-.26-.23-.13-.35.37-.21.81-.32,1.19-.53.33-.16.64-.36.95-.54.13-.07.3,0,.36.12.07.13.01.29-.12.36-.72.38-1.46.79-2.26.94Z"/>
    <path class="cls-6" d="M86.53,83.56c.21.47.45.99.16,1.5-.11.2-.26.36-.44.5-.02.02-.04.03-.06.05-.13.1-.27.19-.4.28-.01,0-.03.02-.04.03-.03.02-.06.04-.08.06-.01,0-.03.02-.04.03-.05.04-.11.08-.16.13-.81.68-1.68,1.27-2.57,1.85-.2.13-.39.26-.59.38-.29.19-.59.39-.88.59-.1.07-.2.13-.29.2-.1.07-.19.14-.29.2-.25.22-.52.42-.79.62-.16.12-.33.23-.49.34-.05.04-.11.08-.16.11-.11.08-.22.15-.33.23-.27.2-.53.4-.78.63-.21.28-.52.58-.89.39-.39-.22-.59-.68-.77-1.08-.05-.09-.09-.19-.1-.29,0-.02,0-.03,0-.05,0,0,0-.02,0-.03,0-.07,0-.14.03-.2,0-.01,0-.03.01-.04,0,0,0,0,0,0,0-.01,0-.03.02-.04h0s.01-.02.02-.04c0-.01.01-.02.02-.03,0-.01.01-.02.02-.03,0-.01.01-.02.02-.03,0-.01.02-.02.03-.03,0,0,.02-.02.03-.03.02-.02.04-.03.06-.05.06-.05.12-.09.19-.13h0c.1-.06.21-.11.3-.17.05-.03.1-.07.14-.11.18-.13.35-.26.53-.39.06-.04.11-.08.17-.13h0c.39-.29.77-.59,1.16-.89.07-.05.14-.11.21-.16.24-.19.49-.38.73-.57.08-.06.15-.12.23-.18.1-.08.2-.16.3-.24.1-.08.2-.16.3-.23.31-.24.62-.47.93-.7.09-.07.18-.13.28-.2.12-.1.25-.2.37-.3.18-.15.36-.3.54-.45h0c.08-.07.17-.14.25-.21.1-.08.19-.15.29-.23.14-.11.29-.21.44-.31.02-.01.04-.03.06-.04h0c.06-.04.12-.09.17-.14.03-.02.05-.04.07-.07.03-.02.05-.05.08-.07h0c.09-.08.17-.17.26-.25.14-.14.29-.27.45-.37.09-.06.17-.11.27-.15h0s.05-.02.07-.03c.02,0,.05-.02.07-.02.33-.06.66.08.83.36.02.03.04.07.05.1.01.04.03.07.04.11Z"/>
    <path class="cls-6" d="M80.51,87.56c.31.38-.2.91-.59.67-.02-.01-.04-.02-.05-.04-.14-.14-.27-.28-.4-.43-.09-.1-.17-.2-.26-.3-.36-.43-.69-.87-1.02-1.32-.33-.46-.66-.93-.99-1.39-.65-.72-1.26-1.47-1.86-2.24,0,0,0,0,0,0-.09-.11-.17-.22-.26-.33-.08-.11-.16-.21-.24-.32,0,0,0,0,0,0s0,0,0,0c-.52-.68-1.04-1.37-1.57-2.04-.05-.07-.11-.14-.16-.2-.02-.02-.03-.04-.05-.07-.06-.22.2-.41.39-.29.08.05.15.12.22.18.04.04.09.08.13.13h0c.13.13.25.25.38.38.13.13.25.25.38.38.25.26.5.51.74.78.1.11.2.21.3.32.03.03.06.06.08.09.12.13.23.25.34.38.11.12.22.25.33.37.01.02.03.03.04.05.08.09.16.18.24.28.05.06.11.13.16.19.09.11.18.22.28.33.1.12.21.25.31.37.1.13.21.25.31.38.08.1.16.2.24.3.43.55.85,1.1,1.26,1.67.06.08.12.16.18.25,0,0,0,0,0,0,0,0,0,0,0,0,.11.16.22.32.33.48.03.04.05.08.08.12h0s.07.08.1.12c.11.14.22.26.32.39.1.12.2.24.31.38Z"/>
    <path class="cls-6" d="M77.37,90.08c-2.1-2.38-3.89-5.03-5.89-7.5-.34-.55-.81-1-1.22-1.49-.14-.23.13-.53.37-.41,0,0,0,0,0,0,2.96,2.09,4.94,5.24,7.31,7.92.21.26.38.56.51.87.27.66-.64,1.19-1.08.61Z"/>
    <path class="cls-6" d="M86.08,83.86c.07.43-.42.79-.81.61-.29-.19-.54-.41-.76-.66h0c-.06-.07-.12-.14-.18-.21-.06-.07-.12-.15-.18-.22-.03-.04-.06-.07-.09-.11,0,0,0,0-.01-.01-.04-.06-.08-.11-.12-.17-.22-.31-.43-.62-.66-.92-.02-.03-.04-.05-.06-.08-.02-.03-.04-.05-.06-.08-.09-.13-.18-.25-.27-.38-.06-.08-.12-.17-.17-.25-.28-.4-.55-.8-.83-1.21-.73-1.08-1.46-2.15-2.25-3.18-.18-.22-.34-.45-.49-.68-.02-.03-.04-.06-.06-.1,0-.01-.02-.03-.03-.04h0s-.02-.03-.03-.05c-.06-.1-.09-.22-.04-.33,0,0,0,0,0,0,.08-.19.3-.21.44-.12h0s.02.01.03.02c0,0,.01.01.02.02,0,0,0,0,.01.01,0,0,.01.01.02.02,0,0,.01.02.02.03,0,0,0,.02.01.03,0,.01,0,.03.01.04,0,0,0,.02,0,.03,0,0,0,.01,0,.02,0,.01,0,.02,0,.03,1.74,2.02,3.34,4.11,5.06,6.14.09.11.18.22.26.33.04.06.09.11.13.17.01.02.03.04.04.05.09.11.18.21.29.31.02.02.04.03.06.05,0,0,.01.01.02.01.02.02.05.05.07.07.26.23.53.48.6.83Z"/>
    <path class="cls-6" d="M85.27,83.26c.21.28-.2.63-.44.37-.02-.03-.05-.05-.07-.08-.98-1.11-1.94-2.26-2.88-3.4-.21-.25-.41-.49-.62-.74-.1-.11-.21-.23-.31-.34,0,0-.02-.02-.03-.03-.09-.1-.19-.21-.28-.32-.02-.02-.04-.04-.05-.06-.08-.1-.17-.19-.25-.29-.1-.12-.2-.23-.3-.35-.1-.12-.2-.24-.3-.35-.2-.24-.39-.48-.58-.72,0,0-.01-.02-.02-.02-.09-.11-.18-.23-.26-.34-.07-.08-.13-.17-.19-.26-.03-.07-.02-.13.01-.18.07-.11.23-.16.33-.06,0,0,0,0,.01.01,0,0,.02.02.03.03.02.02.04.04.06.05,1.72,1.6,3.28,3.35,4.69,5.22.53.55.95,1.17,1.41,1.77.02.03.04.05.06.08Z"/>
    <path class="cls-6" d="M83.48,72.63c-1.38-.2-2.32-1.42-2.92-2.57-.09-.29.38-.39.41-.08.72.97,1.92,2.54,3.27,1.88.81-1.05-.5-2.3-1.03-3.18-.3-.34-.03-.89.44-.73.21.08.28.31.4.48.45.69,1.01,1.34,1.13,2.19.3,1.12-.5,2.25-1.71,2.02Z"/>
    <path class="cls-6" d="M83.13,72.56c-.79-.44-1.44-1.08-1.94-1.83-.18-.27-.55-.45-.61-.77,0-.15.15-.28.3-.24.17.05.28.22.42.33.66.63,1.22,1.4,2.12,1.72.56.17.25,1.01-.29.79Z"/>
    <path class="cls-6" d="M83.53,72.27c-.2-.03-.8-.34-.58-.58.05-.04.13-.03.17.01.14.03.23.12.36.14.28.03.6,0,.75-.27.14-.3-.11-.82.33-.9.6.02.3.84.16,1.18-.25.43-.75.56-1.2.42Z"/>
    <path class="cls-6" d="M86.99,70.47c-.84-.64-1.34-1.75-2.02-2.52-.15-.18-.35-.33-.45-.55-.14-.32.21-.55.5-.45,1.36.29,2.65.81,3.92,1.33-.4-.59-.64-1.27-1.1-1.81-.18-.23-.39-.46-.5-.73-.08-.28.16-.58.45-.53.12.02.23.09.3.19.69.87,1.1,1.86,1.64,2.82.15.27.45.6.21.91-.12.13-.3.17-.47.11-1.29-.39-2.51-1-3.78-1.45.57.68.95,1.49,1.49,2.17.23.2.13.63-.22.52Z"/>
    <path class="cls-6" d="M91.36,67.83c-.97-.21-1.6-1.1-1.78-2.04-.15-.88-.06-3.05,1.32-2.51.07.04.12.11.17.17.1.12-.05.3-.19.23-.04,0-.07.02-.08.02-.02,0-.04,0-.06.01h0c-.18.07-.19.28-.24.45-.13.74-.14,1.51.27,2.15.31.56,1.03.61,1.54.33.14-.34.34-.57.44-.9.16-.41.81-.26.79.17-.13.56-.19,1.25-.67,1.63-.44.27-1,.37-1.51.3Z"/>
    <path class="cls-6" d="M91.01,63.48c-.2-.04-.54.09-.59-.2,0-.3.39-.28.6-.3.32,0,.31.51,0,.5Z"/>
    <path class="cls-6" d="M84.45,76.32c-.17,0-.22-.19-.19-.33.09-.35.52-.46.79-.65,1.01-.68,1.91-1.51,2.98-2.11.67-.44,1.41-.78,2.01-1.33.36-.23.74-.44,1.13-.63.24-.07.45.19.37.41-.17.44-.77.49-1.12.76-.38.33-.77.64-1.23.86-1.54.92-2.99,1.99-4.55,2.84,0,.1-.1.18-.2.18Z"/>
    <path class="cls-6" d="M85.32,77.37c-.29-.07-.29-.52,0-.59.3-.21.57-.45.87-.67.52-.41,1.12-.7,1.63-1.12.44-.33.84-.73,1.35-.95.61-.11,2.44-2.02,2.83-1.32.09.17.03.39-.13.48-.99.39-1.68,1.14-2.63,1.57-.64.49-1.2,1.09-1.94,1.42-.55.28-1.05.66-1.55,1.02-.13.09-.28.2-.44.15,0,0,0,0,0,0Z"/>
    <path class="cls-6" d="M86.8,79.8c-.06-.14,0-.31.13-.38.03-.02.06-.03.09-.03,2.33-2.17,5.12-3.73,7.85-5.33.86-.74,1.81-1.37,2.83-1.83.37-.3.72-.62,1.15-.84.27-.16.63-.05.78.22.37.77-.67.91-1.11,1.24-1.11.57-2.25.83-3.22,1.7-2.3,1.21-4.37,2.82-6.57,4.2-.45.39-.93.73-1.39,1.11-.12.21-.46.19-.54-.04Z"/>
    <path class="cls-6" d="M88.12,80.74c.82-1,2.08-1.63,3.07-2.48,1.73-1.11,3.64-1.83,5.37-2.92.88-.62,1.79-1.22,2.65-1.86.13-.16.39-.18.54-.03.4.54-.52.77-.87.96-.62.29-1.15.83-1.73,1.17-.85.51-1.68,1.04-2.57,1.47,0,0,0,0,.01,0-1.64.74-3.09,1.75-4.54,2.8-.52.36-1.02.73-1.52,1.12-.17.15-.45,0-.42-.23Z"/>
    <path class="cls-6" d="M89.34,82.38c-.19,0-.32-.21-.24-.38.11-.19.34-.28.5-.43,1.28-1.18,2.72-2.16,4.15-3.11.53-.37,1.18-.53,1.66-1,.78-.53,1.61-.97,2.39-1.49.32-.24.74-.29,1.09-.47.48-.29.91-.65,1.42-.9.66-.35,1.15.66.46.96-.82.27-1.57.69-2.43.86-.35.26-.73.48-1.12.67-.95.41-1.64,1.26-2.57,1.68-1.01.62-2.04,1.21-3.05,1.84-.61.51-1.26.97-1.84,1.5-.15.08-.25.28-.43.28Z"/>
    <path class="cls-6" d="M70.16,80.94s-.05-.03-.08-.04c-.65.07-.72-.55-.62-1.04-.63-.24-.28-1.46-.33-2.01-.01-.57.05-1.15.11-1.72.04-.25.26-.43.51-.42.12-.53.18-1.34.88-1.25.21-.5.47-1.49,1.2-1.05.12-.06.26-.09.39-.07.11.02.2.06.28.12.18-.62.91-.84,1.47-.6.33-.19.73-.14,1.07,0,.06.02.11.05.17.07.36-.16.79-.07,1.12.12.33-.31.89-.31,1.21.03.07.08.14.16.21.25,1.46.15,2,3.16.04,2.79-.03.02-.06.05-.1.06-.08.18-.21.33-.38.43-.25.14-.55.15-.8.03-.2.23-.54.25-.73.48-.33.29-.78.41-1.17.59-.32.21-.64.42-.96.63-.9.61-1.52,1.61-2.47,2.14-.24.31-.59.66-1.01.46Z"/>
    <path class="cls-6" d="M78.09,84.79c.18.19-.11.48-.29.29-.98-.93-1.86-2.07-2.8-3.04,0,0,0,0,0,0-.05-.06-.11-.11-.16-.17,0,0,0,0,0,0,0,0,0,0,0,0s0,0,0,0h0s-.08-.08-.11-.12c-.04-.04-.07-.07-.11-.11-.07-.07-.14-.14-.22-.21-.18-.24-.34-.48-.52-.71-.02-.03-.05-.07-.07-.1-.02-.03-.05-.06-.07-.1-.05-.07-.11-.14-.17-.2-.02-.02-.04-.04-.06-.07-.03-.04-.07-.07-.1-.11-.03-.03-.06-.06-.09-.09-.02-.02-.05-.05-.07-.07-.01-.01-.03-.02-.04-.04-.02-.02-.05-.04-.07-.06,0,0,0,0,0,0h0s-.05-.04-.07-.05c-.08-.1-.03-.2.06-.22.06-.02.14,0,.19.08.03.02.06.04.1.06,0,0,.01,0,.02.01.57.41.94,1.01,1.42,1.52.63.46.98,1.16,1.56,1.66.59.59,1.09,1.28,1.71,1.85Z"/>
    <path class="cls-6" d="M78.65,82.44c-.88-1.37-1.87-2.67-2.93-3.9-.15-.2.17-.44.32-.24.77.87,1.45,1.81,2.15,2.74.26.4.48.82.73,1.23.1.17-.15.34-.27.17Z"/>
    <path class="cls-6" d="M78.89,82.07c.04.06.04.12.01.16-.05.09-.18.13-.26.02-.68-.92-1.27-1.9-1.91-2.85-.25-.37-.51-.75-.78-1.11-.02-.02-.04-.05-.06-.07,0,0,0,0,0-.01-.04-.06-.03-.15.04-.2.06-.05.16-.04.21.03.03.04.06.07.08.11,0,0,0,.01.01.02.05.07.11.14.16.21.06.08.12.16.18.25.04.06.08.12.12.17.18.27.35.54.53.81.05.08.11.16.16.24.05.08.11.16.16.24.06.08.12.16.18.24.17.23.32.46.48.7t0,0s0,0,0,0c.07.11.14.21.21.32.16.24.31.47.48.71Z"/>
    <path class="cls-6" d="M83.68,84.44c.17.17.33.35.17.51-.08.06-.2.05-.26-.04-.07-.08-.13-.16-.2-.24-1.07-1.32-2.15-2.59-3.26-3.86,0,0,0,0,0,0,0,0,0,0,0,0,0,0,0,0,0,0-.12-.13-.23-.27-.35-.4-.5-.64-.99-1.29-1.52-1.91-.03-.04-.06-.09-.08-.13-.05-.08-.11-.17-.17-.25-.15-.2-.31-.39-.49-.57-.02-.02-.04-.04-.05-.06,0,0,0-.01-.01-.02,0,0,0-.02-.01-.03h0c-.03-.1.04-.2.13-.24.07-.03.16-.03.22.03.02.03.05.06.06.11,1.95,2.19,3.66,4.6,5.58,6.82.05.09.16.18.26.28Z"/>
    <path class="cls-6" d="M79.91,88.13s.02.07,0,.1c-.03.12-.19.19-.29.08-.02-.02-.03-.04-.05-.06-.18.02-.25-.16-.33-.33h0s-.01-.03-.02-.04c0-.01-.01-.03-.02-.04-.02-.03-.03-.07-.05-.09,0,0,0-.01-.01-.01,0,0,0-.01-.01-.02,0-.03-.03-.06-.05-.09,0-.01-.02-.02-.03-.04-.02-.03-.04-.05-.06-.08-.01-.01-.02-.03-.04-.04-.02-.02-.04-.05-.06-.07,0,0,0,0,0,0,0,0,0,0,0,0t0,0c-.36-.42-.96-1.04-.73-1.25.02-.02.05-.03.08-.04.09-.02.19.02.23.11.25.38.56.73.83,1.1.03.04.05.08.08.12.06.08.12.17.18.25.11.15.23.3.33.46Z"/>
    <path class="cls-2" d="M78.12,63.67h0s0,0,0,0c0,0-.01,0-.02.01s-.01,0-.02.01h0c-.22-.18-.43-.36-.62-.57-.08-.1-.16-.19-.24-.29.01-.01.02-.02.04-.03,0,0,0,0,0,0,.07.06.14.13.21.19.22.22.41.46.65.66Z"/>
    <path class="cls-2" d="M78.93,64.4s0,0,0,0c-.02-.01-.04-.02-.06-.04-.02.01-.03.02-.05.04-.13-.15-.26-.3-.4-.43-.07-.06-.14-.11-.21-.16h0s.02-.02.04-.03t0,0h0s.02.02.03.03c.02,0,.03.02.05.03.02,0,.03.02.05.03.23.14.39.33.54.53,0,0,0,0,0,0Z"/>
    <path class="cls-4" d="M79.25,87.92h0c-.1.08-.19.15-.29.23-.14.11-.29.22-.43.34-.14.11-.29.22-.43.33-.02-.04-.05-.07-.08-.11-.03-.04-.05-.07-.08-.1-.05-.06-.1-.12-.16-.18-.05-.06-.1-.12-.16-.18-.1-.12-.21-.24-.31-.36-.05-.06-.1-.12-.15-.18-.15-.18-.29-.35-.44-.53-.11-.13-.21-.26-.32-.4-.13-.17-.27-.33-.4-.5-.14-.18-.28-.35-.42-.53-.07-.09-.14-.18-.21-.26-.16-.19-.31-.39-.47-.58-.13-.16-.26-.31-.39-.47-.07-.09-.15-.17-.22-.26-.07-.09-.15-.17-.22-.26-.07-.09-.15-.17-.22-.25-.28-.31-.56-.62-.85-.92,0,0,0,0,0,0-.03-.03-.06-.06-.08-.1-.05-.09-.11-.18-.17-.27-.01-.02-.03-.04-.04-.05-.03-.04-.05-.07-.08-.11-.03-.05-.07-.09-.11-.14-.04-.05-.07-.09-.11-.13,0,0,0,0,0,0-.06-.07-.13-.15-.19-.22-.21-.22-.42-.44-.62-.67-.06-.06-.11-.13-.17-.2.06-.03.11-.06.17-.09.03-.02.06-.03.1-.05.06-.03.13-.07.19-.11.06-.03.11-.06.17-.1.15-.08.3-.17.44-.26.07-.04.14-.08.21-.12.05-.03.1-.06.15-.08.04-.02.08-.04.12-.07.05-.02.09-.05.14-.07,0,0,.01,0,.02-.01h0s0,0,0,0c.03.02.05.04.07.06.01.01.03.02.04.04.03.02.05.04.07.07.03.03.06.06.09.09.04.03.07.07.1.11.02.02.04.04.06.07.06.07.11.13.17.2.03.03.05.06.07.1.02.03.05.07.07.1.17.23.34.48.52.71.07.07.15.14.22.21.04.03.07.07.11.11.04.04.08.08.11.12h0s0,0,0,0c0,0,0,0,0,0,0,0,0,0,0,0,.08.1.16.21.24.31.08.11.17.22.26.33,0,0,0,0,0,0,.06.1.12.2.19.31.04.06.08.13.12.19.06.1.13.2.19.3.03.05.06.09.09.14.03.05.07.1.1.14.02.03.04.05.06.08.05.07.1.14.15.21.02.03.04.06.07.08.02.03.05.06.07.09.05.07.1.13.15.2.1.13.19.27.29.41.07.1.14.21.21.31.07.1.14.21.21.31.09.14.19.28.28.41.09.14.19.27.29.41.06.08.11.15.17.23.04.05.08.1.11.15.06.07.11.14.17.21.05.06.1.12.15.17.01.02.03.03.04.04.04.05.08.1.13.14,0,0,.02.02.03.03.05.06.11.12.16.17.03.03.05.06.08.08.03.02.05.04.08.06t0,0s0,0,0,0c0,0,0,0,0,0,.02.02.04.05.06.07.01.02.02.03.04.04.02.03.04.06.06.08,0,.01.02.03.03.04.02.04.04.07.05.09,0,0,0,0,.01.02,0,0,0,0,.01.01.02.03.03.06.05.09,0,.01.01.03.02.04,0,.01.01.03.02.04Z"/>
    <path class="cls-4" d="M81.02,86.53c-.1.08-.2.16-.3.23-.1.08-.2.16-.3.24-.08.06-.15.12-.23.18-.1-.12-.21-.25-.32-.39-.03-.04-.06-.08-.1-.12-.03-.04-.05-.08-.08-.12,0,0,0,0,0,0,0-.01-.01-.03-.02-.04-.01-.02-.02-.04-.03-.06-.02-.04-.05-.08-.07-.11-.02-.03-.04-.05-.05-.08-.02-.02-.03-.04-.05-.07-.03-.04-.07-.08-.1-.12,0,0,0,0,0,0-.02-.02-.03-.04-.05-.07-.04-.06-.09-.12-.13-.18-.41-.57-.83-1.12-1.26-1.67-.08-.1-.16-.2-.24-.3-.1-.13-.2-.25-.31-.38-.1-.12-.2-.25-.31-.37-.09-.11-.18-.22-.28-.33-.05-.06-.11-.13-.16-.19-.08-.09-.16-.19-.24-.28-.01-.02-.03-.03-.04-.05-.11-.12-.22-.25-.33-.37-.11-.13-.23-.25-.34-.38-.03-.03-.06-.06-.08-.09-.1-.11-.2-.21-.3-.32-.24-.26-.49-.52-.74-.78-.13-.13-.25-.25-.38-.38-.13-.13-.25-.25-.38-.38.14-.07.27-.14.4-.21.07-.04.13-.08.2-.11.06-.04.13-.08.19-.12.2-.13.4-.26.6-.39.05-.04.11-.07.16-.11h0s.06.1.09.15c.03.05.06.1.1.15.03.05.06.1.1.15.03.05.07.1.1.14.33.46.68.91,1.01,1.37.03.05.07.09.1.14.05.06.09.13.14.2.09.13.18.26.27.39.09.13.19.26.28.38.24.32.48.63.72.94.1.13.19.25.28.38.05.06.09.13.14.19.05.06.09.13.14.19.13.19.27.39.39.59.29.35.57.72.84,1.1.06.09.13.17.19.26.09.13.18.26.27.39.18.26.36.53.53.79Z"/>
    <path class="cls-4" d="M83.13,84.88h0c-.18.15-.36.3-.54.46-.12.1-.24.2-.37.3-.09.06-.18.13-.28.2,0,0-.01-.01-.01-.02-.05-.08-.11-.16-.16-.24-.04-.06-.08-.12-.12-.18-.01-.02-.02-.03-.03-.05-.06-.09-.12-.18-.19-.26-.05-.07-.1-.14-.15-.2-.17-.23-.34-.46-.52-.69-.07-.09-.15-.19-.22-.28-.42-.53-.85-1.05-1.29-1.57-.12-.14-.24-.28-.36-.42-.16-.19-.32-.38-.49-.56,0,0,0,0,0,0-.07-.11-.14-.21-.21-.32,0,0,0,0,0,0h0s0,0,0,0c-.16-.24-.31-.47-.48-.7-.06-.08-.12-.16-.18-.24-.05-.08-.11-.16-.16-.24-.05-.08-.11-.16-.16-.24-.18-.27-.35-.54-.53-.81-.04-.06-.08-.12-.12-.17-.06-.08-.12-.17-.18-.25-.05-.07-.1-.14-.16-.21,0,0,0-.01-.01-.02.1-.06.2-.12.31-.18.1-.06.2-.12.3-.18.07-.04.14-.09.21-.13.07-.04.13-.08.2-.12.06-.04.13-.08.19-.12h0s0,.02.01.03c0,0,0,.01.01.02.01.02.03.04.05.06.19.17.35.36.49.57.06.08.12.17.17.25.03.04.06.09.08.13.53.62,1.02,1.27,1.52,1.91.12.13.24.27.35.4,0,0,0,0,0,0,0,0,0,0,0,0,0,0,0,0,0,0,.16.24.32.48.49.71.08.12.16.23.24.35.06.09.13.18.2.27.05.08.11.15.16.23.02.03.04.05.06.08.06.08.11.15.17.23.07.09.13.18.2.26h0c.05.08.11.16.16.24.05.08.11.16.17.25.04.06.08.12.12.18.03.05.07.1.11.16.02.03.04.05.05.08.02.03.05.06.07.09.01.02.03.04.04.06.05.06.09.13.14.19.03.04.06.07.09.11,0,0,0,0,.01.01.03.04.07.08.1.12.03.04.07.08.1.12.03.04.06.07.1.11,0,0,0,0,0,0,.04.04.07.07.11.11.04.04.07.07.11.11h0Z"/>
    <path class="cls-4" d="M84.5,83.8h0s-.05.05-.08.07c-.02.02-.05.04-.07.07-.06.05-.11.1-.17.14,0,0,0,0,0,0,0,0,0,0,0,0,0,0,0-.01-.01-.02-.03-.04-.07-.08-.11-.12-.01-.01-.02-.03-.03-.04-.06-.06-.11-.13-.17-.19-.03-.03-.06-.06-.08-.1-.03-.03-.06-.07-.08-.1-.03-.03-.05-.07-.08-.1-.03-.03-.05-.07-.08-.1-.1-.14-.2-.28-.3-.42-.06-.09-.13-.17-.19-.26-.06-.09-.13-.17-.19-.26-.1-.14-.2-.27-.3-.4,0,0-.01-.02-.02-.02-.1-.13-.19-.25-.29-.38-.03-.04-.06-.08-.09-.12-.04-.05-.08-.1-.12-.15-.04-.05-.08-.1-.12-.15-.04-.05-.08-.11-.13-.16-.07-.09-.14-.18-.21-.26-.09-.12-.19-.24-.28-.35-.09-.11-.18-.21-.26-.32,0,0-.01-.02-.02-.02-.08-.1-.17-.2-.26-.31-.03-.03-.05-.06-.08-.09-.05-.06-.1-.12-.15-.18-.02-.03-.04-.05-.06-.08-.05-.06-.1-.12-.15-.18-.05-.06-.1-.12-.16-.18-.02-.02-.04-.05-.06-.07-.1-.11-.2-.22-.3-.34,0,0-.01-.01-.02-.02-.14-.15-.27-.31-.41-.46-.11-.12-.21-.24-.32-.35-.03-.04-.06-.07-.09-.1-.06-.06-.11-.12-.17-.18-.06-.06-.11-.12-.17-.18-.06-.06-.11-.12-.17-.18-.06-.06-.11-.12-.17-.18.06-.03.12-.07.18-.1.06-.03.12-.07.18-.1.02,0,.04-.02.06-.03.02-.01.04-.02.05-.04.01-.01.03-.02.04-.03,0,0,0,0,.01-.01t0,0s0,0,0,0c0,0,.01,0,.02-.02,0,0,.01-.01.02-.02.09.12.18.23.26.34,0,0,.01.02.02.02.19.24.39.48.58.72.1.12.2.24.3.35.1.12.2.23.3.35.08.1.17.19.25.29.02.02.03.04.05.06.09.11.19.21.28.32,0,0,.02.02.03.03.1.11.21.23.31.34.21.25.41.49.62.74.27.4.55.81.83,1.21.06.08.12.17.17.25.09.13.18.25.27.38.02.03.04.05.06.08.02.03.04.05.06.08.23.3.44.61.66.92.04.06.08.11.12.17,0,0,0,0,.01.01.03.04.06.08.09.11.06.07.12.15.18.22.06.07.12.14.18.21Z"/>
    <path class="cls-1" d="M79.51,65.08s0,0,0,0c-.02,0-.04-.01-.06-.03-.08-.05-.13-.13-.17-.2-.02,0-.04-.02-.05-.04-.07-.1-.13-.19-.2-.29-.04-.03-.08-.06-.09-.12h0s0,0,0,0h0s0,0,0,0c0,0,0,0,0,0h0c-.11-.15-.22-.28-.36-.4,0,0,0,0,0,0-.08-.07-.18-.13-.28-.19-.01,0-.02-.02-.03-.03,0,0,0,0,0,0-.02-.02-.04-.03-.07-.05-.02-.02-.04-.04-.07-.05,0,0,0,0,0,0h0c-.24-.2-.43-.44-.65-.67-.07-.07-.14-.13-.21-.19,0,0,0,0,0,0-.07-.06-.13-.11-.2-.16.03-.04.02-.1-.02-.13,0,0,0,0,0,0-.03-.03-.06-.06-.08-.09-.02-.05-.06-.1-.09-.14-.05-.05-.09-.1-.14-.14-.06-.05-.13-.11-.19-.16-.05-.04-.1-.08-.15-.12-.13-.12-.25-.24-.37-.36,0,0,0,0,0,0-.07-.07-.14-.14-.21-.21,0,0-.02-.01-.02-.02-.03-.04-.07-.09-.1-.13-.02-.03-.05-.06-.08-.09-.04-.04-.08-.09-.12-.13-.11-.12-.22-.23-.33-.34-.12-.13-.24-.25-.36-.38-.14-.15-.27-.3-.41-.44,0,0,0,0,0,0,0,0,0,0,0,0-.19-.2-.37-.39-.56-.59-.03-.03-.06-.06-.08-.09-.06-.07-.12-.13-.18-.2-.03-.03-.05-.06-.08-.09-.05-.05-.1-.1-.15-.15,0,0,0,0,0,0-.27-.28-.55-.55-.82-.83-.05-.05-.09-.1-.14-.14-.09-.08-.18-.17-.27-.25-.13-.12-.26-.23-.39-.35,0,0,0,0,0,0-.09-.09-.18-.17-.27-.26-.03-.03-.07-.06-.1-.09-.06-.05-.12-.11-.18-.16,0,0-.01-.01-.02-.02-.82-.89-1.69-1.72-2.69-2.43-2.2-1.66-4.51-3.16-6.71-4.81-.78-.6-1.65-1.23-2.51-1.8-1.3-.72-2.59-1.43-3.87-2.15-3.72-1.94-7.47-3.88-11.28-5.58-.15-.07-.3-.13-.45-.2-2.18-.75-4.28-1.7-6.34-2.73-1.79-.79-3.64-1.43-5.44-2.19-3.4-1.16-6.79-2.32-10.03-3.86-2.65-1.27-4.97-3.05-7.45-4.6-2.1-1.31-4.23-2.61-5.98-4.38-1.32-1.47-2.66-3.01-3.86-4.65-.65-.77-1.23-1.61-1.77-2.47,0,0,0,0,0,0-.01-.02-.02-.03-.03-.05-.86-1.31-1.79-2.6-2.19-4.14-.35-1.19-.47-2.47-.32-3.72C.07,4.58.71,2.22,2.8,1.21,5.79-.44,9.35-.19,12.53.71c.25.08,1.33.39,1.76.77,2.62.74,7.61,3.36,8.25,3.67,3.93,2.16,6.96,5.54,10.63,8.06,2.78,1.91,5.29,4.15,7.74,6.46,1.81,1.57,3.69,2.94,5.6,4.37,2.37,1.8,4.3,4.07,6.45,6.1,1.85,1.68,3.82,3.21,5.66,4.89,1.98,1.91,3.62,4.11,5.44,6.16,1.71,1.93,3.53,3.75,5.17,5.74,3.23,3.63,5.36,8.01,7.92,12.1.12.17.24.33.36.5-.06-.06-.12-.12-.18-.18-.09-.09-.19-.18-.28-.26-.08-.08-.16-.17-.25-.25-.09-.09-.17-.17-.25-.26-.12-.13-.24-.26-.37-.39-.12-.12-.25-.25-.38-.37-.14-.13-.29-.26-.44-.38-.14-.12-.27-.24-.4-.37-.11-.12-.22-.25-.33-.37-.1-.11-.21-.22-.33-.32-.03-.03-.06-.05-.09-.07-1.31-2.34-2.64-4.68-4.28-6.82-2.19-2.91-4.77-5.47-7.15-8.21-1.91-2.19-3.64-4.56-5.89-6.43-1.74-1.55-3.6-2.96-5.25-4.6-1.32-1.25-2.51-2.6-3.84-3.85-1.91-1.76-4.11-3.18-6.09-4.84-1.8-1.44-3.39-3.12-5.14-4.62-2.04-1.77-4.31-3.26-6.42-4.95-2.57-2.15-4.96-4.52-7.89-6.18-2.47-1.27-4.93-2.64-7.53-3.62,0-.02-.02-.03-.03-.04-.06-.04-.13-.06-.2-.09-.04-.02-.08-.03-.13-.05-.1-.03-.2-.07-.3-.1-.1-.03-.2-.07-.3-.11-.01,0-.02,0-.04-.01-.06-.03-.12-.06-.19-.08-.04-.02-.09-.04-.13-.05,0-.03-.02-.06-.05-.08-.02-.02-.05-.02-.08-.03-.02,0-.04-.01-.06-.02-.04-.01-.08-.02-.12-.03-.07-.02-.14-.03-.21-.05-.04-.01-.07-.02-.11-.03,0,0,0,0,0,0-2.38-.82-5.53-.93-7.72-.12-3,.95-4.01,2.82-3.66,5.88.41,3.88,2.53,7.2,4.89,10.17,0,0,0,.01.01.02,0,.02,0,.04,0,.07,0,.02.01.04.02.05.02.04.06.07.09.1.02.02.03.03.05.05h0s0,0,.01.01c.09.09.18.18.26.26.08.08.16.16.25.24.07.06.14.13.21.19.08.07.15.14.23.21,0,0,.01,0,.01.01.01.01.03.02.04.03.27.24.53.48.8.71.21.18.41.37.62.55.05.04.09.08.13.12.02.02.03.04.05.06.08.08.17.17.26.25.05.05.11.11.16.16.02.02.03.03.05.05.11.09.21.19.32.28.05.04.1.09.15.13.02.01.03.03.05.04.11.09.22.17.33.26.06.05.12.09.18.14.02.02.04.03.06.05t0,0c.21.15.42.31.64.46.22.16.44.31.66.47,0,0,0,0,0,0,0,0,0,0,0,0,0,0,0,0,0,0,0,0,0,0,0,0h0c.11.08.22.16.33.25.12.09.24.18.36.27,0,0,0,0,0,0,0,0,0,0,0,0,0,0,0,0,0,0,0,0,0,0,.01,0,.18.14.37.29.55.43.07.05.14.11.21.16.23.17.45.35.68.52.17.13.35.25.53.36.01,0,.03.02.04.03.03.02.05.04.08.05.04.03.08.06.13.09.14.12.28.23.42.34.02.02.05.02.08.01.01,0,.02.02.04.03.08.06.17.12.25.18.11.08.23.15.34.23.18.12.37.24.55.36.17.11.35.22.53.33.14.09.28.18.42.26.07.04.14.09.21.13,0,0,0,0,0,0,.21.12.43.25.64.37.06.03.12.07.18.1.1.05.2.1.29.15.12.06.25.12.37.19.06.03.12.05.17.08.13.06.26.11.39.17.05.02.11.05.16.07.03.01.06.02.09.04.13.07.26.14.39.2.04.02.07.05.11.07.09.06.18.13.27.19,0,0,0,0-.01,0,.14.1.29.2.43.29.07.05.14.1.22.14.04.02.09.04.13.05.04.02.08.04.12.06,0,0,0,0-.01,0,.25.15.48.32.73.46.25.15.52.28.78.4,0,0,0,0-.01,0,.04.02.09.04.13.07h0,0s0,0,0,0h0s0,0,0,0c0,0,0,0,0,0,.01,0,.02.01.03.02.01,0,.03.01.04.02.03,0,.06,0,.08-.02.08.04.15.09.23.13.09.05.19.1.28.15.08.04.16.09.24.13.13.06.26.12.38.18.08.04.16.08.24.11.19.08.38.17.58.25.69.37,1.4.71,2.15.98,1.49.54,2.96,1.15,4.43,1.75,1.91.63,3.82,1.25,5.7,1.93,2.74,1.16,5.41,2.47,8.1,3.72,1.88.75,3.73,1.55,5.56,2.44.85.44,1.66.95,2.47,1.45,0,0,0,0,0,0,1.86.93,3.71,1.88,5.51,2.92.82.49,1.57,1.02,2.31,1.57.99.57,1.97,1.14,2.96,1.72.06.04.13.08.19.12.02.02.04.04.07.06.15.13.3.26.45.39.15.13.31.26.47.37.08.06.16.11.24.16.04.03.08.05.12.08.04.03.08.05.11.08.04.04.09.07.13.11.05.05.11.09.16.14.1.09.2.18.3.27.08.07.16.13.25.19.62.61,1.23,1.23,1.93,1.76.74.57,1.52,1.08,2.29,1.61.06.05.11.11.17.16.07.06.14.13.22.19.15.13.3.26.46.37.16.11.32.22.47.34.04.04.09.07.13.11.03.03.07.06.1.1,0,0,0,0,0,0h0s0,0,0,0c.11.11.22.23.34.34.06.06.12.11.18.16.06.05.11.09.17.14,0,0,0,0,0,0h0c.08.06.15.11.23.16.02.02.05.05.07.07.09.09.18.18.28.27.09.09.18.19.27.29.06.07.13.15.19.23.06.08.12.15.18.23.11.15.23.29.35.43.12.15.25.29.39.43.07.07.15.15.22.22.06.06.12.13.18.2,0,0,0,0,0,0,.1.11.19.22.29.34.14.17.28.34.4.52.13.18.26.36.39.54.05.06.1.12.14.18,0,.02,0,.04.01.05.02.02.04.05.07.07.03.03.06.07.09.1.03.03.06.07.1.1,0,0,0,0,0,0,.05.06.11.13.17.19.06.06.11.12.16.19,0,0,0,0,0,0,0,0,0,0,0,0t0,0c.06.08.11.16.18.23,0,0,0,0,0,0,.09.1.19.2.28.3.05.05.09.11.13.16.02.03.05.06.07.09.02.02.04.04.06.07,0,0,0,0,0,0,0,0,0,0,0,0h0s.02.01.03.02c0,0,0,0,.01,0,0,0,.01,0,.02,0,0,0,.01,0,.02,0,0,0,0,.02,0,.03,0,.01.02.02.04.02,0,0,0,0,.01,0,0,0,0,0,.01,0,0,0,.01.01.02.02.01.01.02.03.04.04,0,0,0,0,.01,0,0,0,0,0,0,0,0,.04.02.08.08.11h0c.43.53.9,1.01,1.4,1.47.02.02.05.04.07.07.07.08.14.17.17.27.01.03.01.06,0,.09h0s.03.05.05.07c.06.09.14.21.07.3,0,0,0,0,0,.01-.31.18-.52.49-.83.68-.06.03-.13.07-.19.06h0Z"/>
    <path class="cls-1" d="M78.73,61.84s.03-.02.05-.03c0,0,.01,0,.02-.01,0,0,0,0,0,.01-.02.01-.04.03-.05.04,0,0,0,0-.01-.01Z"/>
    <path class="cls-1" d="M78.47,61.54s-.06-.07-.08-.1c-.01-.02-.02-.03-.04-.04,0,0,0,0,0,0,0,0,0,0-.01-.01-.06-.07-.12-.14-.19-.21-.07-.07-.14-.14-.2-.21-.01-.02-.03-.03-.04-.05-.03-.03-.05-.07-.08-.1-.03-.03-.06-.07-.09-.1-.02-.02-.04-.04-.06-.06-.14-.15-.26-.31-.39-.47-.07-.08-.13-.17-.2-.25-.07-.09-.13-.18-.2-.27-.13-.18-.26-.36-.39-.53,0,0,0,0,0,0-.1-.13-.21-.25-.31-.38-.11-.12-.22-.25-.33-.36-.12-.12-.24-.23-.35-.35-.11-.12-.23-.25-.34-.38-.07-.08-.13-.16-.2-.24-.06-.07-.11-.14-.17-.21,0,0,0,0,.01.01.11.1.21.2.33.3.11.09.21.18.32.27.11.09.21.18.31.27,0,0,0,0,0,0,0,0,.01.01.02.02.1.09.2.19.29.29.09.09.18.18.27.28,0,0,0,0,0,0,.09.1.19.2.28.29.1.1.19.19.29.29.1.1.2.19.3.29.1.1.2.19.3.29,0,0,0,0,0,0h0s0,0,0,0h0s0,0,0,0c.07.07.13.14.2.21,0,0,0,0,0,0h0c.1.12.19.25.28.37.07.11.14.21.22.32,0,0,.01.02.02.02,0,0,0,0,0,0,0,.01.02.03.03.04.05.07.1.14.15.2.04.06.09.11.14.16.04.04.08.09.11.13.06.1.12.19.18.29.01,0,.03-.01.04-.02,0,0,0,0,0,0,0,0-.01,0-.02,0-.03.02-.05.04-.08.06,0,0,0,0,0,0-.03.02-.06.05-.08.07h0s-.06.05-.09.07c-.06-.07-.12-.14-.18-.21Z"/>
    <path class="cls-1" d="M78.95,61.66s.01-.01.02-.02c0,0,0,0,0,0-.01.01-.02.02-.04.03,0,0,0,0,.01-.01Z"/>
    <path class="cls-1" d="M22.18,28.61s.05.03.08.04c0,0,0,0,0,.01-.03-.02-.05-.03-.08-.05Z"/>
    <path class="cls-6" d="M79.4,65.09c-.33-.37-.62-.79-.98-1.12-.34-.27-.68-.52-.96-.84-.63-.79-1.41-1.42-2.03-2.22-.38-.41-.87-.74-1.19-1.18,0-.08.1-.12.15-.07.37.38.76.71,1.14,1.08.36.37.65.81,1.04,1.15.47.43.83.97,1.28,1.41.14.16.31.28.48.4.45.36.79.83,1.12,1.29.09.02.03.14-.05.1Z"/>
    <path class="cls-1" d="M77.56,60.23c-.13-.19-.26-.37-.39-.56-.05,0-.1-.02-.13-.06-.14-.19-.27-.38-.41-.57-.03,0-.06-.01-.07-.04-.18-.31-.39-.6-.58-.9-.07-.15-.67-.86-.44-.92.04-.08.17-.08.21,0,.59,1,1.46,1.83,2.01,2.85.16.15-.07.38-.21.2Z"/>
    <path class="cls-1" d="M76.31,58.74c-.18-.23-.38-.44-.57-.66-.21.01-.29-.28-.44-.4-.18-.22-.53-.36-.59-.65-.02-.02-.04-.05-.06-.08-.02,0-.05-.01-.06-.03-.06-.11-.13-.22-.2-.32-.06-.14-.22-.25-.23-.41-.09-.17.13-.24.16-.03.36.69,1.04,1.09,1.5,1.69.19.2.48.38.57.64.05.07.14.14.12.23-.02.1-.15.11-.2.02Z"/>
    <path class="cls-1" d="M74.74,57.09s0,0,0,0c-.09-.14-.16-.28-.25-.43-.02-.03,0-.07.03-.09.03-.02.08-.01.1.02.08.14.14.3.22.44.04.07-.07.13-.1.05Z"/>
    <path class="cls-6" d="M74.63,60.12c-.25-.2-.42-.47-.64-.69-.23-.22-.5-.41-.71-.67-.39-.41-.67-.92-1.1-1.28-.8-.58-1.4-1.37-2.16-1.98-.59-.39-1.08-.91-1.66-1.32-.45-.34-.97-.57-1.37-.97-.4-.33-.88-.55-1.28-.87-.53-.52-1.17-.85-1.78-1.26-.47-.44-.99-.79-1.52-1.14-.57-.4-1.1-.83-1.65-1.24-.15-.14-.28-.28-.41-.43-.04-.06.04-.13.09-.09.03.02.05.04.07.06.18.17.38.35.61.47.82.55,1.6,1.14,2.42,1.69.49.48,1.08.82,1.66,1.17.54.49,1.13.91,1.75,1.3.44.38.91.72,1.4,1.03.44.31.85.69,1.25,1.04.3.23.62.44.89.7.37.28.64.66.97.97.32.29.66.56.98.83.44.44.75.99,1.19,1.42.42.32.73.75,1.11,1.11.08.07-.03.21-.12.13Z"/>
    <path class="cls-6" d="M61.04,48.82c-.59-.34-1.04-.84-1.58-1.23-.42-.21-.89-.33-1.28-.61-.6-.41-1.26-.7-1.89-1.05-.29-.17-.56-.42-.88-.55-.37-.16-.76-.28-1.1-.51-.34-.27-.73-.42-1.12-.57-.61-.28-1.16-.71-1.78-.97-.55-.21-1.08-.48-1.6-.73-.4-.17-.84-.3-1.21-.53-.41-.28-.87-.42-1.32-.6-.39-.17-.69-.5-1.1-.64-.4-.14-.8-.25-1.15-.5-.37-.26-.81-.39-1.24-.53-.09-.04-.22-.05-.27-.15-.02-.03,0-.06.02-.08.03-.01.06,0,.07.03.38.17.8.2,1.16.4.42.24.84.48,1.31.59.46.12.8.44,1.21.66.45.19.95.32,1.36.6.38.24.83.37,1.24.54,1.07.52,2.18.95,3.18,1.6.6.24,1.08.48,1.61.85.43.22.91.33,1.3.63.43.34.94.56,1.42.82.47.25.89.56,1.35.79.28.13.6.2.86.38.38.25.68.62,1.04.88.17.1.33.21.49.32.04.03.05.09.02.14-.03.04-.09.06-.14.02Z"/>
    <path class="cls-6" d="M37.98,37.17c-3.07-1.44-6.72-2.42-9.91-3.82-.55-.15-1.06-.37-1.59-.57-.62-.12-1.2-.43-1.8-.59-.62-.19-1.18-.55-1.8-.77-.41-.19-.76-.47-1.18-.65-.05-.03-.14-.03-.16-.09,0-.14.17-.06.24-.03.94.46,1.9.9,2.88,1.29.48.11.91.33,1.37.5.52.1.99.35,1.48.53.89.27,1.77.67,2.63,1.03.89.36,1.8.64,2.69.98,1.61.66,3.27,1.2,4.85,1.91.12.05.24.11.36.16.04.02.05.06.03.1-.02.04-.06.05-.1.03Z"/>
    <path class="cls-6" d="M44.31,40.05c-.27-.02-.5-.2-.73-.31-.24-.1-.49-.16-.71-.29-.2-.14-.43-.21-.66-.28-.28-.09-.52-.27-.8-.36-.31-.09-.59-.27-.88-.4-.31-.13-.61-.26-.89-.44-.42-.2-.83-.41-1.24-.63-.19-.1-.42-.13-.6-.25-.1-.11.02-.18.14-.09.82.25,1.58.67,2.35,1.04.63.28,1.27.55,1.89.85.26.1.53.15.76.31.39.2.83.31,1.19.55.11.04.32.04.3.2-.01.05-.07.1-.13.09Z"/>
    <path class="cls-6" d="M21.68,30.81c-.6-.36-1.28-.6-1.83-1.04-.43-.22-.86-.43-1.24-.74-.54-.27-1.05-.53-1.53-.88-.43-.22-.84-.47-1.22-.77-.54-.27-1.02-.65-1.51-1-.46-.18-.81-.52-1.19-.84-.19-.16-.39-.3-.61-.4-.07-.04-.23-.1-.15-.19.58.18,1.07.67,1.57,1.02.73.3,1.3.86,2,1.21.2.11.35.28.54.4.41.22.83.45,1.21.73.29.2.63.33.94.51.26.16.46.38.73.51.61.24,1.05.75,1.65,1,.25.1.48.23.71.37.03.02.04.06.02.09-.02.04-.06.05-.1.03Z"/>
    <path class="cls-6" d="M12.89,25.44c-.59-.28-1.07-.72-1.55-1.16-.53-.41-1.1-.78-1.59-1.23-.68-.71-1.43-1.35-2.15-2.02-1.1-1.19-1.93-2.59-2.99-3.81-1.15-1.54-2.32-3.09-3.28-4.75C.63,11.01.24,9.44.03,7.86c-.01-.23-.03-.46.05-.68,0-.03.03-.04.06-.04.03,0,.05.03.05.06-.07.34,0,.71.07,1.05.23.93.39,1.88.77,2.76.23.63.47,1.27.84,1.84,1.54,2.45,3.4,4.67,5.11,7,.63.89,1.49,1.57,2.27,2.33.77.9,1.77,1.49,2.64,2.26.32.35.74.56,1.13.8.12.08,0,.28-.13.21Z"/>
    <path class="cls-6" d="M14.5,26.49c-.27-.19-.56-.36-.83-.54-.29-.26-.62-.47-.97-.64-.09.02-.14-.07-.12-.15.03-.12.16-.07.23,0,.61.31,1.15.7,1.72,1.07.08.05.2.13.13.24-.03.05-.11.07-.16.03Z"/>
    <path class="cls-6" d="M.06,7.53c-.13-.05-.01-.22-.03-.33.03-.34.01-.68.06-1.02,0-.57.03-1.02.16-1.59.04-.17.07-.34.13-.5,0-.03.04-.04.07-.03.08.05-.02.17-.03.25-.1.37-.12.76-.2,1.14-.02.39-.01.77-.06,1.16,0,.27.03.54-.03.81.03.05-.02.12-.08.11Z"/>
    <path class="cls-3" d="M104.88,77.68c.23.4.11.97-.31,1.23-.6.33-1.19.68-1.75,1.07-1.77,1.51-3.6,3-5.49,4.34-1.14.9-2.34,1.71-3.53,2.54-.94.76-1.91,1.47-2.92,2.12-1.85,1.21-3.46,2.74-5.35,3.89-1.35,1.09-2.84,1.98-4.19,3.07-.75.59-1.54,1.14-2.36,1.65-.11.06-.21.13-.33.19-.16.34-.54.58-.92.52-.18-.03-.35-.12-.51-.3-1.39-1.78-2.25-3.91-3.72-5.62-1.08-1.25-1.76-2.78-2.88-4.01-1.15-1.54-2.03-3.26-3.2-4.79-.7-1.03-1.06-2.22-1.65-3.31-.59-1.04-1.3-2.02-1.88-3.07-.24-.45-.58-.9-.56-1.43,0-.15.16-.26.3-.25.03,0,.06.01.09.02.05-.39.47-.68.7-.97,1.12-1.09,2.14-2.29,3.35-3.29.65-.56,1.17-1.25,1.8-1.82.79-.71,1.63-1.36,2.35-2.15,1.7-1.55,3.53-2.97,5.29-4.46.08.09.16.19.24.29.19.22.4.4.62.57h0c-.12.1-.25.19-.38.29-.01,0-.02.02-.03.03-.15.11-.3.23-.45.34-.15.11-.3.22-.45.33-.15.11-.3.22-.46.33-.26.2-.52.41-.78.62l-.2.15c-.07.05-.13.1-.2.16-.05.03-.09.07-.13.1-.11.09-.22.17-.33.26-.11.09-.22.17-.33.25-.12.1-.25.19-.37.29-.05.03-.09.07-.14.1-.05.03-.09.07-.14.1-.07.05-.14.1-.21.15-.02.01-.03.02-.05.04-.1.07-.19.14-.29.21,0,0,0,0,0,0-.11.1-.22.19-.33.29-.06.06-.13.11-.19.17-.26.23-.52.46-.78.68-.17.15-.35.3-.52.45h0c-.09.07-.18.15-.27.22-.06.05-.12.1-.18.14-.05.04-.09.07-.14.11-.05.04-.09.07-.14.1-.03.02-.06.05-.09.07-.06.05-.12.09-.19.14-.23.21-.46.42-.69.63-.12.1-.23.21-.35.32-.12.1-.23.21-.35.31-.12.1-.23.21-.35.31-.12.11-.23.21-.35.32-.23.21-.47.42-.7.63-.35.32-.7.63-1.04.95-.23.21-.46.42-.69.64-.11.11-.23.21-.34.32-.23.21-.45.43-.68.65-.03.03-.06.06-.09.09,0,0,0,0,0,0-.02.02-.04.04-.06.06,0,0-.01.01-.02.02-.03.03-.06.06-.08.08-.03.03-.06.06-.08.08-.02.02-.04.04-.06.06-.02.02-.03.03-.05.05,0,0,0,.01-.01.02-.02.02-.04.04-.05.06-.02.03-.04.05-.06.08-.03.04-.05.07-.07.11-.01.02-.02.04-.03.06,0,.01-.01.02-.02.03,0,.01-.01.02-.02.03h0s-.01.01-.02.02c0,0-.01.01-.02.02,0,0,0,0,0,0-.02,0-.04.02-.06.02-.02,0-.03,0-.05,0,0,0,0,0,0,0,0,0,0,0-.01,0,0,0-.02,0-.03,0,0,0,0,0,0,0h0s0,.03,0,.04h0s0,.05,0,.07c0,.03.01.05.02.08s.02.05.03.07c0,.03.02.05.03.07,0,.01.01.02.02.04.01.02.02.05.04.07.03.06.06.11.08.16,1.15,1.9,2.6,3.61,3.48,5.67.08.13.17.26.25.39.09.13.17.26.26.39h0c.04.06.09.13.13.19.09.13.18.25.27.38.1.13.19.26.29.39.17.23.35.46.52.69.08.11.16.21.24.32l.03.04.25.33c.04.06.09.12.13.17.09.12.17.23.25.35.13.18.25.35.37.53.08.12.16.24.24.36.03.05.07.1.1.16.03.05.07.1.1.16h0c.06.07.12.14.18.21.12.14.24.28.36.43.06.07.12.14.18.21.06.07.12.14.18.21.06.07.12.14.18.21.06.07.12.14.18.21h0c.07.08.13.16.2.24s.13.16.19.25c.06.08.12.16.18.24,0,0,.01.02.02.03.06.08.12.16.17.23.06.08.12.17.18.25.06.08.12.17.18.26.06.09.12.17.17.26.06.09.11.18.17.27.04.06.09.11.13.17.02.03.05.06.07.09.04.05.09.1.13.15.11.14.23.27.34.41.05.05.09.11.14.16.05.05.09.11.14.16.09.11.18.22.27.32.05.05.09.11.14.16.06.07.12.15.18.22l.04.05c.06.08.12.15.18.23.09.11.17.23.25.34.02.03.04.06.06.09.02.03.04.06.06.09.05.08.1.16.16.24.16.25.32.51.49.76.1.15.19.31.29.46.06.09.11.17.17.26.06.09.12.19.19.28.07.11.14.21.22.32,0,0,0,.01.01.02.07.11.15.21.22.32.18.25.36.49.55.73.05.06.1.12.15.18.06.08.13.15.19.23,0,0,0,0,.01.01,0,0,0,0,.01.01h0c.16-.12.33-.25.49-.37.07-.06.15-.12.22-.17.06-.04.11-.09.17-.13.07-.05.14-.11.21-.16.2-.16.4-.32.61-.48.12-.1.24-.19.36-.29.12-.1.24-.19.36-.29.09-.07.18-.14.27-.22.07-.06.14-.11.21-.17.04-.03.08-.06.12-.1.2-.16.4-.32.59-.49.06-.05.12-.1.18-.15.1-.08.2-.16.3-.24h0c.1-.08.2-.16.3-.24l.15-.12c.15-.12.3-.24.45-.36.1-.08.2-.16.3-.24.05-.04.1-.08.15-.12.03-.02.05-.04.08-.06.03-.02.05-.04.07-.06.05-.04.1-.08.15-.12l.15-.12c.11-.09.22-.17.33-.25.08-.06.16-.12.24-.18.12-.09.24-.18.35-.26.1-.08.21-.15.31-.23l.05-.04c.09-.06.17-.12.26-.19.1-.07.21-.15.32-.22.25-.21.5-.42.75-.63.12-.1.23-.19.35-.29.06-.05.12-.1.18-.15.07-.06.15-.12.23-.18.15-.12.3-.24.46-.37,0,0,0,0,.01-.01.14-.11.27-.22.41-.33.12-.09.23-.18.35-.27.02-.02.04-.03.07-.05.28-.22.55-.43.83-.64.55-.43,1.11-.85,1.67-1.27.08-.06.16-.12.24-.18.18-.14.36-.27.55-.41.09-.07.18-.14.27-.21l.82-.62c.29-.22.57-.43.86-.65.34-.26.67-.51,1-.77.1-.08.21-.16.31-.25.18-.14.36-.28.54-.42.03-.02.06-.05.09-.07.05-.04.09-.07.13-.11.02-.01.03-.03.05-.04,0,0,0,0,0,0,.09-.07.18-.14.27-.21s.18-.14.27-.21c.05-.04.1-.08.15-.12.01,0,.02-.02.03-.02.12-.09.24-.18.36-.27.02-.02.04-.03.06-.05.26-.2.53-.39.79-.59.08-.06.17-.13.25-.19.03-.02.06-.05.09-.07.02-.01.03-.02.05-.04.07-.05.14-.1.2-.16.07-.05.14-.11.2-.16.11-.09.22-.18.34-.27.07-.05.14-.11.2-.16.14-.11.27-.23.41-.34.02-.01.03-.03.05-.04.05-.04.09-.08.14-.12.07-.06.13-.12.2-.17h0s.1-.1.15-.14c.1-.09.2-.19.3-.28.03-.03.07-.06.1-.09.03-.03.07-.06.1-.09.04-.03.08-.06.11-.09.05-.04.11-.09.16-.13,0,0,.01-.01.02-.02.1-.08.2-.16.31-.23.09-.07.18-.13.27-.2.02-.01.03-.02.05-.03.09-.06.18-.12.27-.19.11-.07.22-.15.33-.22.08-.05.17-.11.25-.16h.02c.06-.05.12-.09.17-.12.03-.02.06-.04.09-.06.03-.02.06-.04.09-.06.02-.01.03-.02.05-.03.03-.02.06-.04.09-.06.02-.01.03-.02.05-.03,0-.01,0-.02,0-.03-.04-.39-.03-.78-.06-1.18,0-.08-.01-.16-.02-.23,0-.04,0-.08-.01-.12-.01-.12-.03-.23-.06-.34-.02-.05-.03-.1-.05-.16-.05-.16-.09-.31-.14-.47h0s-.03-.02-.04-.03h-.01s-.01-.02-.02-.02c0,0-.02-.01-.03-.02,0,0,0,0,0,0,0,0-.01,0-.02-.01h0s0-.02-.01-.02c0,0-.02-.02-.03-.03,0,0-.01-.02-.02-.02h0s0,0-.01-.02c0,0,0,0,0,0,0,0-.01-.01-.02-.02,0-.01-.02-.02-.03-.04,0,0,0-.01-.01-.02-.01-.02-.02-.04-.03-.05-.01-.02-.02-.04-.03-.07-.01-.02-.02-.05-.03-.07-.02-.06-.04-.12-.06-.18h0c-.08-.25-.15-.5-.23-.74-.04-.12-.07-.25-.11-.38-.03-.12-.07-.25-.1-.38h0c-.03-.13-.07-.25-.1-.38-.02-.06-.03-.13-.05-.19-.03-.11-.06-.21-.09-.32-.02-.08-.04-.16-.07-.25-.02-.06-.03-.12-.05-.19-.1-.34-.21-.67-.32-1-.04-.11-.08-.22-.12-.32-.05-.14-.1-.28-.16-.42-.04-.09-.07-.19-.11-.28-.06-.15-.12-.3-.18-.45l-.1-.24c-.03-.08-.06-.16-.1-.24l-.1-.24c-.06-.15-.12-.31-.18-.46,0-.01,0-.02-.01-.03-.03-.08-.06-.16-.1-.25-.01-.04-.03-.07-.04-.11-.01-.04-.03-.07-.04-.11-.03-.07-.05-.14-.08-.21-.02-.06-.05-.13-.07-.19-.03-.08-.06-.16-.09-.24h0c-.05-.14-.11-.29-.17-.43h0c-.04-.11-.09-.22-.13-.33-.01-.03-.03-.06-.04-.1-.01-.03-.02-.05-.03-.08,0-.02-.01-.03-.02-.05-.03-.08-.07-.16-.1-.24-.04-.09-.08-.18-.12-.26-.07-.15-.14-.3-.22-.45-.02-.05-.05-.09-.07-.14-.03-.07-.07-.13-.1-.2-.04-.08-.09-.16-.13-.24-.08-.12-.15-.24-.23-.37-.08-.12-.15-.24-.22-.37h0c-.07-.12-.15-.25-.22-.37h0c-.07-.12-.15-.25-.22-.37-.07-.13-.15-.25-.22-.38l-.22-.37c-.04-.06-.07-.12-.11-.19-.07-.13-.15-.26-.23-.38-.03-.06-.07-.12-.1-.17-.04-.06-.07-.12-.11-.18-.04-.06-.08-.12-.11-.18-.02-.03-.03-.05-.05-.08-.02-.02-.03-.05-.04-.07-.02-.02-.03-.05-.05-.07-.06-.09-.11-.18-.17-.26-.04-.06-.08-.12-.12-.18-.04-.06-.07-.11-.11-.17,0-.01-.02-.03-.03-.04-.02-.03-.04-.06-.06-.09-.02-.02-.03-.04-.05-.07-.02-.02-.03-.05-.05-.07-.08-.12-.16-.23-.25-.35-.05-.07-.11-.15-.16-.22-.01-.01-.02-.03-.03-.05-.01-.01-.02-.03-.03-.04-.03-.03-.05-.07-.08-.1-.05-.06-.1-.12-.15-.19,0,0-.01-.01-.02-.02-.02-.03-.05-.06-.07-.09,0,0-.01-.01-.02-.02-.02-.03-.05-.06-.07-.08,0,0,0-.01-.01-.01-.02-.03-.05-.06-.07-.08-.03-.04-.06-.07-.09-.1-.11-.13-.22-.26-.33-.4-.02-.02-.03-.04-.05-.06l-.1-.12s-.07-.08-.1-.11c-.03-.04-.07-.08-.1-.12h0c-.05-.06-.1-.12-.16-.18-.03-.03-.06-.07-.09-.1-.05-.06-.11-.12-.16-.18-.13-.14-.26-.27-.39-.4h0c-.05-.05-.09-.1-.14-.14h0c-.07-.07-.15-.14-.23-.21-.02-.02-.04-.03-.05-.05-.12-.1-.24-.2-.36-.29-.06-.05-.12-.09-.18-.13-.03-.02-.06-.04-.09-.06-.03-.02-.06-.04-.09-.06-.03-.02-.06-.04-.1-.06-.09-.06-.18-.11-.28-.16,0,0,0,0-.01,0,0,0-.02,0-.02-.01-.03-.01-.05-.03-.08-.04-.04-.02-.08-.04-.13-.06-.04-.02-.09-.04-.13-.06-.04-.02-.09-.04-.13-.05s-.09-.03-.13-.05c-.14.05-.27.1-.4.15-.01,0-.02,0-.03.01s-.02,0-.03.01c-.12.05-.24.11-.37.17-.18.09-.37.18-.55.28-.05.03-.11.06-.16.09-.08.05-.17.09-.25.14-.12.07-.23.14-.35.2-.05.03-.11.06-.16.09-.2.12-.41.24-.61.35-.05.03-.1.06-.15.08-.02.01-.04.02-.05.03-.07.04-.14.07-.21.11-.34.14-.67.29-1,.45-.16.08-.33.16-.49.25s-.32.17-.48.26c-.24.13-.48.27-.72.41-.16.09-.32.18-.48.27-.13.08-.26.15-.39.22-.11.06-.21.12-.32.19h0c-.26.14-.52.28-.78.42-.22.12-.44.24-.66.36l-.13.07c-.07.04-.14.07-.21.11-.05.03-.09.05-.14.08-.02.01-.04.02-.06.03-.09.05-.18.1-.28.16-.09.05-.18.11-.27.16-.07.04-.15.09-.22.13-.01,0-.02.01-.03.02-.05.03-.1.06-.15.09-.05.03-.1.06-.14.09-.08.05-.16.1-.24.15-.36.23-.72.47-1.08.73-.01,0-.02.02-.04.03-.01,0-.02.02-.04.03-.01.01-.03.02-.04.03-.03.02-.06.05-.09.07-.02.02-.05.03-.07.05-.06.04-.12.08-.18.12-.06.04-.12.08-.18.11h0s.08.09.11.13h0s.07.09.11.13c.01.01.02.02.03.04h0s.03.05.05.08c.01.03.02.06.03.09,0,.01,0,.03,0,.04,0,0,0,0,0,0,0,.02,0,.03,0,.04s0,.03,0,.04h0s0,0,0,0c.12-.08.23-.16.35-.24.14-.1.28-.19.43-.29.06-.04.11-.07.17-.11.05-.03.1-.07.16-.1l.16-.1c.05-.03.11-.06.16-.1.05-.03.11-.06.16-.09.06-.03.12-.06.18-.09.01,0,.03-.01.04-.02.03-.01.05-.03.08-.04,0,0,.02,0,.03-.01.03-.02.06-.03.09-.05.04-.02.08-.04.11-.06.02,0,.04-.02.06-.03.04-.02.07-.04.11-.05.04-.02.07-.03.11-.05s.07-.03.1-.05c.02-.01.05-.02.07-.03.02,0,.04-.02.07-.03.01,0,.02,0,.04-.01.03-.01.05-.02.08-.03,0,0,0,0,0,0,0,0,.01,0,.02,0,.02,0,.05-.01.07-.02,0,0,0,0,0,0,0,0,.02,0,.02,0,.02,0,.04-.01.06-.01.02,0,.03,0,.04,0,0,0,.02,0,.03,0,.1-.01.19-.01.28.01.02,0,.04.01.06.02.03.01.06.02.09.04,0,0,.02.01.03.02.01,0,.02.01.03.02,0,0,.02.01.03.02s.02.01.03.02.02.02.03.03c0,0,.02.02.03.03.03.03.05.06.08.09,0,.01.02.02.02.03,0,.01.02.02.02.04,0,.01.02.03.02.04,0,0,0,0,0,0,.01.02.03.05.04.08,0,.01.02.03.02.05,0,0,0,.01,0,.02,0,.02.01.03.02.05.01.03.02.06.03.09,0,.02.01.03.02.05,0,.02.01.04.02.06.03.1.06.21.09.33.02.06.02.12.02.17,0,.02,0,.03,0,.05,0,.01,0,.03-.02.04h0s.02.02.03.03c0,0,.01.02.02.02,0,0,0,0,0,0,0,0,.01.01.02.02,0,0,.01.02.02.02,0,0,0,.02.01.02.01.02.02.04.03.07,0,.02.01.05.02.07,0,0,0,.02,0,.03v.02s0,.05,0,.08c0,0,0,.02,0,.02,0,0,0,.02,0,.03,0,.01,0,.02,0,.03h0s0,.02,0,.02c0,0,0,.01,0,.01,0,.01,0,.02-.02.03,0,0,0,0,0,.01,0,0,0,0,0,0,0,.01-.02.02-.03.03,0,0,0,0,0,0,0,0-.01.02-.02.02-.01.01-.02.02-.04.03-.01,0-.03.02-.04.03-.09.06-.19.12-.29.18-.1.06-.19.12-.29.17h0c-.06.04-.13.08-.19.12-.06.03-.11.06-.16.1-.16.1-.32.2-.47.31h0c-.07.05-.14.1-.21.15-.18.14-.36.28-.54.42-.12.1-.24.2-.37.3-.22.18-.44.35-.68.52h0c-.09.07-.18.13-.28.19-.09.06-.19.12-.29.17-.07.04-.15.08-.22.12-.04.02-.07.04-.11.06-.18.1-.37.19-.56.29-.05.03-.1.05-.15.08-.1.05-.2.11-.29.16-.05.03-.09.05-.13.08,0,0-.02.01-.03.02-.04.03-.08.05-.12.08-.05.03-.09.06-.14.09-.03.01-.05.03-.08.05-.02,0-.03.02-.05.03,0,0,0,0-.01,0,0,0-.01,0-.02.01,0,0-.02.01-.03.02,0,0-.02.01-.03.02,0,0-.02.01-.03.02-.02.02-.05.04-.07.06-.03.02-.05.05-.08.07-.03.02-.05.05-.08.07-.04.03-.08.07-.12.1-.02.02-.05.04-.07.06-.02.02-.05.04-.07.06-.02.02-.05.04-.07.06-.05.04-.1.08-.15.11-.05.04-.1.07-.14.1-.07.05-.14.09-.21.13-.01,0-.02.01-.03.02,0,0-.01,0-.02,0s-.01,0-.02,0c0,0,0,0-.01,0-.01,0-.02,0-.03.01-.02,0-.03.01-.05.02-.01,0-.02,0-.03,0,0,0-.02,0-.02,0,0,0,0,0,0,0h0s-.02,0-.03,0c-.02,0-.03,0-.04,0-.01,0-.02.01-.03.02h0s-.02.01-.03.02c0,0,0,0,0,0,0,0-.02,0-.03,0,0,0-.02,0-.03,0-.03,0-.05,0-.08,0,0,0-.02,0-.02,0,0,0-.02,0-.03,0h-.02s0,0,0,0h0s-.01,0-.02,0c0,0,0,0,0,0h0s0,0-.01-.01h0s-.02,0-.02-.02c0,0,0,0-.01-.01,0,0-.01-.01-.02-.02-.03-.03-.06-.07-.1-.1-.03-.03-.06-.07-.09-.1-.02-.02-.03-.03-.05-.05-.02-.02-.03-.03-.05-.05-.08-.09-.15-.18-.22-.27h0s-.04-.06-.06-.09-.04-.06-.06-.09c0-.01-.01-.02-.02-.03,0-.01-.01-.02-.02-.03-.01-.02-.02-.04-.03-.06-.04-.08-.08-.18-.06-.26-.05-.06-.08-.14-.08-.22,0-.03,0-.05.01-.08,0,0,0-.01,0-.02,0,0,0-.02,0-.02,0,0,0-.02.01-.03,0-.01.01-.02.02-.03.01-.01.02-.02.03-.03.01-.01.03-.02.04-.03.02-.02.04-.03.06-.05h.01s.04-.04.06-.05h0s.07-.05.1-.08.07-.05.1-.08c.03-.02.06-.04.08-.06.01,0,.03-.02.04-.03.02-.01.04-.03.06-.04.05-.04.1-.08.15-.12h0s.05-.04.07-.06c.05-.04.09-.08.14-.12.03-.02.06-.05.09-.08.01-.01.03-.02.04-.03.01-.01.02-.02.04-.03.02-.02.05-.05.07-.07.02-.02.05-.04.07-.07.04-.04.08-.07.11-.11,0,0,.02-.02.03-.03.05-.05.09-.09.14-.14.03-.03.06-.06.09-.09.06-.06.12-.13.18-.19.05-.05.09-.09.13-.14.08-.08.16-.16.24-.24.04-.04.08-.08.13-.13.02-.02.04-.04.07-.06,0,0,0,0,0,0,.01-.01.02-.02.03-.03.02-.01.03-.03.05-.05.03-.03.06-.06.1-.09l.07-.06s.05-.04.07-.06h0s.07-.05.1-.08c.07.05.14.11.21.16.14.13.27.28.4.43-.18.13-.35.26-.52.41-.77.69-1.45,1.56-2.4,1.96.16.22.38.4.6.57.03-.03.06-.05.08-.08.73-.67,1.5-1.37,2.4-1.81.19-.11.38-.22.56-.34-.01,0-.02-.01-.03-.03.02,0,.05,0,.07,0,.05,0,.09-.03.13-.05.31-.19.52-.5.84-.68,0,0,0,0,0-.01,0,.01,0,.02,0,.03.8-.62,1.58-1.29,2.48-1.78,0-.01-.02-.03-.02-.04-.09-.22-.15-.45-.24-.66-.8.39-1.58.88-2.3,1.43-.1.07-.2.14-.3.21-.1-.09-.19-.18-.28-.27-.09-.09-.18-.17-.26-.26-.3-.3-.58-.61-.85-.94h0s0,0,0,0c0,0,0,0,0,0,0,0,0,0,0,0-.05-.03-.07-.06-.07-.1h0s0,0,0,0c.01,0,.02,0,.03-.01,0,0,0,0,0,0,.02-.02.01-.05,0-.06,0,0,0,0,0-.01.01-.02.03-.03.05-.04,0,0,0,0,0,0t0,0s0,0,0,0c.01,0,.02-.02.04-.03l.04-.04s.02-.02.03-.03c0,0,.02-.02.03-.03.01,0,.02-.02.03-.03h0s0,0,0,0c.1-.08.19-.16.3-.23.05-.03.1-.04.14-.03,2.07-1.45,4.25-2.74,6.38-4.1.74-.48,1.55-.83,2.32-1.24.95-.65,1.97-1.22,2.97-1.76,1.85-.73,4.76,2.97,5.88,4.23.79.86,1.32,1.89,1.93,2.87.65,1,1.32,1.98,1.85,3.05,1.26,2.75,2.46,5.54,3.26,8.46.36.82.51,2,.63,2.49.04.43.27,1.46.25,2.29Z"/>
    <path class="cls-5" d="M85.25,71.2c0-.08,0-.16,0-.24,0-.04,0-.08-.01-.12h0c-.01-.08-.03-.16-.05-.24,0-.05-.02-.1-.03-.16-.06-.26-.15-.5-.27-.73-.02-.05-.05-.09-.07-.14-.02-.05-.05-.09-.08-.13,0,0,0-.01-.01-.02-.02-.04-.05-.08-.07-.12-.01-.02-.03-.04-.04-.07-.03-.04-.05-.08-.08-.11-.05-.07-.09-.14-.14-.21-.03-.04-.06-.09-.09-.13-.06-.09-.12-.17-.18-.26-.03-.04-.06-.09-.09-.13h0s-.03-.04-.05-.07h0s-.01-.02-.02-.03c-.01-.02-.03-.05-.04-.07l-.03-.06s-.02-.03-.03-.04c-.02-.03-.04-.05-.05-.08,0,0-.01-.02-.02-.02,0,0-.02-.02-.03-.03,0,0-.02-.02-.03-.03-.02-.02-.04-.03-.07-.04,0,0,0,0,0,0-.01,0-.02-.01-.04-.02-.03,0-.06-.02-.08-.02s-.05,0-.08,0c-.01,0-.03,0-.04,0,0,0-.01,0-.02,0,0,0-.01,0-.02,0,0,0,0,0-.01,0,0,0,0,0,0,0,0,0-.01,0-.02,0,0,0,0,0,0,0-.01,0-.03,0-.04.02,0,0,0,0,0,0,0,0,0,0,0,0,0,0,0,0-.01,0-.02,0-.03.02-.04.03-.01,0-.02.02-.03.03-.01,0-.02.02-.03.03,0,0-.02.02-.03.03-.02.02-.03.05-.04.07,0,.01-.01.02-.02.04-.06.15-.03.34.09.49.05.09.11.17.17.27.02.02.03.05.05.07.26.37.59.79.81,1.22.01.03.03.05.04.08.03.05.05.11.07.16.01.03.02.05.03.08.02.06.04.11.05.17h0s-.02.01-.02.02c0,0,0,0,0,0,0,0-.01.01-.02.02,0,0-.01.01-.02.02,0,0,0,0,0,.01,0,0-.01.02-.01.03,0,0,0,.01,0,.02,0,0,0,.01,0,.02-.02.04-.02.08-.03.12,0,.02,0,.04,0,.06,0,.02,0,.05,0,.07,0,.03,0,.06,0,.09,0,.05,0,.1,0,.15,0,.02,0,.03,0,.05,0,.03,0,.06-.01.08,0,.01,0,.02,0,.03,0,.01,0,.02-.01.03s0,.02-.01.03c0,0,0,.02-.01.02,0,0-.01.02-.02.02-.01.02-.03.03-.04.05,0,.01-.02.02-.03.03-.01.01-.02.02-.04.03,0,0-.02.01-.03.02,0,0,0,0,0,0h0s-.02.02-.03.02-.02,0-.03.01c0,0,0,0-.01,0-.01,0-.03,0-.04.01-.02,0-.03.01-.05.02-.03,0-.06.01-.09.02-.02,0-.03,0-.05,0-.03,0-.07,0-.1,0-.02,0-.03,0-.05,0-.02,0-.03,0-.05,0,0,0-.02-.01-.03-.02-.02-.01-.04-.02-.06-.03s-.04-.02-.06-.02c-.04-.01-.08-.03-.11-.04-.04-.02-.07-.03-.11-.05-.04-.02-.07-.03-.11-.05-.03-.01-.05-.03-.08-.04-.05-.03-.1-.06-.15-.09-.02-.02-.05-.03-.07-.05-.03-.02-.06-.05-.1-.07-.03-.02-.06-.05-.09-.07-.03-.03-.07-.05-.1-.08s-.06-.06-.1-.08c-.06-.06-.13-.11-.19-.17-.04-.04-.08-.08-.12-.12-.02-.02-.04-.04-.06-.06-.02-.02-.04-.04-.06-.06-.07-.08-.15-.15-.22-.23,0,0-.01-.01-.02-.02-.06-.06-.12-.12-.18-.19-.06-.06-.12-.12-.18-.18-.02-.02-.04-.04-.06-.06-.04-.03-.08-.06-.11-.1,0,0,0,0-.01-.01,0,0-.02-.02-.02-.02-.03-.03-.06-.06-.1-.09,0,0-.01-.01-.02-.02-.01-.01-.03-.02-.04-.03,0,0-.02-.01-.03-.02,0,0-.01,0-.02-.01-.02,0-.04-.02-.06-.02-.01,0-.02,0-.03,0,0,0,0,0,0,0,0,0-.01,0-.02,0,0,0-.01,0-.02,0-.02,0-.03,0-.04,0,0,0,0,0,0,0,0,0-.01,0-.02,0,0,0,0,0,0,0,0,0,0,0-.01,0,0,0-.01,0-.02,0,0,0-.02.01-.03.02,0,0-.01.01-.02.02,0,0,0,.01-.01.01,0,0-.01.02-.02.02,0,0,0,.02-.01.02-.01.01-.03.03-.04.05,0,0,0,.01,0,.02,0,.01,0,.03-.01.04,0,0,0,.02,0,.03,0,.02,0,.05.01.08.09.17.19.35.29.52.02.04.05.08.07.12s.05.08.08.12c.02.02.03.05.05.07.01.02.03.04.04.06.04.06.09.12.13.18.04.05.07.09.11.14.04.05.08.09.12.14,0,.01.02.02.03.03.04.05.08.09.13.14.02.03.05.05.07.08.03.03.05.05.08.08.25.24.53.45.84.61.02.01.05.03.07.04.01,0,.02.01.04.02.03.01.06.03.09.04.05.02.1.04.16.06.02,0,.03.01.05.02,0,0,0,0,0,0,.02,0,.04.01.06.02.02,0,.03.01.05.01h0s0,0,.01,0c.03.01.05.02.07.02,0,0,.02,0,.03,0,.01,0,.03,0,.04,0,0,0,0,0,0,0,0,0,.01,0,.02,0t0,0s0,0,0,0h0s0,0,0,0c0,0,0,0,0,0,.06.01.12.02.18.03.11.02.21.03.31.03.03,0,.06,0,.09,0,.03,0,.06,0,.08,0,.02,0,.04,0,.05,0h.01c.08-.02.16-.03.23-.06.01,0,.03,0,.04-.01,0,0,0,0,.01,0,.03-.01.05-.02.08-.03.03-.01.05-.02.07-.04.02,0,.04-.02.05-.03.01,0,.02-.01.03-.02.08-.05.16-.12.23-.19.02-.01.03-.03.04-.05.02-.02.04-.04.06-.07.01-.01.03-.03.04-.05.01-.02.03-.03.04-.05.01-.02.02-.03.03-.05.03-.05.06-.09.08-.14.01-.03.03-.06.04-.08.01-.03.02-.06.03-.08h0s.02-.07.03-.1.02-.06.03-.1c0-.03.01-.06.02-.09,0,0,0,0,0,0,0-.03.01-.06.01-.09,0-.03,0-.06,0-.09ZM86.69,85.05c.29-.5.06-1.03-.16-1.5,0-.04-.02-.08-.03-.11-.02-.04-.03-.07-.05-.1,0-.01-.02-.03-.03-.04-.02-.03-.04-.05-.06-.08,0,0,0,0-.01-.01,0,0-.02-.02-.02-.02-.03-.03-.06-.05-.1-.08-.02-.01-.03-.02-.05-.03-.02-.01-.04-.02-.06-.03,0,0,0,0-.01,0-.02,0-.04-.02-.06-.02-.04-.01-.08-.02-.12-.03,0,0-.01,0-.02,0-.07-.01-.15-.01-.22,0-.02,0-.03,0-.05,0h0s-.01,0-.02,0c-.02,0-.05.01-.07.02h0s-.05.02-.07.03h0s-.02-.02-.04-.03l-.04-.03s0,0,0,0,0,0,0,0c-.02-.02-.04-.04-.05-.05-.02-.01-.03-.03-.05-.04,0,0,0,0,0,0-.02-.02-.04-.04-.06-.05,0,0,0,0,0,0-.02-.02-.05-.05-.07-.07s-.05-.05-.07-.08c0,0-.01-.01-.02-.02s-.01-.01-.02-.02h-.01s-.03-.05-.04-.07h0c-.04-.06-.09-.11-.13-.17-.09-.11-.17-.23-.26-.33-1.72-2.03-3.32-4.12-5.06-6.14h0s0-.03,0-.03c0,0,0-.01,0-.02,0,0,0-.01,0-.02s0-.01,0-.01c0,0,0-.01,0-.02v-.02s-.01-.01-.01-.01c0,0,0-.01,0-.02h0s-.01-.02-.02-.03c0,0,0,0,0,0t0,0s0,0-.01-.01c0,0,0,0-.01-.01h0s-.01-.01-.02-.02c0,0-.02-.01-.03-.02h0s0-.02,0-.03c0-.01,0-.02,0-.03,0-.01,0-.02-.01-.03,0-.02-.02-.04-.03-.06,0,0,0,0,0,0,0-.02-.02-.03-.02-.05,0-.02-.02-.03-.03-.05,0,0,0-.01-.01-.02h0c-.07-.12-.16-.24-.24-.36h0s0-.08,0-.12c0-.03,0-.06-.02-.1,0,0,0-.01,0-.02,0,0,0-.02,0-.02,0-.05-.02-.1-.03-.14,0-.02,0-.03-.01-.05,0-.03-.02-.06-.03-.1,0-.02-.02-.05-.02-.07,0-.02-.01-.04-.02-.06-.02-.05-.05-.11-.07-.16-.01-.02-.02-.04-.03-.06-.01-.03-.03-.05-.04-.07,0,0,0,0,0,0,0,0,0,0,0-.01-.02-.03-.04-.06-.06-.1-.03-.04-.06-.08-.09-.12,0,0,0,0,0,0-.03-.04-.06-.08-.09-.12,0-.01-.02-.03-.03-.04-.01-.01-.02-.03-.03-.04-.01-.02-.03-.04-.05-.05,0,0,0-.01-.01-.02-.03-.03-.06-.06-.08-.09-.05-.05-.1-.1-.15-.14-.06-.06-.13-.11-.2-.16-.04-.03-.08-.06-.12-.09,0,0,0,0-.01,0-.05-.03-.09-.06-.14-.09-.02-.01-.04-.03-.06-.04-.04-.02-.07-.04-.11-.06-.02-.01-.04-.02-.07-.04-.04-.02-.08-.04-.12-.06-.03-.01-.06-.03-.08-.04,0,0-.01,0-.02,0-.03-.02-.07-.03-.1-.05-.06-.03-.13-.05-.2-.08-.03-.01-.05-.02-.08-.03,0,0-.02,0-.03-.01-.03-.01-.06-.02-.08-.03-.04-.01-.07-.03-.11-.04-.06-.02-.11-.04-.17-.05-.09-.03-.19-.05-.28-.08-.05-.01-.1-.03-.15-.04,0,0,0,0-.01,0l-.14-.03s-.05-.01-.08-.02c-.05-.01-.1-.02-.14-.03-.12-.02-.24-.04-.35-.06-.04,0-.09,0-.13-.01h0s-.02,0-.04,0c-.01,0-.03,0-.04,0,0,0-.01,0-.02,0-.03,0-.06,0-.09,0-.13,0-.25,0-.38,0-.01,0-.02,0-.04,0-.02,0-.04,0-.06,0-.06,0-.13.01-.19.02h-.05s-.01,0-.02,0c-.02,0-.04,0-.06,0-.04,0-.07,0-.11.01-.01,0-.02,0-.04,0,0,0,0,0-.01,0-.03,0-.05,0-.08.01-.04,0-.09.01-.13.02-.04,0-.08.02-.13.03-.03,0-.05.01-.08.02-.06.01-.12.03-.19.05s-.12.03-.18.05c-.12.04-.24.07-.37.11-.03,0-.07.02-.1.03-.07.02-.14.04-.22.06h0c-.18.05-.38.11-.56.18h0s-.06.02-.08.03c-.03,0-.05.02-.08.03-.17.07-.34.15-.49.24-.07.04-.13.08-.19.13,0,0,0,0,0,0-.08.06-.16.11-.24.17-.04.03-.08.06-.12.09-.03.03-.07.05-.1.08-.09.07-.18.15-.27.23-.02.01-.03.03-.05.04-.16.14-.31.29-.45.45-.02.02-.04.04-.05.06s-.04.04-.05.06c-.04.04-.07.08-.11.13l-.03.03s-.04.05-.06.08c-.04.05-.07.1-.11.15-.03.04-.06.09-.09.13-.07.1-.14.21-.2.31l-.02.03s-.02.04-.03.06c-.02.04-.04.07-.06.11-.02.04-.04.07-.06.11-.02.04-.04.07-.05.11,0,0,0,0,0,0-.02.04-.03.07-.05.11-.02.05-.04.1-.06.15-.02.04-.03.09-.05.13-.03.09-.07.19-.09.28,0,.02-.01.04-.02.07h0s-.02.09-.03.12c-.02.06-.03.13-.04.19,0,.04-.02.08-.02.12,0,.02,0,.04-.01.07-.03.22-.05.44-.05.67-.02.1-.03.2-.04.3-.01.14-.01.27,0,.4,0,.02,0,.03,0,.05,0,.02,0,.03,0,.05,0,0,0,.02,0,.02,0,0,0,0,0,0,0,.02,0,.03,0,.05,0,.02,0,.04,0,.05,0,0,0,.02,0,.03,0,.03,0,.07.01.1,0,.04.01.08.02.11,0,.03.01.05.02.08,0,.01,0,.03.01.05,0,0,0,.02,0,.02,0,.03.01.05.02.08,0,.03.02.07.03.1,0,0,0,0,0,.01,0,.03.02.06.03.09.02.06.04.11.06.17.01.03.02.06.04.09,0,0,0,.01,0,.02,0,.02.01.03.02.05.01.03.02.06.04.09.07.15.14.31.23.45,0,.02.02.04.03.06.01.02.02.04.03.05.03.05.06.09.09.14.03.04.05.08.08.12.09.11.14.24.2.38l.04.08s.04.1.07.14c0,.02.02.03.03.05,0,0,0,.01,0,.01.01.02.02.04.03.05,0,0,0,0,0,0h0s0,.02,0,.04c0,0,0,.01,0,.02,0,0,0,0,0,.01,0,0,0,0,0,.01,0,0,0,.02.01.02,0,.01.01.02.02.03,0,0,.02.02.03.02h0s.02.02.03.02c.01,0,.02.01.03.01,0,0,.02,0,.02,0s.02,0,.03,0c0,0,0,0,.01,0t0,0s.01,0,.02,0c0,0,.01,0,.02,0,0,0,.01,0,.02,0,.01,0,.02,0,.03,0,.01,0,.02,0,.03,0,0,0,.01,0,.02,0,0,0,.01,0,.02,0,.02,0,.03,0,.04-.01,0,0,.01,0,.01,0,0,0,.01,0,.02-.01,0,0,.01,0,.02-.01,0,0,.01,0,.01-.01.01-.01.02-.02.03-.03,0,0,0,0,0,0,.03,0,.05-.01.08-.02.03,0,.05-.01.08-.02,0,0,.01,0,.02,0,0,0,.01,0,.02,0,0,0,0,0,.01,0,0,0,0,0,0,0,0,0,.02,0,.03,0h0s0,0,0,0h0c.17.2.34.39.51.58.05.06.1.12.16.18.04.05.09.11.13.16.02.03.04.05.06.08.02.02.04.05.05.07.03.04.06.08.08.12.03.05.07.1.1.15.62.77,1.23,1.56,1.83,2.35.24.32.48.63.72.95.2.27.4.53.6.8.09.12.18.24.27.36.16.21.31.41.47.61.06.07.12.15.18.22.02.03.04.06.07.08.06.08.12.16.19.24.11.14.21.27.32.41.08.09.15.19.23.28.08.09.15.19.23.28.12.14.24.28.36.42-.07.04-.13.08-.19.13-.02.01-.04.03-.06.05,0,0-.01,0-.01.01,0,0,0,0-.01.01,0,0-.02.02-.03.03,0,0-.02.02-.02.03,0,0-.02.02-.02.03,0,.01-.02.02-.02.03,0,.01-.01.02-.02.03h0s-.01.02-.02.04c0,0,0,0,0,0,0,.01,0,.02-.01.04s0,.02-.01.04c0,.01,0,.03,0,.04,0,.01,0,.03,0,.04,0,0,0,0,0,0,0,0,0,.01,0,.02,0,0,0,0,0,.01,0,0,0,0,0,.01,0,0,0,0,0,0,0,.01,0,.02,0,.03,0,0,0,.02,0,.03,0,.01,0,.03,0,.05,0,.02,0,.04.01.06,0,.02.01.04.02.06,0,.03.02.06.03.09,0,.01.01.03.02.05,0,.01.01.02.02.03.12.27.25.57.45.81.02.02.04.04.06.06.08.08.16.15.26.21.08.04.16.06.24.06.02,0,.03,0,.05,0,.02,0,.03,0,.04,0s.03,0,.04-.01c.01,0,.02,0,.03-.01s.02,0,.03-.01c.12-.05.23-.14.32-.25.01-.01.02-.03.04-.04.01-.01.02-.03.03-.04.02-.03.04-.06.06-.08.03-.03.06-.06.09-.08.05-.05.11-.1.17-.14.04-.03.08-.07.12-.1,0,0,0,0,.01,0,.03-.02.06-.05.09-.07.05-.04.09-.07.14-.11.05-.04.11-.08.16-.12.11-.08.22-.16.33-.23.05-.04.11-.08.16-.11.17-.11.33-.23.49-.34.16-.11.32-.23.47-.36.03-.02.05-.04.08-.06,0,0,0,0,0,0,.03-.02.05-.04.08-.07.05-.04.1-.08.15-.13.09-.07.19-.14.29-.2.1-.07.19-.13.29-.2.12-.08.23-.16.35-.24.09-.06.18-.12.28-.18l.25-.17.59-.39c.28-.18.55-.36.83-.55.11-.07.22-.15.33-.22,0,0,.01,0,.02-.01.1-.07.19-.14.29-.2,0,0,.01,0,.02-.01.11-.08.21-.16.32-.23.14-.11.28-.21.41-.32.04-.03.09-.07.13-.11.04-.03.08-.06.11-.09s.08-.06.11-.1c.05-.05.1-.09.16-.13.01-.01.03-.02.04-.03.03-.02.06-.04.08-.06.02-.01.03-.02.04-.03.09-.06.18-.12.27-.19.03-.02.05-.04.08-.06.02-.01.04-.03.05-.04.02-.01.04-.03.06-.05.09-.07.18-.15.25-.24,0,0,0-.01.01-.01,0,0,.02-.02.02-.03,0,0,0,0,0-.01,0,0,.01-.02.02-.03.01-.01.02-.03.03-.04,0-.01.02-.03.03-.04,0-.01.02-.02.02-.04.01-.02.03-.04.04-.07ZM89.95,69.11c.07-.09.1-.19.09-.28,0-.02,0-.04,0-.06,0-.04-.02-.07-.03-.11,0-.01,0-.02-.01-.03,0-.02-.01-.03-.02-.05-.02-.03-.03-.06-.05-.09-.02-.03-.03-.05-.05-.08-.03-.05-.07-.1-.1-.15,0,0,0,0,0,0,0-.01-.01-.02-.02-.04-.05-.09-.1-.18-.15-.27l-.14-.27c-.03-.06-.06-.12-.09-.18s-.06-.12-.09-.18c-.1-.19-.19-.37-.29-.56-.03-.05-.06-.11-.09-.16,0-.01-.01-.02-.02-.03-.03-.05-.05-.1-.08-.14-.07-.13-.15-.26-.23-.39-.03-.04-.06-.09-.08-.13-.04-.06-.08-.12-.12-.18-.04-.06-.08-.11-.12-.17-.04-.06-.08-.11-.13-.17-.03-.04-.06-.07-.09-.1-.01-.01-.03-.02-.04-.03-.02-.01-.05-.03-.08-.04-.03-.01-.06-.02-.09-.02-.01,0-.02,0-.03,0-.02,0-.05,0-.07,0,0,0-.02,0-.03,0-.01,0-.02,0-.03,0-.02,0-.04.01-.07.02,0,0-.02,0-.02.01,0,0-.01,0-.02.01,0,0-.02.01-.03.02,0,0,0,0,0,0-.01,0-.02.02-.03.02-.01,0-.02.02-.03.03-.02.02-.03.04-.05.06-.02.03-.04.07-.05.11-.02.07-.03.15,0,.23.04.1.1.2.16.29.03.04.05.08.08.11l.02.02s.05.06.07.09c.06.07.12.15.17.22.06.07.11.14.16.21.05.07.1.15.15.22.05.08.09.15.14.23s.09.15.13.23c.02.04.04.08.06.12.1.18.2.37.31.55.02.03.03.06.05.09.03.06.07.11.11.17-.16-.06-.32-.13-.48-.19s-.32-.13-.48-.19c-.08-.03-.16-.06-.24-.09-.08-.03-.16-.06-.24-.09-.08-.03-.16-.06-.24-.09-.07-.03-.14-.05-.21-.07-.02,0-.04-.01-.06-.02-.07-.02-.14-.05-.21-.07-.03-.01-.07-.02-.1-.03-.05-.02-.11-.04-.16-.05l-.12-.04-.12-.04c-.08-.03-.16-.05-.25-.08-.08-.02-.17-.05-.25-.07-.05-.01-.09-.02-.13-.04,0,0-.02,0-.03,0-.04-.01-.08-.02-.12-.03-.07-.02-.15-.04-.22-.05-.08-.02-.17-.04-.25-.06h0c-.07-.02-.14-.03-.21-.01,0,0,0,0-.01,0,0,0-.02,0-.03,0-.04,0-.07.02-.11.04,0,0-.02.01-.03.02-.06.04-.1.09-.13.15,0,0,0,.02,0,.03,0,0,0,.02,0,.03,0,0,0,.01,0,.02,0,.01,0,.02,0,.03,0,0,0,.02,0,.03,0,0,0,.01,0,.02,0,.03.01.06.03.1.03.06.06.11.1.16,0,.01.02.03.03.04.09.11.19.21.29.31,0,.01.02.02.03.03h0c.15.17.29.35.43.55.06.08.12.17.18.25.06.08.12.17.17.26.04.06.08.11.12.17.08.11.16.23.24.34.03.04.06.08.09.12.03.04.06.08.09.12.02.03.04.05.06.08.03.04.06.08.1.12.08.1.17.19.26.27.02.02.05.04.07.06.02.02.05.04.07.06.02.02.05.04.07.06.02.02.05.04.07.06.06.02.11.02.15.01.01,0,.02,0,.04,0,.01,0,.03,0,.04-.02.01,0,.02-.01.03-.02,0,0,0,0,.01,0,.02-.01.03-.03.04-.05,0,0,0,0,0-.01,0,0,0-.02.01-.03,0-.01.01-.03.01-.04,0-.01,0-.03,0-.04,0-.01,0-.03,0-.04,0-.02,0-.05,0-.07h0s0-.02,0-.03c0-.01-.01-.03-.02-.05,0-.01-.01-.02-.02-.03-.02-.03-.05-.07-.08-.09-.03-.03-.05-.07-.08-.1-.02-.03-.05-.06-.07-.09-.02-.02-.03-.04-.05-.07-.03-.04-.06-.09-.09-.13-.02-.02-.03-.05-.05-.07-.02-.02-.03-.05-.05-.07-.06-.09-.12-.18-.18-.28-.03-.05-.06-.09-.09-.14-.04-.07-.09-.14-.13-.21-.09-.15-.19-.29-.29-.44-.04-.06-.08-.12-.12-.18-.02-.03-.05-.06-.07-.09-.02-.03-.05-.06-.07-.09-.05-.07-.11-.14-.16-.21.16.06.32.12.47.18s.31.12.47.18c.08.03.16.06.23.1.79.32,1.57.66,2.38.92.07.02.15.05.22.07.03,0,.05.02.08.02.05.01.11,0,.16,0,.01,0,.03,0,.04-.01.01,0,.03,0,.04-.01.01,0,.03-.01.04-.02,0,0,0,0,0,0,0,0,.01,0,.02,0,0,0,0,0,0,0,0,0,0,0,0,0,0,0,.01-.01.02-.02.02-.01.03-.03.05-.05ZM91.54,71.67c.04-.1.01-.22-.05-.3,0,0,0,0-.01-.01,0,0,0,0,0,0-.04-.04-.09-.07-.15-.09,0,0-.01,0-.02,0h-.02s-.02,0-.04,0h0s-.01,0-.02,0c0,0-.01,0-.02,0-.01,0-.03,0-.04,0-.05.02-.1.05-.14.07-.04.02-.07.04-.11.06-.03.02-.06.03-.09.05-.12.07-.25.14-.37.21-.05.03-.09.05-.14.08-.02.01-.04.03-.07.04,0,0-.01,0-.02.01-.06.04-.13.08-.19.12-.04.03-.07.07-.11.1-.04.04-.09.07-.13.11-.05.03-.09.07-.14.1s-.09.07-.14.1c-.05.03-.09.06-.14.1-.04.03-.08.05-.12.08-.27.17-.54.32-.81.49-.05.03-.11.06-.16.1-.09.05-.17.11-.26.16-.02,0-.03.02-.04.02-.04.02-.08.05-.12.07-.01,0-.03.02-.04.02-.06.04-.13.08-.19.12-.06.04-.13.08-.19.12-.06.04-.13.09-.19.13s-.13.09-.19.13c-.03.02-.06.04-.09.07-.46.33-.91.69-1.37,1.03-.06.04-.12.09-.18.13-.03.02-.06.05-.09.07-.09.07-.19.13-.28.2-.02.01-.03.02-.05.03-.1.06-.21.12-.32.18-.01,0-.02.01-.03.02-.02.01-.04.02-.05.03-.01,0-.02.01-.03.02-.02.01-.04.02-.05.04-.07.05-.13.11-.18.19-.01.02-.02.03-.03.05-.01.03-.03.06-.04.09,0,.03-.01.07,0,.1,0,0,0,0,0,.01,0,.01,0,.03,0,.04,0,0,0,.01,0,.02,0,0,0,.01,0,.02,0,.01.01.03.02.04,0,0,0,0,0,0,0,0,0,.01.01.01,0,0,.01.02.02.02,0,0,0,0,.01.01,0,0,0,0,.01,0,0,0,.01,0,.02.01,0,0,.01,0,.02,0,.01,0,.03,0,.05.01,0,0,.02,0,.03,0h0s.02,0,.03,0c.01,0,.02,0,.03,0,0,0,.01,0,.02,0,.03-.02.06-.04.09-.08,0,0,.01-.02.02-.03,0,0,0-.01,0-.02,0,0,0,0,0-.01v-.02c.08-.04.15-.08.22-.12.04-.02.07-.04.11-.06.11-.06.22-.12.32-.19.1-.06.19-.11.29-.17.13-.08.25-.15.38-.23.13-.08.27-.17.4-.25.47-.3.94-.61,1.41-.92.09-.06.19-.12.28-.18,0,0,0,0,0,0,.38-.24.76-.48,1.14-.71.45-.23.85-.53,1.23-.86.21-.17.52-.25.76-.39.02-.01.04-.03.06-.04.01,0,.02-.02.04-.02.02-.01.04-.03.05-.04,0,0,0,0,0,0l.03-.03s.02-.02.03-.03c0,0,.02-.02.03-.03.04-.04.07-.09.09-.14,0-.01.01-.03.02-.04ZM92.04,72.94s0-.09,0-.14h0s-.02-.06-.03-.08c-.01-.03-.03-.05-.05-.07-.02-.02-.04-.04-.06-.05-.01,0-.02-.01-.04-.02-.01,0-.02,0-.03,0,0,0-.01,0-.02,0-.05-.01-.12,0-.18,0-.02,0-.03,0-.05.01,0,0-.02,0-.03,0,0,0-.02,0-.03,0-.02,0-.04.01-.06.02,0,0,0,0,0,0-.02,0-.04.02-.06.03-.15.06-.31.16-.48.27-.01,0-.03.02-.05.03-.03.02-.06.04-.09.06-.02.01-.04.03-.06.04-.13.09-.27.19-.4.28-.03.02-.06.04-.09.07-.12.09-.24.17-.35.25-.03.02-.06.04-.08.06-.02.01-.03.02-.05.03-.02.01-.03.02-.05.03-.01,0-.03.02-.04.03,0,0-.01,0-.02.01-.03.02-.05.03-.07.05-.03.02-.06.04-.1.06-.02.01-.05.03-.07.04-.01,0-.02.01-.03.02-.01,0-.03.01-.04.02-.03.01-.06.02-.08.03,0,0-.01,0-.02,0-.01,0-.02,0-.03,0-.03.01-.06.03-.09.04s-.06.03-.09.05c-.06.03-.12.07-.18.1-.04.03-.08.05-.12.08-.07.05-.15.1-.22.16-.05.04-.11.09-.16.13-.05.04-.11.09-.16.13-.11.09-.21.18-.32.26-.16.13-.33.25-.5.36-.02.02-.05.03-.07.05-.14.09-.29.18-.44.28-.06.04-.12.08-.18.12-.04.02-.08.05-.11.08-.02.02-.05.03-.07.05-.02.01-.04.03-.06.04-.07.05-.13.1-.2.15-.05.04-.1.08-.15.11-.17.13-.33.27-.5.39-.07.06-.15.11-.22.16-.03,0-.05.02-.08.03-.02.01-.04.03-.06.05-.07.07-.1.17-.08.27,0,.02,0,.03,0,.05,0,.01.01.03.02.05,0,.01.01.03.02.04s.02.03.03.04c.01.01.02.02.04.03.01,0,.03.02.04.02,0,0,.01,0,.02,0s.01,0,.02,0c.03,0,.06.01.09.01.01,0,.02,0,.03,0,.04,0,.09-.02.13-.04,0,0,.02,0,.03-.01.06-.03.12-.07.17-.11.13-.09.25-.18.38-.28.06-.04.12-.09.18-.13.14-.1.28-.2.42-.29.03-.02.06-.04.09-.06.15-.1.31-.19.47-.27.19-.08.36-.18.53-.29.04-.03.08-.05.12-.08.01,0,.03-.02.04-.03.03-.02.06-.04.09-.07.04-.03.08-.06.12-.09.04-.03.08-.06.12-.09.12-.09.23-.19.35-.29.05-.04.1-.08.14-.12.05-.04.1-.08.15-.12.05-.04.1-.08.15-.12,0,0,.02-.02.03-.02.04-.03.08-.06.12-.09.01,0,.03-.01.04-.02.04-.02.09-.04.13-.06.03-.01.06-.03.08-.04h0c.17-.09.33-.19.49-.3h0c.05-.04.11-.07.16-.11.16-.11.31-.22.47-.33.03-.02.05-.04.08-.05t0,0c.05-.04.1-.07.16-.11.02-.01.03-.02.05-.03.04-.02.07-.05.11-.07.03-.02.05-.03.08-.05.05-.03.11-.07.16-.1h0s.05-.03.08-.05h0s.06-.03.08-.05t0,0c.06-.03.11-.06.17-.09.06-.03.12-.06.18-.08,0,0,0,0,0,0,.01,0,.03-.01.05-.02.01,0,.03-.01.05-.02.01,0,.02-.01.03-.02,0,0,0,0,0,0,.01,0,.02-.02.03-.02.01-.01.03-.03.04-.04,0,0,.01-.02.02-.03,0,0,0,0,0,0,0,0,0,0,0-.01,0-.01.01-.02.02-.04.01-.03.02-.06.02-.09ZM93.54,65.9v-.02s0-.06,0-.08c0,0,0-.01,0-.02,0-.01,0-.03-.01-.04,0,0,0,0,0,0,0-.01,0-.02-.01-.03,0,0,0,0,0,0,0-.01-.01-.02-.02-.03,0,0-.01-.02-.02-.02,0-.01-.02-.02-.03-.03,0,0-.01-.01-.02-.02,0,0-.01-.01-.02-.01-.01-.01-.03-.02-.04-.03-.02,0-.03-.02-.05-.02,0,0-.01,0-.02,0,0,0-.01,0-.02,0-.01,0-.02,0-.03,0-.02,0-.03,0-.04-.01-.05-.01-.11-.01-.16,0-.01,0-.02,0-.03,0,0,0-.02,0-.02,0-.02,0-.04.01-.05.02,0,0-.02,0-.03.01-.02.01-.04.03-.06.05,0,0-.01.01-.02.02,0,0,0,0,0,0,0,0-.01.01-.02.02-.01.01-.02.02-.03.04,0,0,0,0,0,.01,0,.01-.02.03-.02.05-.01.04-.03.08-.04.12-.01.04-.03.08-.05.11-.03.07-.07.13-.1.19-.01.03-.03.05-.04.08-.01.02-.02.04-.03.05-.02.04-.04.07-.06.11-.02.04-.04.07-.06.12,0,.02-.02.04-.03.06,0,.02-.02.04-.03.06-.2.11-.43.17-.66.17-.03,0-.05,0-.08,0-.08,0-.16-.02-.24-.04-.02,0-.05-.01-.07-.02-.03-.01-.06-.02-.09-.04-.02,0-.04-.02-.06-.03,0,0,0,0,0,0-.02,0-.04-.02-.05-.03h0s-.02-.02-.04-.03c-.03-.02-.06-.05-.08-.07-.02-.02-.05-.05-.06-.07-.01-.01-.02-.02-.03-.04,0,0-.01-.01-.01-.02-.02-.03-.04-.07-.06-.1-.28-.44-.37-.95-.35-1.46,0-.04,0-.08,0-.12,0-.08.01-.16.02-.24.01-.11.03-.23.05-.34,0-.02,0-.03.01-.05,0-.02,0-.03.01-.05,0-.02,0-.03.01-.05,0-.02,0-.03.01-.05,0-.01,0-.02.01-.03,0-.01,0-.02.01-.03,0-.01.01-.03.02-.04,0-.01.01-.02.02-.03,0,0,0-.01.01-.02.02-.02.03-.04.06-.06,0,0,0,0,0,0,0,0,0,0,0,0,0,0,.01,0,.02-.01.01,0,.02-.01.04-.02h0s0,0,0,0c.02,0,.04,0,.06-.01,0,0,0,0,0,0,0,0,.02,0,.04,0,0,0,.01,0,.02,0,0,0,0,0,.01,0,0,0,.01,0,.02,0h0s.02,0,.03,0c0,0,.01,0,.02,0,0,0,.02,0,.03,0,.03,0,.05-.02.07-.04,0,0,.01,0,.01-.01,0,0,.01-.02.02-.02,0-.01.02-.03.02-.05,0,0,0,0,0,0,0,0,0,0,0,0,0-.03,0-.06-.01-.09h0c.05-.02.09-.05.12-.09,0-.01.02-.03.02-.04,0-.02.01-.04.02-.06,0,0,0-.01,0-.02,0-.01,0-.02,0-.03,0-.01,0-.03,0-.04,0-.01,0-.02,0-.03,0-.03-.02-.05-.03-.08,0,0,0,0,0-.01-.01-.02-.03-.03-.04-.05,0,0-.01-.01-.02-.01-.01,0-.03-.02-.05-.02,0,0-.01,0-.02,0-.02,0-.04,0-.06,0h-.02s-.04,0-.07,0c-.02,0-.05,0-.07,0,0,0-.02,0-.02,0-.02,0-.03,0-.05,0s-.03,0-.05,0c-.01,0-.03,0-.04,0h-.02s-.01,0-.02,0c-.02,0-.04.01-.06.02-.02,0-.04.01-.05.02,0,0-.01,0-.02.01-.02.01-.04.03-.06.05,0,0,0,.01-.01.02,0,.01-.02.02-.02.04,0,0,0,.01,0,.02,0,0-.01,0-.02,0-.02,0-.03,0-.05,0-.02,0-.03,0-.04,0,0,0-.01,0-.02,0,0,0,0,0-.01,0-.02,0-.03.01-.05.02-.02,0-.04.01-.05.02-.04.02-.08.04-.11.07l-.02.02s-.02.01-.02.02c-.02.01-.03.03-.05.04h0s0,0,0,0c0,0,0,0,0,0-.01.01-.02.02-.03.04,0,0,0,0,0,0-.01.01-.02.03-.04.05-.02.03-.04.05-.05.08,0,0,0,.01-.01.02,0,0,0,.01,0,.02,0,.01-.01.02-.02.03,0,0,0,.02-.01.02-.01.03-.03.06-.04.09,0,.02-.01.03-.02.05,0,.02-.01.03-.02.05,0,0,0,0,0,0,0,.02-.01.04-.02.05,0,.02-.01.04-.02.06-.01.04-.02.07-.03.11,0,0,0,.02,0,.03-.02.1-.04.2-.06.3,0,.01,0,.03,0,.04,0,.03,0,.07-.01.1,0,.04,0,.07-.01.11,0,0,0,.02,0,.02,0,.04,0,.09,0,.13,0,.03,0,.06,0,.09-.01.33.01.64.05.86,0,.04.02.09.03.13,0,.04.02.09.03.13.05.16.1.32.17.46,0,.02.02.04.03.06.03.06.06.12.1.18.01.02.02.04.03.05.02.04.05.07.07.1.01.02.03.04.04.06.01.02.03.04.05.06.19.24.42.45.7.6.02,0,.03.02.05.03.04.02.08.04.13.06.03.01.06.02.08.03.09.03.17.06.26.08.03,0,.05,0,.08,0,.01,0,.03,0,.04,0h0s.04,0,.06,0c0,0,.01,0,.02,0,.04,0,.07,0,.11,0h.02s.05,0,.07,0h0s.04,0,.05,0c.05,0,.1,0,.16-.01.03,0,.05,0,.08-.01.03,0,.06,0,.09-.02.04,0,.07-.01.11-.02.03,0,.06-.01.09-.02.01,0,.03,0,.04-.01.03,0,.05-.02.08-.03.03-.01.07-.02.1-.04.07-.03.13-.06.2-.09.01,0,.02-.01.03-.02.02-.01.04-.02.06-.04.02-.01.03-.03.05-.04,0,0,0,0,0,0,.01,0,.02-.02.03-.03.02-.02.05-.05.07-.07.02-.02.04-.04.05-.06,0,0,0,0,0-.01.01-.02.03-.03.04-.05.06-.09.11-.18.15-.28,0,0,0-.01,0-.02,0,0,0,0,0-.01,0-.02.02-.04.02-.06,0,0,0-.01,0-.02.02-.05.03-.09.04-.14,0,0,0,0,0,0,0-.02,0-.03.01-.05,0-.02,0-.04.01-.06.01-.04.02-.07.03-.11,0-.01,0-.02,0-.03.02-.1.04-.2.06-.31,0,0,0,0,0,0,0-.02,0-.04.01-.05.02-.07.03-.15.05-.22ZM99.72,71.9s0-.03,0-.04c0-.01,0-.03,0-.05v-.03s-.03-.08-.04-.12c0-.02-.02-.04-.03-.06,0-.01-.02-.03-.03-.04-.01-.02-.03-.03-.04-.05,0-.01-.02-.02-.03-.03-.03-.03-.05-.05-.08-.07h0s0,0,0,0c-.02-.01-.04-.03-.07-.04-.01,0-.02-.01-.03-.01-.01,0-.02-.01-.04-.01-.01,0-.02,0-.04-.01-.02,0-.05-.01-.07-.02-.01,0-.03,0-.04,0-.03,0-.05,0-.07,0h-.01s-.06,0-.09.02c-.01,0-.03,0-.05.01h0s-.01,0-.02,0c-.01,0-.03.01-.04.02-.01,0-.02.01-.03.02-.03.01-.05.03-.08.04-.02.01-.04.02-.06.04-.02.01-.04.02-.06.04-.07.04-.13.08-.19.13-.02.01-.04.03-.06.04-.01.01-.03.02-.04.03-.23.17-.44.35-.65.53-1.02.46-1.97,1.09-2.83,1.83-.51.3-1.03.6-1.54.9-.16.09-.32.19-.48.28-.22.13-.44.26-.65.39,0,0-.01,0-.02.01-.04.03-.09.05-.13.08-.05.03-.11.06-.16.1-.03.02-.06.04-.1.06-.12.07-.24.15-.36.22-.13.08-.27.17-.4.25-.08.05-.17.11-.25.16-.08.05-.17.11-.25.16-.04.03-.08.05-.12.08-.21.14-.41.28-.61.42-.08.06-.16.11-.24.17-.71.5-1.4,1.03-2.05,1.61-.06.05-.11.1-.16.15-.11.1-.22.19-.32.29,0,0,0,0,0,0,0,0,0,0,0,0,0,0-.02,0-.03,0-.02,0-.03.01-.04.02-.01,0-.02.01-.03.02-.01,0-.03.02-.04.03,0,0-.01.01-.02.02h0s0,.01-.01.02c-.02.03-.04.06-.05.1,0,.01,0,.03,0,.04,0,.01,0,.02,0,.03h0s0,.03,0,.05c0,0,0,.02,0,.02,0,0,0,0,0,0h0s0,.03.01.04c0,.02.01.03.02.04,0,.01.02.03.03.04.02.02.04.04.07.06.01,0,.03.02.04.02.01,0,.03.01.04.01h0c.13.04.28,0,.35-.13.09-.07.17-.14.26-.2.05-.04.09-.07.14-.11.1-.07.19-.15.29-.22.18-.14.36-.28.53-.43.06-.05.11-.1.17-.14.11-.07.23-.14.34-.22.08-.05.16-.1.25-.16s.16-.11.25-.16c.13-.08.26-.17.39-.26.07-.05.14-.09.2-.14.14-.09.27-.18.4-.27.14-.09.27-.18.4-.27.2-.14.4-.27.61-.41.09-.06.17-.12.26-.18.12-.08.23-.16.35-.23.04-.03.08-.05.11-.08.13-.09.26-.17.38-.25.11-.07.21-.14.32-.21.39-.25.78-.49,1.17-.73.09-.06.19-.11.28-.17.1-.06.21-.12.32-.18.07-.04.14-.08.21-.12.11-.06.22-.12.33-.18.07-.06.14-.12.21-.17.05-.04.09-.07.14-.11,0,0,.02-.01.02-.02.03-.02.06-.05.09-.07l.1-.06s.06-.04.1-.06c.06-.04.13-.08.2-.12.05-.03.09-.05.14-.08.04-.02.08-.04.12-.06.6-.31,1.23-.53,1.85-.82.04-.02.09-.04.13-.06.04-.02.09-.04.13-.06h0s.02-.02.04-.03c.02-.01.04-.03.07-.04s.05-.03.07-.04c.02-.01.04-.02.06-.03.02-.01.04-.02.06-.03.03-.01.06-.03.1-.05.17-.08.34-.15.48-.25.02-.01.03-.02.05-.03.07-.05.12-.1.17-.16,0,0,.02-.02.02-.03.01-.01.02-.03.03-.04,0,0,0-.01,0-.02,0,0,0,0,0-.01,0,0,0,0,0,0,0-.01.01-.03.01-.04.01-.03.02-.06.02-.09,0-.02,0-.03,0-.05ZM99.85,73.7s0-.02,0-.03c0,0,0-.02,0-.02,0,0,0-.01,0-.02,0-.03-.02-.05-.03-.08-.02-.03-.04-.07-.06-.1,0,0-.02-.02-.03-.02,0,0-.02-.02-.03-.02,0,0-.02-.01-.03-.02,0,0-.02,0-.03-.01,0,0,0,0-.01,0,0,0-.02,0-.03,0-.05-.01-.1-.02-.15-.01-.01,0-.02,0-.04,0-.01,0-.02,0-.03,0,0,0-.01,0-.02,0,0,0-.01,0-.02,0,0,0-.01,0-.02.01,0,0-.02.01-.03.02,0,0-.01,0-.02,0,0,0,0,0-.01,0-.02.02-.04.04-.06.06-.11.08-.21.16-.32.24-.09.07-.19.14-.29.21-.1.07-.19.14-.29.2-.09.06-.17.12-.26.18-.5.35-1,.69-1.49,1.03-.1.07-.21.13-.31.19-.05.03-.09.06-.14.08-.06.03-.12.07-.18.1-.05.03-.11.06-.16.09,0,0-.02.01-.03.02-.08.04-.15.09-.23.13-.29.16-.58.31-.87.46-.22.11-.44.22-.66.33-.03.02-.07.03-.1.05-.34.17-.68.34-1.02.52-.06.03-.11.06-.17.09-.11.06-.22.12-.34.18-.06.03-.11.06-.17.09-.06.03-.11.06-.17.09-.06.03-.11.06-.17.09-.11.06-.22.13-.33.19-.05.03-.11.07-.16.1s-.11.07-.16.1h0c-.05.05-.11.09-.16.14-.02.02-.05.04-.07.06-.43.34-.9.66-1.36.99-.07.05-.13.1-.2.14-.04.03-.07.05-.11.08-.06.04-.12.09-.17.13-.29.22-.56.46-.8.71-.03.03-.06.07-.09.1-.04.04-.07.08-.11.13,0,0,0,.01,0,.02,0,.02,0,.03,0,.05,0,.07.05.13.11.17,0,0,.01.01.02.01,0,0,.02,0,.02.01.02.01.05.02.08.02,0,0,.02,0,.03,0h0s.02,0,.03,0c.01,0,.02,0,.03,0,.03,0,.06-.03.09-.05.25-.19.5-.38.75-.57.1-.07.2-.15.3-.22.03-.02.06-.04.09-.06.13-.09.26-.18.38-.27.16-.12.32-.23.48-.34.07-.05.14-.1.2-.15.08-.06.17-.12.25-.18.05-.04.1-.07.15-.11.09-.06.18-.13.27-.19.11-.08.23-.15.34-.23s.23-.15.34-.23c.19-.13.39-.25.58-.36.07-.04.13-.08.2-.12.36-.21.72-.41,1.1-.6.1-.05.19-.09.29-.14.07-.04.15-.07.22-.1.03-.01.06-.03.09-.04,0,0,0,0,0,0,0,0,0,0,0,0,.05-.02.1-.05.15-.08s.1-.05.15-.08c.05-.03.1-.05.15-.08.05-.03.1-.05.15-.08.01,0,.02-.01.03-.02.05-.03.11-.06.16-.09.04-.02.07-.04.11-.06.05-.03.1-.06.15-.09.02-.01.04-.02.06-.03.23-.13.46-.27.69-.41.04-.02.07-.04.11-.07.09-.05.18-.11.26-.16.12-.07.25-.15.37-.22.35-.2.67-.47,1.01-.72.03-.03.07-.05.11-.08.03-.02.05-.04.08-.06.09-.06.18-.12.27-.18l.08-.05s.06-.03.09-.05c.03-.01.06-.03.09-.04.02,0,.03-.02.05-.03.02-.01.05-.02.07-.03.01,0,.02,0,.03-.01.03-.01.05-.02.08-.04,0,0,.02,0,.03-.01,0,0,0,0,.01,0,.03-.01.05-.02.08-.03.02,0,.04-.02.06-.03,0,0,.01,0,.02-.01.08-.04.16-.08.23-.12.02-.01.04-.02.05-.03.01,0,.02-.01.03-.02.01-.01.03-.02.04-.03,0,0,.02-.01.03-.02.01-.01.03-.03.04-.04.03-.03.05-.05.06-.08,0,0,0-.01.01-.02,0,0,.01-.02.01-.03,0,0,0,0,0,0,0-.01,0-.02,0-.03,0,0,0,0,0,0,0-.01,0-.02,0-.04,0-.01,0-.02,0-.04ZM101.11,75.08s0-.03,0-.05c0-.02,0-.04,0-.05,0-.02,0-.03-.01-.05,0-.02-.01-.03-.02-.05,0,0,0,0,0,0,0-.01-.01-.03-.02-.04,0,0,0-.02-.01-.02h0s-.04-.06-.06-.09c0,0,0-.01-.02-.02-.01-.02-.03-.03-.04-.04,0,0-.02-.02-.03-.02,0,0,0,0-.01,0,0,0-.02-.01-.03-.02,0,0-.01,0-.02-.01,0,0-.01,0-.02-.01,0,0-.01,0-.02,0-.02,0-.03-.02-.05-.02-.03-.01-.07-.02-.1-.03-.03,0-.06,0-.1,0-.01,0-.02,0-.03,0h0s0,0-.01,0c0,0,0,0,0,0-.01,0-.02,0-.03,0-.02,0-.05.01-.07.02,0,0-.02,0-.02,0h0s0,0,0,0c-.01,0-.02.01-.03.02-.03.02-.06.03-.09.05,0,0,0,0,0,0-.03.02-.06.03-.09.05-.06.03-.12.07-.18.11-.06.04-.12.08-.18.11-.06.04-.12.08-.17.12-.09.06-.17.12-.26.18-.06.04-.12.08-.17.12-.03.02-.06.04-.09.06-.04.03-.08.05-.13.08-.02,0-.03.02-.05.03-.18.09-.37.15-.56.22-.05.02-.09.03-.14.05-.02,0-.05.02-.07.03s-.04.02-.07.03h0s-.09.04-.13.07-.08.05-.12.08c0,0,0,0,0,0-.07.05-.15.1-.22.14-.07.05-.15.1-.22.14-.1.06-.2.12-.3.18-.24.15-.48.29-.72.43-.06.04-.13.08-.19.11-.05.03-.1.06-.15.09-.1.06-.2.12-.3.19s-.2.13-.29.19c-.11.11-.23.2-.36.29-.02.01-.04.03-.06.04-.09.05-.18.1-.27.15-.07.04-.14.07-.22.11-.11.05-.22.11-.33.16-.03.01-.06.03-.09.05-.04.02-.09.05-.13.07-.03.02-.07.04-.1.06s-.07.04-.1.07c-.36.24-.72.48-1.07.72-.13.09-.25.17-.38.26-.14.1-.28.2-.42.3-.12.09-.25.18-.37.27-.08.06-.16.12-.25.18-.16.12-.33.25-.49.38-.08.06-.16.13-.24.19s-.16.13-.24.2c-.24.2-.47.4-.69.61-.09.09-.21.16-.32.24-.01,0-.03.02-.04.03-.01.01-.03.02-.04.04,0,0,0,0,0,0,0,0-.01,0-.01.01,0,0,0,0,0,0,0,0,0,0-.01.01-.02.03-.05.06-.06.09,0,0,0,.02-.01.03,0,.02-.01.03-.01.05,0,.03,0,.06,0,.08,0,0,0,0,0,0,0,.01,0,.02,0,.03,0,0,0,0,0,0,0,0,0,.02.01.03.02.03.04.06.06.09,0,0,.02.01.03.02,0,0,0,0,0,0,0,0,0,0,0,0,0,0,0,0,0,0,.04.02.08.04.13.04.02,0,.05,0,.07-.01,0,0,.02,0,.03,0,0,0,0,0,0,0,.01,0,.02-.01.03-.02.06-.03.11-.08.16-.13,0,0,.01-.01.02-.02,0,0,.01-.01.02-.02.01-.01.03-.03.05-.04,0,0,0,0,.01-.01.01-.01.03-.02.04-.03.06-.05.11-.1.17-.15.05-.05.11-.09.16-.14.49-.42,1.01-.79,1.51-1.21.38-.23.76-.46,1.14-.69.19-.11.38-.23.57-.34s.38-.23.57-.34c.25-.15.51-.31.76-.46.03-.01.06-.03.09-.04l.05-.03s.05-.02.07-.03c.04-.02.07-.04.11-.06.04-.02.07-.04.11-.06.04-.02.07-.05.11-.07.04-.02.07-.05.11-.07.03-.02.07-.05.1-.07h0s.07-.05.1-.07c.18-.14.37-.28.55-.42.04-.03.08-.06.11-.09.05-.04.1-.07.15-.11.1-.07.2-.14.3-.21.05-.03.1-.07.15-.1.08-.05.15-.09.23-.13.04-.02.08-.04.12-.06.04-.02.08-.04.12-.06.05-.02.1-.05.15-.07.05-.02.09-.05.13-.07.05-.03.1-.05.15-.08.05-.03.09-.05.14-.08,0,0,0,0,0,0,.05-.03.09-.06.14-.08.05-.03.09-.06.14-.09.05-.03.09-.06.14-.09.02-.02.04-.03.07-.05.02-.02.04-.03.07-.05.06-.01.12-.03.18-.04.04,0,.08-.02.12-.03.06-.02.12-.03.18-.05.05-.01.1-.03.14-.05.04-.01.07-.02.11-.04.57-.2,1.12-.46,1.69-.66.07-.03.13-.07.18-.12.02-.02.03-.03.05-.05,0-.01.02-.02.03-.03.02-.02.03-.05.04-.07,0,0,0-.02.01-.03,0-.02.02-.05.02-.07,0,0,0-.02,0-.03,0-.02,0-.05,0-.07ZM103.5,77.48s0,.02,0,.03c-.02.01-.03.02-.05.03-.03.02-.06.04-.09.06-.02.01-.03.02-.05.03-.03.02-.06.04-.09.06-.03.02-.06.04-.09.06-.06.04-.12.07-.17.11h-.02s-.01.02-.01.02c-.07.04-.14.09-.2.13-.01,0-.02.01-.03.02-.06.04-.11.07-.17.11-.06.04-.11.07-.16.11-.02.01-.03.02-.05.03-.08.05-.15.1-.22.15-.01.01-.03.02-.05.03-.05.03-.09.06-.14.1-.05.03-.09.07-.14.1-.06.04-.11.08-.16.12-.05.04-.1.07-.14.11,0,0-.01.01-.02.02-.05.04-.11.09-.16.13-.04.03-.07.06-.11.09-.03.03-.07.06-.1.09-.03.03-.07.06-.1.09-.05.05-.11.1-.16.15-.1.09-.19.18-.29.27h0c-.05.05-.11.1-.16.15s-.11.1-.17.14c-.02.01-.03.03-.05.04,0,0,0,0-.01.01-.06.05-.13.11-.19.16-.07.06-.14.11-.2.17-.07.06-.13.11-.2.16-.11.09-.22.18-.34.27-.07.05-.13.11-.2.16-.07.05-.14.1-.2.16-.02.01-.03.02-.05.04-.03.02-.06.05-.09.07-.08.06-.17.13-.25.19-.26.2-.53.4-.79.59-.02.02-.04.03-.06.05-.12.09-.24.18-.36.27-.01,0-.02.02-.03.02-.05.04-.1.08-.15.12-.09.07-.18.14-.27.21s-.18.14-.27.21c0,0,0,0,0,0-.02.01-.03.03-.05.04-.04.03-.09.07-.13.11-.03.02-.06.05-.09.07-.05.04-.1.08-.15.12-.13.1-.26.21-.39.31-.1.08-.21.16-.31.25-.33.26-.67.52-1,.77-.29.22-.57.44-.86.65l-.82.62s-.01.01-.02.02c-.08.06-.17.13-.25.19-.18.14-.36.27-.55.41h0c-.08.06-.16.12-.24.18-.28.21-.56.42-.84.63-.27.2-.53.4-.8.61-.01,0-.02.02-.03.03-.28.21-.55.43-.83.64-.02.02-.04.03-.07.05t0,0c-.12.09-.23.18-.34.27-.14.11-.27.22-.41.33,0,0,0,0-.01.01-.15.12-.3.24-.46.37-.08.06-.15.12-.23.18-.18.14-.36.29-.53.44-.25.21-.5.42-.75.63,0,0,0,0,0,0-.11.07-.21.15-.31.22-.03.02-.05.04-.08.06,0,0-.02.01-.03.02l-.15.11-.05.04c-.11.08-.21.15-.31.23-.04.03-.08.06-.12.09-.07.05-.14.1-.21.16,0,0-.02.01-.03.02-.08.06-.16.12-.24.18-.02.02-.05.03-.07.05-.09.07-.17.13-.26.2l-.15.12c-.05.04-.1.08-.15.12-.02.02-.05.04-.07.06-.03.02-.05.04-.08.06-.05.04-.1.08-.15.12-.1.08-.2.16-.3.24-.15.12-.3.24-.45.36l-.15.12-.3.24c-.1.08-.2.16-.3.24-.06.05-.12.1-.18.15-.1.08-.2.16-.3.24s-.2.16-.3.24c-.02.02-.04.03-.06.05-.02.02-.04.03-.06.05-.07.06-.14.11-.21.17-.03.03-.07.05-.1.08-.17.14-.35.28-.53.43-.12.1-.24.19-.36.29-.2.16-.4.32-.61.48-.07.06-.14.11-.21.16-.06.04-.11.09-.17.13l-.09.07s-.02.01-.03.02c-.09.07-.18.14-.28.21-.1.08-.21.16-.31.24,0,0,0,0-.01-.01,0,0,0-.01-.01-.01-.06-.08-.13-.15-.19-.23-.05-.06-.1-.12-.15-.18-.19-.24-.37-.48-.55-.73-.07-.11-.15-.21-.22-.32,0,0,0-.01-.01-.02-.07-.11-.15-.21-.22-.32-.04-.06-.08-.11-.11-.17-.08-.12-.16-.25-.24-.37-.1-.15-.2-.3-.29-.46-.16-.25-.32-.51-.49-.76-.05-.08-.1-.16-.16-.24-.02-.03-.04-.06-.06-.09-.02-.03-.04-.06-.06-.09,0,0,0,0,0,0-.08-.11-.16-.23-.25-.34-.04-.06-.09-.11-.13-.17-.02-.02-.03-.04-.05-.06l-.04-.05c-.06-.07-.12-.15-.18-.22-.14-.16-.27-.33-.41-.49-.05-.05-.09-.11-.14-.16-.05-.05-.09-.11-.14-.16-.12-.13-.23-.27-.34-.41-.07-.08-.14-.16-.2-.25-.04-.06-.09-.11-.13-.17-.03-.05-.06-.09-.08-.13-.03-.05-.06-.09-.08-.13-.06-.09-.11-.18-.17-.26-.03-.04-.06-.09-.09-.13-.03-.04-.06-.09-.09-.13-.06-.09-.12-.17-.18-.25-.06-.08-.12-.16-.17-.23,0,0-.01-.02-.02-.03-.06-.08-.12-.16-.18-.24-.06-.08-.13-.16-.19-.25-.06-.08-.13-.16-.2-.24h0c-.06-.07-.12-.14-.18-.22-.06-.07-.12-.14-.18-.21-.06-.07-.12-.14-.18-.21-.06-.07-.12-.14-.18-.21-.12-.14-.24-.28-.36-.43-.06-.07-.12-.14-.18-.21-.03-.05-.07-.11-.1-.16-.03-.05-.07-.11-.1-.16-.08-.12-.16-.24-.24-.36-.06-.09-.12-.18-.18-.27s-.12-.18-.19-.27c-.08-.12-.17-.23-.25-.35-.04-.06-.09-.12-.13-.17-.06-.09-.13-.17-.19-.25-.02-.03-.04-.05-.06-.08l-.03-.04c-.08-.11-.16-.21-.24-.32-.17-.23-.35-.46-.52-.69-.1-.13-.19-.26-.29-.39-.09-.12-.18-.25-.27-.38-.05-.06-.09-.13-.13-.19h0s-.06-.08-.08-.12c-.06-.09-.12-.18-.18-.26-.09-.13-.17-.26-.25-.39-.88-2.06-2.33-3.76-3.48-5.66,0-.01,0-.02-.02-.03,0,0,0,0,0,0,0-.01-.01-.03-.02-.04-.02-.03-.03-.05-.05-.08-.01-.02-.03-.05-.04-.07,0-.01-.01-.02-.02-.04-.01-.02-.02-.05-.03-.07-.03-.07-.05-.15-.06-.22,0-.01,0-.03,0-.04,0,0,0,0,0,0,0,0,.02,0,.03,0,0,0,0,0,.01,0,0,0,0,0,0,0,.01,0,.03,0,.04,0,0,0,0,0,.01,0,0,0,0,0,0,0,0,0,.02,0,.02,0,0,0,0,0,.01,0,0,0,0,0,0,0,0,0,0,0,0,0,0,0,.02,0,.02-.02s.01-.01.02-.02c0,0,0,0,0,0,0-.01,0-.02.02-.03,0-.01.01-.02.02-.03.01-.02.02-.04.03-.06.02-.04.05-.08.07-.11.02-.03.04-.06.06-.08.02-.02.03-.04.05-.06,0,0,0-.01.01-.02.01-.02.03-.03.05-.05.02-.02.04-.04.06-.06.03-.03.05-.06.08-.08.03-.03.06-.06.08-.08,0,0,.01-.01.02-.02.02-.02.04-.04.06-.06,0,0,0,0,0,0,.03-.03.06-.06.09-.09.11-.11.22-.22.34-.32.11-.11.23-.22.34-.32s.23-.21.34-.32c.03-.03.06-.05.09-.08.18-.17.37-.34.56-.51.02-.01.03-.03.05-.04.35-.32.69-.64,1.04-.95.23-.21.47-.42.7-.63s.47-.42.7-.63c.12-.11.23-.21.35-.31.12-.11.23-.21.35-.32.23-.21.46-.42.69-.63.06-.04.12-.09.19-.14.06-.05.12-.09.18-.14.01-.01.03-.02.04-.03.05-.03.09-.07.14-.11.06-.05.12-.09.18-.14.09-.07.18-.14.27-.22h0c.18-.15.35-.3.52-.45.11-.09.22-.19.32-.28.11-.09.21-.19.32-.28.04-.04.09-.08.13-.11.06-.06.12-.11.19-.17.11-.1.22-.19.33-.29,0,0,0,0,0,0,.1-.07.19-.14.29-.21.02-.01.03-.02.05-.04.07-.05.14-.1.21-.15.05-.03.09-.07.14-.1.05-.03.09-.07.14-.1.06-.05.13-.09.19-.14s.12-.1.19-.14c.11-.08.22-.17.33-.25.05-.04.11-.08.16-.13.1-.08.2-.16.3-.23.07-.05.13-.1.2-.16l.2-.15c.26-.21.52-.41.78-.62.15-.11.3-.22.46-.33.15-.11.3-.22.45-.33.15-.11.3-.23.45-.34.01,0,.02-.02.03-.03.13-.1.25-.19.38-.29l.13.1h0s-.07.05-.1.08c-.02.02-.04.04-.07.06l-.07.06s-.09.08-.13.12c0,0-.01.01-.02.02-.01.01-.02.02-.03.03,0,0,0,0,0,0-.02.02-.05.04-.07.06-.04.04-.09.08-.13.13-.08.08-.16.16-.24.24-.05.05-.09.09-.13.14-.05.05-.09.1-.14.14-.02.01-.03.03-.04.05-.03.03-.06.06-.09.09-.04.05-.09.09-.14.14s-.09.09-.14.14c-.02.02-.05.05-.07.07-.04.04-.07.07-.11.1-.01.01-.02.02-.04.03-.03.03-.06.05-.09.08-.04.04-.09.08-.14.12-.02.02-.05.04-.07.06h0s-.1.08-.15.12c-.02.01-.04.03-.06.04-.01.01-.03.02-.04.03-.03.02-.06.04-.08.06-.04.02-.07.05-.1.08s-.07.05-.1.08c-.01.01-.03.02-.04.03,0,0,0,0-.01.01h-.01s0,.01,0,.01l-.03.02s-.02.02-.03.02c-.01.01-.03.02-.04.03-.01,0-.02.02-.03.03,0,0-.01.02-.02.03,0,0,0,.02-.01.03,0,0,0,.02,0,.02,0,0,0,.01,0,.02,0,.03-.01.05-.01.08,0,.08.03.16.08.22-.02.09.01.18.06.26.01.02.02.04.03.06,0,.01.01.02.02.03,0,.01.01.02.02.03,0,.01.02.03.03.05,0,.01.02.03.03.04.02.03.04.06.06.09t0,0c.07.09.14.18.22.27.01.02.03.03.05.05.01.02.03.03.05.05h0s.06.07.09.1c.03.04.06.07.1.1,0,0,.01.01.02.02,0,0,.01,0,.01.01,0,0,.02.01.02.02h.02s0,.01,0,.01c0,0,0,0,0,0,0,0,.01,0,.02,0h.02s.02.01.03.01c0,0,.02,0,.02,0,.03,0,.05,0,.08,0,0,0,.02,0,.03,0,.01,0,.02,0,.03,0,0,0,0,0,0,0,.01,0,.02-.01.03-.02h0s.02-.02.03-.03c.02,0,.04,0,.06,0,0,0,0,0,.01,0h0s0,0,0,0c0,0,.02,0,.02,0,0,0,.02,0,.03,0,.02,0,.03-.01.05-.02.01,0,.02,0,.03-.01,0,0,0,0,.01,0,0,0,.01,0,.02,0s.01,0,.02,0c0,0,.02-.01.03-.02.02,0,.03-.02.05-.03.05-.03.1-.06.16-.1.05-.03.1-.07.14-.1.03-.02.06-.04.09-.07.02-.02.04-.03.06-.05.02-.02.05-.04.07-.06.02-.02.05-.04.07-.06.02-.02.05-.04.07-.06.04-.03.08-.07.12-.1.03-.02.06-.05.08-.07.03-.02.06-.05.08-.07.02-.02.05-.04.07-.06,0,0,0,0,0,0,0,0,.02-.01.03-.02,0,0,.02-.01.03-.02.01,0,.02-.02.04-.03,0,0,0,0,0,0,0,0,0,0,.01,0,.02-.01.03-.02.05-.03.01,0,.02-.01.03-.02.02-.01.04-.02.05-.03.05-.03.09-.06.14-.09.04-.03.08-.05.12-.08,0,0,.02-.01.03-.02.04-.03.09-.05.13-.08.1-.06.19-.11.29-.16.05-.03.1-.05.15-.08.19-.1.37-.19.56-.29.04-.02.07-.04.11-.06.07-.04.15-.08.22-.12.1-.06.19-.11.29-.17.09-.06.19-.12.28-.19h0c.06-.04.11-.08.17-.13.06-.04.11-.09.17-.13.11-.09.22-.18.33-.27.12-.1.24-.2.37-.3.18-.14.36-.29.54-.42.02-.02.04-.03.06-.05.05-.04.1-.07.14-.1h0c.15-.11.31-.22.47-.31.05-.03.11-.06.16-.1.06-.04.13-.08.19-.12h0c.1-.06.19-.12.29-.17.1-.06.19-.12.29-.18.02,0,.03-.02.04-.03.01-.01.02-.02.04-.03,0,0,.01-.01.02-.02,0,0,0,0,0,0,0,0,0,0,0,0,0,0,0,0,0-.01,0,0,.01-.02.02-.02,0,0,0,0,0,0,0,0,0,0,0-.01,0,0,.01-.02.02-.03,0,0,0-.01,0-.01,0,0,0-.01,0-.02,0,0,0,0,0,0h0s0-.02,0-.03c0,0,0-.02,0-.03,0,0,0-.02,0-.02,0-.03,0-.05,0-.08v-.02s0-.02,0-.03c0-.02-.01-.05-.02-.07,0-.01,0-.02-.01-.03,0-.01,0-.02-.02-.03,0,0,0-.02-.01-.02,0,0-.01-.02-.02-.02,0,0-.01-.02-.02-.02,0,0,0,0,0,0,0,0-.01-.02-.02-.02,0-.01-.02-.02-.03-.03,0-.01.01-.03.01-.04,0-.01,0-.03,0-.05,0-.05,0-.11-.01-.17-.03-.12-.06-.23-.09-.33,0-.02-.01-.04-.02-.06,0-.02-.01-.03-.02-.05-.01-.03-.02-.06-.03-.09,0-.02-.01-.04-.02-.05,0,0,0-.01,0-.02,0-.02-.02-.03-.02-.05-.01-.03-.03-.05-.04-.08,0,0,0,0,0,0,0-.01-.02-.03-.02-.04,0-.01-.02-.02-.02-.04,0-.01-.02-.02-.02-.03h0s-.02-.02-.02-.03c0,0,0-.01-.01-.01-.01-.02-.03-.03-.04-.04,0,0-.02-.02-.03-.03,0,0-.02-.02-.03-.03s-.02-.02-.03-.02c0,0-.02-.02-.03-.02,0,0-.02-.01-.03-.02,0,0-.02-.01-.03-.02-.03-.02-.06-.03-.09-.04-.02,0-.04-.01-.06-.02-.03,0-.07-.01-.1-.02-.02,0-.04,0-.06,0s-.04,0-.06,0c-.02,0-.03,0-.05,0,0,0,0,0,0,0,0,0-.02,0-.03,0-.01,0-.03,0-.04,0,0,0-.01,0-.02,0-.01,0-.03,0-.05.01,0,0-.02,0-.02,0,0,0,0,0,0,0-.02,0-.04,0-.05.01,0,0,0,0-.01,0,0,0-.01,0-.02,0,0,0,0,0,0,0-.01,0-.03,0-.04.01-.02,0-.05.02-.08.03-.01,0-.02,0-.03.01-.01,0-.02,0-.03.01-.02,0-.04.02-.07.03-.02,0-.03.01-.05.02-.03.01-.07.03-.11.05-.02,0-.04.02-.05.03-.05.03-.11.05-.17.08,0,0-.01,0-.01,0-.03.01-.06.03-.09.05,0,0,0,0,0,0-.03.01-.06.03-.09.05,0,0-.02,0-.03.01-.03.01-.05.03-.08.04-.07.04-.15.07-.22.11-.05.03-.11.06-.16.09-.05.03-.11.06-.16.1l-.16.1c-.05.03-.1.07-.16.1-.06.04-.11.07-.17.11-.14.09-.28.19-.43.29-.12.08-.23.16-.35.24,0-.01,0-.03,0-.04,0-.02,0-.03,0-.04,0,0,0-.02,0-.03,0-.02,0-.04-.02-.06,0-.01,0-.03-.02-.04-.01-.03-.03-.06-.05-.08h0s-.02-.03-.03-.04c-.04-.04-.07-.09-.11-.13h0s-.07-.09-.11-.13c.06-.04.12-.08.18-.11.06-.04.12-.08.18-.12.02-.02.05-.03.07-.05.03-.02.06-.05.09-.07.02-.01.03-.02.04-.03.01,0,.02-.02.04-.03.01,0,.02-.02.04-.03.35-.26.71-.5,1.08-.73l.24-.15s.1-.06.14-.09c.05-.03.1-.06.15-.09,0,0,.02-.01.03-.02.11-.06.21-.13.32-.19.01,0,.03-.01.04-.02.14-.08.27-.16.41-.23.07-.04.13-.07.2-.11.07-.04.14-.08.21-.11.13-.07.26-.14.39-.21.13-.07.26-.14.4-.21.26-.14.52-.28.78-.42h0c.11-.06.21-.12.32-.19.13-.07.26-.15.39-.22.16-.09.32-.18.48-.27.12-.07.25-.14.37-.21.12-.06.23-.13.34-.19.08-.04.16-.09.24-.13.08-.04.16-.09.24-.13.16-.09.33-.17.49-.25.33-.16.66-.31,1-.45.07-.04.14-.07.21-.11.02,0,.04-.02.05-.03.05-.03.1-.06.15-.08.21-.11.41-.23.61-.35.05-.03.11-.06.16-.09.09-.05.18-.1.26-.15.06-.03.11-.06.17-.1.06-.03.12-.07.17-.1.05-.03.11-.06.16-.09.1-.05.2-.11.3-.16.03-.02.07-.04.1-.05.05-.02.1-.05.15-.07.06-.03.12-.06.18-.09s.12-.06.18-.08c.01,0,.02,0,.03-.01s.02,0,.03-.01c0,0,0,0,0,0,.07-.03.13-.05.2-.08.07-.03.14-.05.2-.07.05.02.09.03.13.05s.09.04.13.05c.04.02.09.04.13.06.01,0,.02,0,.03.01,0,0,0,0,0,0,.02,0,.04.02.06.03.01,0,.02.01.03.02.03.01.05.03.08.04,0,0,0,0,.01,0,0,0,.02,0,.02.01.1.05.19.1.28.16.03.02.06.04.1.06,0,0,.01,0,.01,0,.02,0,.03.02.05.03.01,0,.02.01.03.02.03.02.06.04.09.06.06.04.12.09.18.13.06.05.12.09.18.14.05.04.11.09.16.13.04.03.07.06.11.09.06.06.13.12.19.17h0s.09.09.14.13h0c.07.07.13.14.2.21.07.07.13.14.2.2.09.09.17.18.25.28.03.03.05.06.08.09.06.07.12.14.18.21.07.08.13.15.2.23.02.02.03.04.05.06.11.13.22.27.33.4.03.03.06.07.09.1.02.03.05.05.07.08,0,0,0,.01.01.01.03.03.06.07.09.1.02.03.05.06.07.09,0,0,.01.01.02.02.03.03.05.06.08.09.03.03.05.06.07.09,0,.01.02.02.03.04.02.02.03.04.05.06.01.01.02.03.03.04.01.02.02.03.03.05.06.07.11.15.16.22.08.12.17.23.25.35.02.02.03.05.05.07.03.05.07.1.1.15,0,.01.02.03.03.04.04.06.07.11.11.17.04.06.08.12.12.18.06.09.11.17.17.26.02.02.03.05.05.07.01.02.03.05.04.07.01.03.03.05.05.08.04.06.08.12.11.18.04.06.07.12.11.18.03.06.07.12.1.17.08.13.15.26.23.38.04.06.07.12.11.19l.22.37c.07.13.14.25.22.38.07.12.15.25.22.37h0c.07.12.15.25.22.37h0c.07.12.15.25.22.37.08.12.15.24.23.37.05.08.09.16.13.24.04.06.07.13.1.2.02.05.05.09.07.14.04.07.07.15.11.22.04.08.07.15.11.23.04.09.08.17.12.26.04.08.07.16.1.24,0,.02.01.03.02.05.01.03.02.05.03.08.03.07.06.14.09.21.03.07.06.14.09.21h0c.06.14.11.29.17.43h0c.03.08.06.16.09.24.02.06.05.13.07.19.03.07.05.14.08.21.01.04.03.07.04.11s.03.07.04.11c.03.08.06.16.1.24,0,0,0,.02.01.03.06.15.12.31.18.46l.1.24c.03.08.07.16.1.24l.1.24c.06.15.12.3.18.45.04.09.07.19.11.28.05.14.11.28.16.42.04.11.08.22.12.32.12.33.22.67.32,1,.02.06.03.12.05.19.02.08.05.16.07.25.03.1.06.21.09.32.02.06.03.13.05.19.03.12.07.25.1.37h0c.05.19.1.38.16.56.02.06.03.12.05.19.07.25.15.5.23.74h0c.02.06.04.12.06.19,0,.02.02.05.03.07,0,.02.02.05.03.07,0,.02.02.04.03.05,0,0,0,.01.01.02,0,.01.02.03.03.04,0,0,.01.01.02.02,0,0,0,0,.01.01,0,0,0,0,0,0h0s.01.02.02.02c0,0,.02.02.03.03,0,0,0,0,.01.01,0,0,0,0,0,0,0,0,0,0,0,0,.01.01.02.02.03.03.01,0,.02.02.03.02h.01s.03.03.04.03h0c.05.16.09.31.14.47.02.05.03.1.05.16.03.11.05.23.06.34,0,.04,0,.08.01.12,0,.08.01.16.02.23v.12s0,.07.01.11c0,.19.01.39.02.58,0,.05,0,.09,0,.14,0,.04,0,.08,0,.12,0,.04,0,.08.01.12Z"/>
  </g>
</svg>